<?xml version="1.0" encoding="UTF-8"?>
<svg id="Layer_1" data-name="Layer 1" xmlns="http://www.w3.org/2000/svg" width="34.77" height="35.99" viewBox="0 0 34.77 35.99">
  <defs>
    <style>
      .cls-1 {
        fill: #fbd42a;
      }

      .cls-2 {
        fill: #4ab8dd;
      }

      .cls-3 {
        fill: #bbe3ec;
      }

      .cls-4 {
        fill: #483e3a;
      }

      .cls-5 {
        fill: #d5f6fd;
      }

      .cls-6 {
        fill: #fefefe;
      }

      .cls-7 {
        fill: #b5b1af;
      }
    </style>
  </defs>
  <path class="cls-4" d="M19.78,1.25c.24.12.2.33,0,.47-.46.33-.96-.02-1.4.19-.36.17-.05.7-.42.86-.37-.05-.26-.48-.16-.74.3-.82.96-.47,1.54-.58.14-.02.3-.14.43-.2Z"/>
  <path class="cls-4" d="M5.24,29.56c.22-.01,1.14-.1,1.03.32-.06.24-.84.08-1.05.12-.55.1-.97.61-1.45.87-.22.11-1.21.41-.93-.12.07-.14.49-.13.64-.19.61-.24.85-.77,1.75-1Z"/>
  <path class="cls-4" d="M26.27,29.89c.38.06.3.29.08.49-.8.74-1.87.45-2.49.82-.21.12-.27.4-.44.56-.2,0-.3-.1-.26-.3.2-.99,1.73-.86,2.45-1.14.26-.1.42-.3.65-.44Z"/>
  <path class="cls-4" d="M22.1,0c.38,0,.26.33.02.49-1.31.87-2.01-.72-2.92.36-.08.09-.14.18-.25.24-.83.07.38-1.55,1.67-.95.7.33.72.35,1.48-.14Z"/>
  <path class="cls-4" d="M29.58.63c.82.22-.58,1.1-1.39.79-.65-.25-1.2-.5-1.74.18-.09.11-.16.24-.29.32-.81-.09.51-1.56,1.74-1.09.94.36.74.38,1.66-.18l.03-.02Z"/>
  <path class="cls-4" d="M24.36,1.91c.68-.2,1.13.57,1.79.49.29-.04.5-.27.77-.36.41-.14.45.38-.29.67-1.13.44-1.62-.72-2.66-.3h-.03c-.68.61-.73,1.07-.75,1.96-.02.91-.45.84-.42-.11.03-1.08.35-2.22,1.6-2.35Z"/>
  <path class="cls-4" d="M20.14,31.77c.09-.03.21-.03.29.03.15.32-.67.81-.88.96-1.42.99-1.36.72-2.82.68-.91-.02-1.19.4-1.79.97-.73.69-1.34.47-2.25.46-.95-.02-1.35.52-1.98,1.12-.7.14.02-.67.19-.82.77-.68,1.37-.77,2.36-.68,1.62.16,1.38-.79,2.48-1.28,1.36-.6,2.04.55,3.82-.96.18-.15.35-.33.55-.46l.03-.02Z"/>
  <path class="cls-4" d="M34.54,24.15c.93.08-1.04,1.56-2.83,1.47-.41-.02-.75-.16-1.16-.05-.97.28-1.54,1.36-2.6,1.46-.51.05-1.04-.07-1.56-.09-2.24-.06-2.26,2.03-4.75,2.08-.79.02-1.63-.2-2.4.03-1.2.35-1.74,1.7-3.08,1.86-.64.08-1.28-.06-1.92-.07-1.94-.05-2.34,1.61-3.93,2.19-1.28.46-2.68,0-3.78.5-.86.39-1.27.99-1.92,1.6-.04,0-.07.01-.11.02-.47-.21.41-.93.57-1.08,1.38-1.3,2.03-1.18,3.79-1.24,2.59-.09,2.47-1.64,4.18-2.23,1.21-.42,2.3.11,3.32-.17.96-.26,1.54-1.29,2.46-1.7,1.16-.51,2.49.09,3.69-.29,1.18-.38,1.62-1.43,2.78-1.79,1.08-.33,1.96.11,2.78-.06.86-.18,1.38-1.07,2.18-1.37.56-.21,1.07-.05,1.63-.04,1.06.02,1.79-.54,2.66-1.05Z"/>
  <path class="cls-2" d="M1.47,33.53c1.35-.07,1.68-.35,2.61-1.15,1.6-1.37,2.9-.48,4.67-1.2,1.11-.45,1.89-1.56,2.89-1.87,1.32-.41,2.52.68,4.36-.79,1.27-1.02.83-1.25,2.75-1.1,1.65.13,1.86-.26,2.92-1.15,1.31-1.1,2.61.3,3.76-.76.95-.88.79-.84,2.2-.71,1.85.16,1.42-1.32,3.66-1.12-1.13,1.4-2.8,1.33-4.16,1.93-1.09.47-.69.8-2.1.75-2.63-.1-2.57,1.25-3.86,1.57-1.07.27-2.19-.08-3.27.38-.88.38-1.34,1.24-2.3,1.51-1.16.33-2.53-.02-3.42.35-1.11.46-2.05,1.65-2.98,1.97-1.03.35-2.31-.01-3.22.32-1.29.48-3.38,3.23-4.51,1.07Z"/>
  <path class="cls-4" d="M16.86,5.78c.02-.3.17-2.18.3-2.32.18-.18,1.34-.49,1.45.16.07.43.1,1.41.1,1.84.31-.02.69,0,.78.35.15.57.28,2.02.29,2.58.41.08.8.25,1.18.4.27-.95.04-.95,1.1-1.16-.02-.3.02-1.91.14-2.07.11-.16,1.15-.32,1.34-.17.2.16.19.72.21.94l.11,1.18c.36,0,.53.05.6.41.1.52.14,1.53.14,2.06.59.14,1.18.36,1.76.54,1.5.48,1.26.26,1.75,1.86.38.12,1.07.34,1.39.55.19.34.27,1.11.35,1.52l.46,2.53c.08.48.15.96.25,1.43.48.07,1.27.03,1.61.43.1.51-.41,3.88-.52,4.4.89.03,1.57-.36,2.25-.91.15-.12.48-.57.69-.38.14.37-.55.79-.8.98-.87.64-1.42.76-2.49.74-2.24-.21-1.81,1.28-3.66,1.12-1.41-.12-1.24-.17-2.2.71-1.14,1.06-2.44-.35-3.76.76-1.06.89-1.27,1.28-2.92,1.15-1.92-.15-1.48.08-2.75,1.1-1.85,1.48-3.04.38-4.36.79-1,.31-1.78,1.42-2.89,1.87-1.77.72-3.06-.17-4.67,1.2-.94.8-1.26,1.08-2.61,1.15-.23-.13-.17-.37.08-.43,1.17-.25,1.24-.13,2.25-1.04.94-.84,2.2-1.01,3.42-.95-.17-.62-.43-1.23-.67-1.83-1.45-3.56-3.29-6.56-5.07-9.89-.16-.29-1.47-2.95-1.47-3.04-.11-1.25,1.8-1.09,2.58-1.14l2.6-.15c.51-.03,1.03-.04,1.54-.09-.2-1.7.25-1.7,1.81-1.7.32-.59.83-1.13,1.23-1.67l1.25-1.65c.23-.31.45-.65.73-.92.64-.17,2.9-.43,3.48-.42.13-.79.4-1.9.64-2.67.32-.1.67-.15,1-.16ZM1.18,17.76c.52-.15,1.03-.35,1.54-.52.23-.94,4.87-1.17,5.75-1.22l4.81-.32c.65-.04,2.91-.2,3.48-.07.66.15.99.91,1.52,1.27.5.33,2.33.94,2.91,1.11,2.49.74,5.03,1.12,7.59,1.47.67.09,2.05.12,2.6.41h.25c.04-.27.08-.53.12-.8-.39-.12-.79-.17-1.19-.24l-1.96-.31c-3.03-.5-6.06-.96-9.07-1.56-2.25-.45-1.64-1.47-2.75-1.99-.35-.17-1.19-.02-1.58,0l-12.78.65c-2.58.16-2.24.18-1.25,2.12ZM1.79,19.09c2.14,4,4.39,7.59,5.86,11.98.3-.05.6-.14.9-.2-.16-.36-.26-.76-.38-1.14-.97-3.07-2.37-5.99-3.81-8.87-.22-.44-1.02-1.83-1.04-2.26-.52.12-1.02.29-1.52.48ZM18.5,8.62c-2.09.28-4.43.63-6.53.79-.14.19-.29.38-.42.58h.21c1.48-.18,2.96-.31,4.44-.46l1.37-.14c.38-.04.76-.09,1.15-.08v-.68c-.07,0-.15,0-.22,0ZM7.14,14.93h.59v-.04c.05-.81.22-.65.88-.71.57-.05,2.05-.24,2.4-.55-.74-.06-2.78-.03-3.43.09-.73.14-.46.67-.45,1.22ZM16.66,6.23c-.15.03-.31.05-.46.09-.22.72-.47,1.54-.53,2.3.18-.05.35-.11.53-.13.03-.75.41-1.5.46-2.26ZM1.34,18.1c.06.22.15.41.25.61.43-.16.86-.31,1.3-.45-.14-.19-.24-.33-.27-.56-.42.14-.85.32-1.28.4ZM21.56,8.26c-.07.23-.13.46-.22.68.21.07.41.14.62.2.06-.22.07-.5.1-.73.39-.05.81-.12,1.04-.48-.49.02-1.1.1-1.54.34ZM22.45,7.55l.31-.04c-.07-.5.01-1.15,0-1.68-.06.01-.15.01-.19.06-.07.38-.12,1.25-.11,1.66ZM17.52,5.63c-.02-.65.11-1.29.13-1.94-.32.14-.32,1.53-.36,1.93l.02.03c.07,0,.14,0,.21-.02Z"/>
  <path class="cls-5" d="M31.39,19.89h.25c0,.14,0,.27,0,.41-.06.39-.35.22-.65.22.14-.04.28.03.41-.07-.03-.19.09-.38,0-.56Z"/>
  <path class="cls-6" d="M27.57,16.65c.32.05,1.22.11,1.29.42-.35.03-.7-.13-1.06-.14,0,.24.06.86-.11,1.03-.13-.34-.14-.95-.12-1.31Z"/>
  <path class="cls-6" d="M25.58,16.26c.4,0,1.51.05,1.54.54-.38-.12-.75-.22-1.15-.26,0,.39-.03.78,0,1.17-.09-.02-.17-.04-.26-.07-.07-.45-.1-.92-.13-1.37Z"/>
  <path class="cls-6" d="M23.43,15.7c.39.1,1.68.23,1.74.56-.43-.04-.81-.13-1.23-.22-.01.44,0,.87,0,1.31-.14-.02-.27-.07-.4-.11.02-.51-.03-1.04-.1-1.54Z"/>
  <path class="cls-2" d="M22.75,5.84c.18-.04.36-.05.55-.05,0,.54.05,1.12.13,1.66-.22.02-.46.03-.68.07-.07-.5.01-1.15,0-1.68Z"/>
  <path class="cls-6" d="M21.27,15.27c.37.03,1.75.16,1.8.58-.43-.15-.86-.19-1.3-.24,0,.45-.02.91,0,1.36-.14-.04-.28-.04-.43-.04-.07-.54-.07-1.11-.07-1.65Z"/>
  <path class="cls-6" d="M18.62,14.66c.31.08,2.18.41,2.24.62-.48.03-1.17-.21-1.66-.3-.05.48-.1.98-.08,1.47-.17-.05-.34-.09-.5-.14v-1.64Z"/>
  <path class="cls-1" d="M27.81,16.93c.35.01.71.18,1.06.14.05.34.09.68.13,1.03-.45.03-.86-.13-1.3-.14.17-.17.11-.79.11-1.03Z"/>
  <path class="cls-2" d="M17.65,3.7c.18,0,.36,0,.54,0,.04.58.04,1.2.14,1.77-.27.06-.54.12-.81.17-.02-.65.11-1.29.13-1.94Z"/>
  <path class="cls-1" d="M25.97,16.53c.4.04.77.14,1.15.26.03.36.09.71.12,1.07-.42-.06-.84-.12-1.27-.17-.03-.39,0-.78,0-1.17Z"/>
  <path class="cls-1" d="M23.94,16.04c.42.09.8.18,1.23.22-.03.43.08.87.08,1.3-.43-.09-.87-.14-1.31-.21,0-.44-.01-.87,0-1.31Z"/>
  <path class="cls-1" d="M21.77,15.61c.45.05.88.09,1.3.24-.04.46.04.93.03,1.39-.44-.12-.89-.16-1.33-.27-.02-.45,0-.91,0-1.36Z"/>
  <path class="cls-2" d="M30.25,21.53c.41,0,.82.03,1.22,0-.05.57-.2,1.15-.18,1.71-.52-.02-1.02-.05-1.53.09.28-.61.4-1.14.49-1.8Z"/>
  <path class="cls-1" d="M19.2,14.97c.49.09,1.18.33,1.66.3-.05.5.03,1.02,0,1.52-.51-.09-1.26-.19-1.74-.36-.02-.49.03-.98.08-1.47Z"/>
  <path class="cls-7" d="M23.1,7.92c.26-.09.65-.06.91,0,.09.39.16,1.49.12,1.9-.6-.18-1.63-.44-2.18-.68.06-.22.07-.5.1-.73.39-.05.81-.12,1.04-.48Z"/>
  <path class="cls-1" d="M11.01,13.62c.82-.37.77.65.74,1.12-1.09-.05-2.93.07-4.02.19v-.04c.05-.81.22-.65.88-.71.57-.05,2.05-.24,2.4-.55Z"/>
  <path class="cls-7" d="M19.12,8.66c.13.05.28.08.41.13l6.05,1.97c.55.17,1.11.32,1.65.51.11.31.22.61.33.92-.65-.18-1.29-.45-1.92-.67l-4.42-1.55c-.59-.2-1.51-.57-2.1-.66v-.64Z"/>
  <path class="cls-7" d="M16.66,6.23c.72-.14,1.75-.52,2.46-.28.05.77.17,1.54.23,2.31-.45-.1-.81-.07-1.27-.01l-1.2.16c-.22.03-.45.07-.68.09.03-.75.41-1.5.46-2.26Z"/>
  <path class="cls-1" d="M2.63,17.7c.56-.14,1.12-.3,1.68-.4,3.47-.66,6.28.13,9.61.97,5.61,1.42,10.58,2.27,16.38,2.65.33.02,1.23-.11,1.2.23-.19.1-5.12-.34-5.65-.39-4.42-.43-8.28-1.24-12.57-2.22-3.89-.89-6.36-1.23-10.39-.27-.14-.19-.24-.33-.27-.56Z"/>
  <path class="cls-3" d="M2.72,17.24c.23-.94,4.87-1.17,5.75-1.22l4.81-.32c.65-.04,2.91-.2,3.48-.07.66.15.99.91,1.52,1.27.5.33,2.33.94,2.91,1.11,2.49.74,5.03,1.12,7.59,1.47.67.09,2.05.12,2.6.41.09.18-.03.37,0,.56-.12.1-.26.03-.41.07-.2.01-.43-.02-.64-.04l-1.51-.09c-3.94-.26-8.08-.89-11.91-1.78-5.19-1.21-8.7-2.87-14.21-1.37Z"/>
  <path class="cls-6" d="M18.81,9.67c.49-.03,1.51.43,2.01.6l6.28,2.22c.71.25,1.43.48,2.11.79.12.44.16.97.25,1.43l.43,2.34c.08.43.16.85.22,1.28-.2-.04-.4-.05-.61-.07-.16-.52-.13-1.1-.29-1.62-.38-.28-5.06-1.23-5.7-1.37-.51-.11-1.06-.18-1.55-.35-.38-.04-.75-.14-1.13-.22l-2.07-.44c-.92-.19-.58.82-.57,1.61-.67-1.21-1.16-1.4-2.44-1.34l-1.37.07c-.73.04-1.48.02-2.2.13,0-.43.11-.92-.2-1.27-.5-.58-2.09-.2-2.89-.27.58-.67,1.6-2.01,2.05-2.76.61-.07,1.22-.12,1.83-.17l3.65-.37c.73-.07,1.47-.11,2.19-.23Z"/>
  <path class="cls-4" d="M26.59,13c.27.02.62.15.43.45-.3.12-.54-.18-.43-.45Z"/>
  <path class="cls-4" d="M26.46,14.57c.38,0,.59.18.41.52-.3-.05-.65-.2-.41-.52Z"/>
  <path class="cls-4" d="M27.89,13.45c.3.01.68.15.46.49-.33.03-.59-.17-.46-.49Z"/>
  <path class="cls-4" d="M25,14.2c.33-.03.65.12.42.46-.27-.02-.69-.15-.42-.46Z"/>
  <path class="cls-4" d="M27.81,14.93c.26.01.74.13.41.45-.24,0-.7-.18-.41-.45Z"/>
  <path class="cls-4" d="M21.96,13.45c.31-.07.7.02.49.39-.22.01-.71-.1-.49-.39Z"/>
  <path class="cls-4" d="M20.47,11.12c.22,0,.78.12.49.43-.31.08-.66-.1-.49-.43Z"/>
  <path class="cls-4" d="M23.53,13.74c.25.01.76.17.4.46-.33.03-.68-.12-.4-.46Z"/>
  <path class="cls-4" d="M25.16,12.55c.25,0,.75.11.55.45-.19-.01-.98-.19-.55-.45Z"/>
  <path class="cls-4" d="M20.28,13c.31-.02.81.07.52.45-.27.02-.73-.13-.52-.45Z"/>
  <path class="cls-4" d="M23.61,12.06c.25.05.83.13.53.49-.29.03-.79-.14-.53-.49Z"/>
  <path class="cls-4" d="M21.96,11.56c.31-.01.89.09.68.5-.24,0-.93-.14-.68-.5Z"/>
  <path class="cls-4" d="M17.42,12.45c.11,0,.23,0,.27.13.12.42-1.23.35-1.46.37l-3.4.25c-.35-.02-.42-.37-.07-.42,1.34-.19,3.29-.27,4.66-.33Z"/>
  <path class="cls-4" d="M17.52,10.8c.46-.05.71.35.18.42-.34.04-.69.06-1.03.09l-1.72.15c-1.07.1-2.13.23-3.2.31-.19.02-.4.06-.45-.16-.07-.32.74-.3.91-.31l1.06-.09c1.41-.13,2.84-.24,4.25-.4Z"/>
  <path class="cls-3" d="M3.31,18.61c4.23-.98,6.89-.37,11.02.6,4.96,1.16,9.39,1.87,14.5,2.21.48.03.96.05,1.43.11-.09.66-.2,1.19-.49,1.8-.34.25-.81.73-1.13.9-.8.43-1.67-.17-2.56.19-.6.25-.92.98-1.58,1.08-.77.12-1.55-.29-2.32-.06-.79.24-1.19,1.11-1.96,1.39-1.09.39-2.08-.09-2.91.14-1.29.35-1.47,2.01-3.89,1.92-2.7-.09-1.78-.19-3.88,1.38-.31.23-.66.4-.99.59-.16-.36-.26-.76-.38-1.14-.97-3.07-2.37-5.99-3.81-8.87-.22-.44-1.02-1.83-1.04-2.26Z"/>
  <path class="cls-4" d="M15.55,20.89c.9,0,.75,1.35.12,1.67-.84.27-.76-1.33-.12-1.67Z"/>
  <path class="cls-1" d="M15.67,21.36c.35.08.02.7-.12.84-.28-.1-.06-.72.12-.84Z"/>
  <path class="cls-4" d="M13.16,20.75c.87-.09.62,1.51,0,1.81-.86.01-.78-1.68,0-1.81Z"/>
  <path class="cls-6" d="M13.16,21.13c.33.03.11.81,0,.96-.41.05-.12-.81,0-.96Z"/>
  <path class="cls-4" d="M10.47,20.63c.91-.09.66,1.66,0,1.93-.84-.15-.83-1.86,0-1.93Z"/>
  <path class="cls-1" d="M10.47,21.05c.35.19.17.79,0,1.04-.39.01-.15-.89,0-1.04Z"/>
  <path class="cls-4" d="M7.43,20.45c.84-.15.91,1.43.14,1.99-.91.32-.95-1.58-.14-1.99Z"/>
  <path class="cls-6" d="M7.49,20.89c.44.04.14.97-.06,1.21-.4-.05-.11-1.04.06-1.21Z"/>
</svg>