<?xml version="1.0" encoding="UTF-8"?>
<svg id="Layer_1" xmlns="http://www.w3.org/2000/svg" version="1.1" viewBox="0 0 45.21 29.4">
  <!-- Generator: Adobe Illustrator 29.8.3, SVG Export Plug-In . SVG Version: 2.1.1 Build 3)  -->
  <defs>
    <style>
      .st0 {
        fill: #c3dfe2;
      }

      .st1 {
        fill: #373636;
      }

      .st2 {
        fill: #68bdc7;
      }

      .st3 {
        fill: #78d1eb;
      }

      .st4 {
        fill: #333232;
      }

      .st5 {
        fill: #fefefe;
      }

      .st6 {
        fill: #31bbe1;
      }
    </style>
  </defs>
  <path class="st1" d="M15.18,7.8c3.79-8.97,17.43-7.4,18.49,2.78.65-.02,1.3.02,1.94.14,6.5,1.22,8.33,9.93,2.86,13.58-1.95,1.3-3.46,1.29-5.71,1.46-.44.03-1.66.3-1.92-.13-.07-.71,1.03-.48,1.57-.6h.03c1.72-.28,4.01-1.21,5.15-2.52,2.96-3.41,1.66-8.61-2.34-10.62-.18-.09-1.54-.67-1.73-.69-.28.04-.38-.01-.44-.29-.1-4.2-3.69-7.89-7.82-8.32-.7-.07-1.39-.04-2.09-.05-.54.14-1.1.2-1.63.36-2.45.73-4.68,2.47-5.68,4.86-.54,1.28-.54.72-1.6.22-3.38-1.6-7.49,1.11-7.16,4.84.02.21.2.78.1.96-.06.11-1.54.55-1.97.8-3.75,2.18-4.07,7.71-.24,9.92,2.59,1.49,7.12,1.31,10,1.31,1.86,0,3.62,0,5.47-.07l4.72-.19c.63-.03,2.29-.4,2.46.26-.17.43-.61.32-1,.34l-7.29.28c-3.58.1-7.77.19-11.26-.32C-.74,24.83.26,14.87,6.56,13.4c-.03-.28-.07-.56-.09-.84-.21-4.4,4.84-7.13,8.7-4.76Z"/>
  <path class="st2" d="M33.53,11.21c6.32-.3,10.01,6.96,5.77,11.51-1.86,2-3.78,2.25-6.36,2.33-.16,0-.33,0-.49-.02,1.72-.27,4.01-1.2,5.15-2.51,2.96-3.41,1.66-8.61-2.34-10.62-.18-.09-1.54-.67-1.73-.69Z"/>
  <path class="st0" d="M23.18,2.54c.7,0,1.39-.03,2.09.05,4.13.43,7.72,4.13,7.82,8.32.06.28.16.34.44.29.19.02,1.55.6,1.73.69,4,2.01,5.3,7.21,2.34,10.62-1.14,1.31-3.42,2.24-5.15,2.51h-.03c-.55.12-1.64-.1-1.57.61-.29,0-.99.09-1.21,0-.07.36-.43.44-.68.16-.12-.01-1.24-.02-1.3,0-.18-.66-1.84-.29-2.46-.26l-4.72.19c-1.85.06-3.62.07-5.47.07-2.88,0-7.42.18-10-1.31-3.83-2.21-3.5-7.74.24-9.92.43-.25,1.91-.68,1.97-.8.1-.18-.08-.75-.1-.96-.33-3.72,3.78-6.44,7.16-4.84,1.06.5,1.07,1.06,1.6-.22,1.01-2.39,3.24-4.13,5.68-4.86.54-.16,1.09-.22,1.63-.36Z"/>
  <path class="st1" d="M28.95,25.8c.02-.55.43-.58.68-.16-.07.36-.44.44-.68.16Z"/>
  <path class="st5" d="M18.55,6.54c1.09-.02.02.91-.38,1.17-.24.03-.5-.16-.42-.43.08-.27.56-.6.8-.73Z"/>
  <path class="st5" d="M12.83,15.34c.21-.02.54.02.53.31,0,.3-.55.41-.77.5-1.11.47-.8,1.03-1.34,1.65-1.3.17,0-2.13,1.58-2.47Z"/>
  <path class="st1" d="M13.08,13.7c.27-.04,1.46-.03.99.52-.16.18-.73.06-.97.07-1.72.07-3.05,1.73-2.97,3.39,0,.72-.53.82-.61.19-.25-2.1,1.53-3.98,3.56-4.18Z"/>
  <path class="st5" d="M21.83,9.07c.22,0,.66-.05.74.23.16.54-.66.44-.95.46-1.45.1-2.9.88-3.69,2.11-.18.29-.28.62-.47.9-.27.22-.6.13-.62-.26-.02-.48.7-1.35,1.01-1.67,1.04-1.1,2.46-1.73,3.97-1.77Z"/>
  <path class="st5" d="M6.69,15.26c.25-.02.48.28.35.51-.19.35-2.82.63-3.03,3.71-.03.5.22,1.14-.34,1.35-1.14-.28-.15-4.83,3.01-5.58Z"/>
  <path class="st5" d="M12.26,8.61c2.39-.12,2.5,1.12,1.86,1.06-.22-.02-.46-.14-.67-.22-1.27-.44-2.83.06-3.74.99-.35.41-.45.82-.73,1.21-.18.25-.57.1-.57-.21,0-1.5,2.45-2.81,3.85-2.84Z"/>
  <path class="st1" d="M38.06,20.25c.28.03.32.2.27.45-.69,3.76-11.41,3.96-14.27,3.48-.16-.04-.34-.22-.19-.39.19-.21,1.48.09,1.79.11,2.27.16,11.15-.16,12.15-2.93.09-.24.06-.53.25-.72Z"/>
  <path class="st1" d="M21.51,7.44c2.34-.2,4.63.84,6.16,2.59.42.48,2.2,3.45,1.04,3.13-.22-.06-.26-.55-.32-.73-.72-2.06-2.48-3.56-4.55-4.17-2.88-.74-6.03.36-7.59,2.98-.12.21-.3.7-.46.82-1.08.31.31-1.68.45-1.85,1.32-1.68,3.18-2.53,5.27-2.77Z"/>
  <path class="st2" d="M23.18,2.54c.7,0,1.39-.03,2.09.05,4.13.43,7.72,4.13,7.82,8.32-.58.1-1.15.32-1.7.53-.1-.88-.14-1.58-.39-2.44-.9-3.06-3.57-5.29-6.59-6.11-.2-.05-1.1-.34-1.22-.35Z"/>
  <path class="st4" d="M33.25,13.45c3.11-.16,5.83,2.32,5.73,5.49,0,.17-.02.35,0,.52v.03s.09-.02.09-.02c2.02-.38,3.93,1.1,4.29,3.08.4,2.16-1.06,4.27-3.23,4.65-.78.14-1.89.04-2.56-.43-2.48,1.09-5.47,1.17-8.15,1.04-.31-.02-.62-.05-.93-.04-1.28-.22-2.3-.25-3.63-.64-.23.09-.45.21-.69.3-2.98,1.11-6.12-1.45-5.37-4.67.48-2.05,2.57-3.62,4.69-3.11-.06-2.44,3.11-4.62,5.26-3.21,1.05-1.88,2.45-2.71,4.5-2.98ZM24.35,21.13c.04-.11.05-.41.07-.55.14.1.22-.26.29-.4.57-1.2,1.78-2.12,3.12-2.2.43-.03,1.37,0,1.71.32.1.17.27.17.37,0,1.1-2.82,5.05-3.72,7.51-2.03.17.12.33.3.53.37-.08-.18-.24-.49-.38-.63-1.99-2.85-6.45-2.67-8.19.37-.11.19-.19.45-.33.6-.25.26-.56-.15-.77-.26-1.64-.85-3.83.66-4.21,2.38-.21.98-.1,1.24.29,2.03ZM19.95,25.85c0-.15-.07-.34-.1-.48-.04-.17-.07-.36-.08-.53.16-.07.12-.26.15-.42.25-1.7,1.84-3.18,3.63-2.94.25.03.45.19.61-.06-.38,0-.49-.45-.59-.74-.05-.18-.07-.36-.07-.55-2.02-.32-3.94.86-4.26,2.93-.15.95.04,2.07.72,2.79ZM38.84,19.98c-.04.07-.07.15-.1.23,1.25,0,2.26-.11,3.29.9.09.09.2.26.31.32-.7-1.21-2.17-1.69-3.51-1.44Z"/>
  <path class="st6" d="M19.77,24.84c0-.33-.02-.67.02-1,.25-1.88,1.92-3.17,3.77-3.16.1.29.21.74.59.74-.16.25-.36.09-.61.06-1.79-.25-3.37,1.23-3.63,2.94-.02.15.02.35-.15.42Z"/>
  <path class="st6" d="M29.64,17.97c.08-.45.35-.95.6-1.33,1.48-2.23,4.97-2.84,6.97-.97.12.11.21.24.35.32.14.14.3.45.38.63-.2-.06-.36-.25-.53-.37-2.46-1.69-6.41-.79-7.51,2.03-.09.17-.27.17-.37,0-.35-.31-1.29-.34-1.71-.32-1.35.08-2.55,1-3.12,2.2-.07.14-.15.5-.29.4.11-.54.22-1.06.51-1.54.83-1.43,2.62-2.35,4.17-1.44.18.11.34.25.53.36h.02Z"/>
  <path class="st6" d="M29.54,18.29c.03-.11.05-.22.1-.32.1.1.18.21.27.32-.09.17-.27.17-.37,0Z"/>
  <path class="st6" d="M19.85,25.37c.15,0,.56.22.72.29,1.04.44,2.26.52,3.37.33,1.12-.19.55-.23,1.76.02,3.22.67,7.18.17,9.66-2.09,1.34-1.22,2.29-2.95,2.21-4.79,0-.18-.04-.37-.03-.56.23-.25.31.92.34,1.05.05.21.14.41.18.63.05-.14.09-.25.25-.28-.06.19-.23.63-.13.8.06.11.23.13.32.06.15-.1.2-.47.25-.64,1.25,0,2.26-.11,3.29.9.09.09.2.26.31.32.45.55.62,1.52.55,2.2-.23,2.2-2.49,3.68-4.57,2.95-1.29-.46-.36-.44-1.67.06-2.57.97-8.33.93-11.15.15-.24-.06-.47-.15-.7-.21h-.02c-.28.12-.54.28-.83.39-1.32.5-3.18.12-4-1.11,0-.14-.07-.34-.1-.48Z"/>
  <path class="st3" d="M29.91,18.29c1.1-2.82,5.05-3.72,7.51-2.03.17.12.33.3.53.37.45.82.6,1.81.49,2.73-.03.21-.11.42-.13.62-.16.03-.2.14-.25.28-.04-.21-.13-.41-.18-.63-.03-.13-.11-1.3-.34-1.05,0,.18.02.37.03.56.09,1.84-.87,3.57-2.21,4.79-2.48,2.26-6.45,2.76-9.66,2.09-1.21-.25-.64-.21-1.76-.02-1.11.19-2.33.1-3.37-.33-.16-.07-.57-.3-.72-.29-.04-.17-.07-.36-.08-.53.16-.07.12-.26.15-.42.25-1.7,1.84-3.18,3.63-2.94.25.03.45.19.61-.06.1-.09.16-.16.19-.29.04-.11.05-.41.07-.55.14.1.22-.26.29-.4.57-1.2,1.78-2.12,3.12-2.2.43-.03,1.37,0,1.71.32.1.17.27.17.37,0Z"/>
</svg>