<?xml version="1.0" encoding="UTF-8"?>
<svg id="Layer_1" data-name="Layer 1" xmlns="http://www.w3.org/2000/svg" width="45.21" height="29.4" viewBox="0 0 45.21 29.4">
  <defs>
    <style>
      .cls-1 {
        fill: #c2c2c2;
      }

      .cls-2 {
        fill: #fff;
      }

      .cls-3 {
        opacity: .2;
      }

      .cls-4 {
        fill: #ebebeb;
      }

      .cls-5 {
        fill: #d4d4d4;
      }
    </style>
  </defs>
  <path class="cls-3" d="M45.21,15.94c0-3.01-2.43-5.45-5.44-5.47-.26-4.79-4.23-8.6-9.08-8.6-1.21,0-2.37.24-3.43.67-1.45.59-2.71,1.54-3.67,2.74-.74-.27-1.53-.43-2.36-.43-3.69,0-6.68,2.96-6.75,6.63-3.89.17-6.99,3.37-6.99,7.3,0,.29.02.58.05.86-.24-.04-.5-.06-.75-.06-2.71,0-4.91,2.2-4.91,4.91s2.2,4.91,4.91,4.91h28.07c3.27,0,5.92-2.65,5.92-5.92,0-.75-.14-1.46-.39-2.12,2.71-.32,4.82-2.63,4.82-5.43Z"/>
  <g>
    <path class="cls-1" d="M37.89,8.6c-.26-4.79-4.23-8.6-9.08-8.6-1.21,0-2.37.24-3.43.67v18.86h12.49c3.02,0,5.47-2.45,5.47-5.47s-2.43-5.45-5.44-5.47Z"/>
    <path class="cls-5" d="M21.71,3.41c-.74-.27-1.53-.43-2.36-.43-3.73,0-6.75,3.02-6.75,6.75,0,.27.02.53.05.8-.23-.03-.46-.05-.69-.05-2.5,0-4.53,2.03-4.53,4.53s2.03,4.53,4.53,4.53h13.42V.67c-1.45.59-2.71,1.54-3.67,2.74Z"/>
  </g>
  <g>
    <path class="cls-4" d="M33,15.69c-.28-5.19-4.58-9.32-9.84-9.32-1.31,0-2.57.26-3.71.72v20.43h13.53c3.27,0,5.92-2.65,5.92-5.92s-2.64-5.91-5.9-5.92Z"/>
    <path class="cls-2" d="M15.48,10.06c-.8-.3-1.66-.46-2.56-.46-4.04,0-7.31,3.27-7.31,7.31,0,.29.02.58.05.86-.24-.04-.5-.06-.75-.06-2.71,0-4.91,2.2-4.91,4.91s2.2,4.91,4.91,4.91h14.54V7.09c-1.57.64-2.93,1.67-3.97,2.96Z"/>
  </g>
</svg>