<?xml version="1.0" encoding="UTF-8"?>
<svg id="Layer_1" data-name="Layer 1" xmlns="http://www.w3.org/2000/svg" width="38.9" height="21.16" viewBox="0 0 38.9 21.16">
  <defs>
    <style>
      .cls-1 {
        fill: #fff;
      }

      .cls-2 {
        fill: #ebebeb;
      }
    </style>
  </defs>
  <path class="cls-2" d="M33,9.32c-.28-5.19-4.58-9.32-9.84-9.32-1.31,0-2.57.26-3.71.72v20.43h13.53c3.27,0,5.92-2.65,5.92-5.92s-2.64-5.91-5.9-5.92h0Z"/>
  <path class="cls-1" d="M15.48,3.69c-.8-.3-1.66-.46-2.56-.46-4.04,0-7.31,3.27-7.31,7.31,0,.29.02.58.05.86-.24-.04-.5-.06-.75-.06-2.71,0-4.91,2.2-4.91,4.91s2.2,4.91,4.91,4.91h14.54V.72c-1.57.64-2.93,1.67-3.97,2.96h0Z"/>
</svg>