<?xml version="1.0" encoding="UTF-8"?>
<svg id="Layer_1" data-name="Layer 1" xmlns="http://www.w3.org/2000/svg" width="30.16" height="36.34" viewBox="0 0 30.16 36.34">
  <defs>
    <style>
      .cls-1 {
        fill: #64cfc2;
      }

      .cls-2 {
        fill: #fddbac;
      }

      .cls-3 {
        fill: #393738;
      }

      .cls-4 {
        fill: #fefefe;
      }

      .cls-5 {
        fill: #fec90e;
      }
    </style>
  </defs>
  <path class="cls-3" d="M7.48.02c1.12-.11,3.16.23,4.3.37,4.73.59,9.09,1.22,13.73,2.51,1.85.51,4.17.93,4.61,3.12.26,1.28-.72,4.54-.99,6.18l-1.41,8.76c-.64,3.77-1.41,8.06-2.39,11.75-.46,1.72-.71,3.22-2.7,3.63-1.71,0-3.39-.29-5.08-.53-2.75-.38-5.49-.83-8.23-1.29l-1.96-.33c-.46-.08-.92-.18-1.38-.25-1.37-.21-2.99.44-4.18-.51-1.24-.99-1.09-3.45-1.17-4.89l-.23-4.2C.17,19.85.02,15.36.02,10.86v-2.99c0-1.05-.24-2.57.89-2.99,1.08-.4,3.65-.59,4.87-.67.08-1.17.17-4.1,1.7-4.19Z"/>
  <path class="cls-2" d="M28.85,4.97c1.32.99.58,3.75.27,5.05-.65,2.72-1.18,5.46-1.69,8.21l-2.03,10.82c-.35,1.87-.56,5.22-2,6.31-.17.12-.35.22-.53.31.83-.78.99-1.92,1.22-2.98.68-3.11,1.28-6.27,1.91-9.39l.76-3.89c.38-1.99.65-3.91.97-5.9l.69-4.37c.25-1.59.36-2.56.43-4.13v-.03Z"/>
  <path class="cls-2" d="M21.54,4.97c1.44.92,1.06,4.48,1.09,6,.04,2.11.12,4.23.21,6.35l.28,6.66c.09,1.88.23,3.94.18,5.82-.03,1.12-.69,2.36-1.75,2.8-.36.15-.72.11-1.09.11-2.4.05-4.8.32-7.2.42-2.65.11-5.3.05-7.94.2-.78.04-1.88.22-2.62-.1-.38-.13-.59-.3-.81-.62,1.43.2,2.88.1,4.33.06,1.86-.06,3.72-.1,5.59-.21l2.78-.19c1.23-.07,2.44-.07,3.67-.06,1.55,0,3.41.25,4.19-1.42.23-.49.13-1.03.11-1.56-.06-2.14-.05-4.2-.04-6.34,0-3.26-.09-6.51-.28-9.77l-.28-4.5c-.08-1.07-.04-2.74-.38-3.67Z"/>
  <path class="cls-5" d="M7.31.67c.5-.07,2.19.15,2.79.22,5.14.61,10.31,1.47,15.32,2.78.76.2,2.05.48,2.71.86.51,1.13.1,2.49-.09,3.65l-.49,3c-.59,3.59-1.12,7.08-1.88,10.64-.37,1.71-.75,3.42-1.06,5.15-.31,1.75-.59,3.49-.99,5.22-.27,1.2-.47,2.84-1.85,3.27.04-.28.32-1.1.13-1.34-.24-.03-.27.43-.31.59l-.21.82c-1.73.04-4.03-.36-5.78-.63-.83-.13-1.68-.22-2.51-.4-1.29-.15-2.58-.5-3.83-.63.7-.11,1.47-.05,2.18-.05,1.16,0,2.45-.02,3.59-.06,1.84-.07,3.78-.38,5.59-.37.86,0,1.58-.22,2.21-.84,1.58-1.57.89-4.25.9-6.25.32-.24.46-1.79.27-1.82-.17.12-.24,1.01-.35,1.33-.02-.19,0-.39,0-.58l-.58-17.88c-.09-2.15-1.26-3.73-3.51-3.72h-1.34c-4.12-.04-7.97.38-12.01.54.04-.6.54-3.19,1.11-3.49Z"/>
  <path class="cls-3" d="M26.32,12.25c.28.07.07.94,0,1.13-.38-.07-.11-.92,0-1.13Z"/>
  <path class="cls-3" d="M25.22,20.11c.38.08.06.82,0,1.16-.45-.04-.11-.86,0-1.16Z"/>
  <path class="cls-3" d="M19.69,33.89c.43.05.06,1.07-.08,1.26-.4-.02-.03-1.09.08-1.26Z"/>
  <path class="cls-3" d="M26.16,13.89c.44.08-.11,1.65-.2,1.79-.43-.13.08-1.59.2-1.79Z"/>
  <path class="cls-3" d="M26.09,5.45c.49-.03-.08,1.77-.12,1.82-.4-.12.03-1.63.12-1.82Z"/>
  <path class="cls-3" d="M27.28,5.45c.43.16-.1,2.05-.22,2.18-.33-.15-.07-.64,0-1,.05-.3.05-.95.23-1.18Z"/>
  <path class="cls-3" d="M25.76,16.56h.12c.22.16-.24,1.89-.38,2.15-.43-.05.19-1.99.27-2.15Z"/>
  <path class="cls-3" d="M26.63,8.59c.42.08-.21,2.15-.31,2.35-.42-.22.18-2.15.31-2.35Z"/>
  <path class="cls-4" d="M8.6,1.54c.64-.03,1.27,0,1.86.27-.74.8-2.14-.44-2.66.7-.09.24-.04,1.59-.53,1.19-.43-.35-.06-1.63.25-1.93.29-.28.7-.23,1.07-.23Z"/>
  <path class="cls-1" d="M17.45,4.03c.7,0,2.12-.06,2.72.08,1.56.37,1.22,2.62,1.27,3.8l.58,16.9c.02.76.04,1.53.09,2.29.16,2.83.4,4.1-2.87,4.31-3.57.23-7.14.64-10.72.68-1.08.01-2.17,0-3.24.1-.75,0-3.08.15-3.59-.32-.42-.38-.62-6.97-.65-7.77l-.4-11.48c-.04-1.69-.04-3.46-.05-5.16,0-1.35-.59-1.98.96-2.29,1.72-.35,3.82-.46,5.57-.58,3.46-.25,6.88-.37,10.34-.56Z"/>
  <path class="cls-4" d="M4.43,26.23c.47.05,1.08-.02,1.56-.04l5.12-.26c.57-.03,1.16-.02,1.73-.13.06,0,.11,0,.16.04-.3.31-6.07.85-6.92.87-.35,0-1.58,0-1.68-.45l.04-.03Z"/>
  <path class="cls-3" d="M14.01,27.37c.68-.21,1.17.55.34.68-1.39.21-3.9.17-5.32.17-.23,0-.85-.04-.86-.37.35-.19,5.15-.49,5.84-.48Z"/>
  <path class="cls-4" d="M1.99,21.88c.18.24.38,5.12.44,6.33.04.76.02,2.05.26,2.75.42.41,1.2.43,1.74.44-.1.04-.19.07-.29.11-.62.23-1.75.26-2-.49-.58-1.69-.14-6.93-.14-9.13Z"/>
  <path class="cls-4" d="M3.99,5.72c.45-.06.98.24.41.46-.74.29-1.68.24-2.47.51-.03.34,0,.69,0,1.03v2.04c0,.41.1.98-.07,1.36-1.01.83-.63-2.71-.63-2.96.01-.35-.04-1.44.17-1.71.32-.42,2.01-.66,2.58-.73Z"/>
  <path class="cls-3" d="M4.19,25.91c.93-.33,2.03-.34,3.01-.43,1.54-.14,3.09-.23,4.63-.33l3.79-.24c.46-.03,2.36-.3,2.68-.06.17.13.21.38.06.54-.31.34-1.63.25-2.06.27l-3.48.14c-.56.11-1.15.1-1.73.13l-5.12.26c-.48.02-1.09.09-1.56.04-.13-.06-.19-.19-.24-.32Z"/>
  <path class="cls-3" d="M11.37,7.77c1.48-.25,3.69.71,4.81,1.65,5.15,4.36,2.37,12.54-4.35,13.04h-.04c-4.04.12-7.52-3.02-7.61-7.09-.09-4.03,3.13-7.52,7.19-7.6Z"/>
  <path class="cls-4" d="M14.18,15.22l.29.07c.01.88-.15,1.83-.11,2.65-.12-.04-.24-.07-.35-.1.13-.88.17-1.74.17-2.62Z"/>
  <path class="cls-4" d="M9.58,18.49c1.27-.24,2.52-.42,3.81-.2l-.08.3c-1.13-.12-2.35-.21-3.42.24.24.71.7,2.26,1.38,2.6.27.14.7.08,1,.07l-.1.18c-.36.09-.74.09-1.11.09-.86-1.22-1.09-1.86-1.49-3.27Z"/>
  <path class="cls-4" d="M16.72,10.67c.24.26.41.56.58.86-.19-.1-.33-.3-.44-.48-.7.83-1.65,1.22-2.56,1.74.07.62.04,1.29.18,1.9-.1,0-.2,0-.29,0-.09-.77-.16-1.53-.34-2.29,1.23-.46,1.89-.87,2.88-1.74Z"/>
  <path class="cls-4" d="M13.93,18.37c.33.07,2.34.8,2.45,1.12l-.03.05c-.42-.04-1.44-.57-1.99-.71-.16.54-.3,1.09-.52,1.61-.1.23-.42.74-.46.93-.27.12-.57.2-.84.31.72-1.27,1.05-1.74,1.38-3.3Z"/>
  <path class="cls-4" d="M9.22,12.67c1.76.31,2.56.03,4.13-.07h.04c.03.13.06.26.09.39-1.44.34-2.48.29-3.9.09.04.61,0,1.25,0,1.86-.15,0-.31-.03-.46,0-.02-.76.04-1.51.11-2.27Z"/>
  <path class="cls-4" d="M9.11,15.44c1.51-.17,3-.23,4.52-.22v.37c-1.45,0-2.59.18-3.96.29-.02.66.01,1.45.22,2.07-.13.03-.25.06-.38.11-.28-.76-.32-1.8-.4-2.61Z"/>
  <path class="cls-4" d="M10.46,8.36c.31-.04.61-.06.92-.05.37.19.57.5.8.83-.51-.02-1.07.09-1.56,0,.11.48-.25.9-.43,1.33-.21.5-.33,1.01-.46,1.53.58.16,1.47-.05,1.91.27-.82-.04-1.53,0-2.37-.07.19-1,.37-1.8.73-2.76.13-.37.36-.69.47-1.07Z"/>
  <path class="cls-1" d="M14.37,18.82c.55.15,1.57.67,1.99.71l-.03.03c-.99.84-1.55,1.43-2.93,1.8.04-.19.36-.7.46-.93.22-.52.35-1.07.52-1.61Z"/>
  <path class="cls-4" d="M4.8,16.22c-.54-1.6.22-3.84,1.23-5.1.16.2.34.37.54.54-.82.68-1.41,3.08-1.22,4.22-.19.11-.37.22-.55.34Z"/>
  <path class="cls-1" d="M9.58,13.08c1.42.2,2.46.25,3.9-.09,0,.56.09,1.14.15,1.7-1.02,0-3.09-.04-4.06.25,0-.62.04-1.25,0-1.86Z"/>
  <path class="cls-4" d="M6.2,10.94c.93-1.19,2.51-2.18,3.98-2.51-.88,1.19-1.16,2.22-1.38,3.65-.12-.03-.24-.07-.37-.1-.59-.16-1.15-.38-1.68-.68-.19-.11-.38-.22-.55-.36Z"/>
  <path class="cls-1" d="M6.75,11.3c.77-.74,1.53-1.44,2.51-1.89-.39.85-.67,1.65-.83,2.58-.59-.16-1.15-.38-1.68-.68Z"/>
  <path class="cls-4" d="M11.83,8.3c1.94-.08,3.11.88,4.53,1.93-.19.14-.37.28-.56.44-.5.44-1.09.72-1.7.99l-.37.13c-.32-1.21-.74-2.87-1.91-3.49Z"/>
  <path class="cls-1" d="M13.1,9.26c.9.12,2.06.77,2.7,1.41-.5.44-1.09.72-1.7.99-.39-.9-.43-1.44-1.01-2.4Z"/>
  <path class="cls-1" d="M9.89,18.82c1.07-.46,2.29-.36,3.42-.24-.12.75-.56,2.34-1.04,2.91-.3,0-.73.07-1-.07-.68-.35-1.14-1.89-1.38-2.6Z"/>
  <path class="cls-4" d="M5.35,16.36c.11.23.1.49.17.73.25.79.78,1.87,1.4,2.44l.22.17c.65-.36,1.22-.85,1.97-1,.03.11.07.22.11.32.07.28.18.55.29.82.32.67.61.94.95,1.51.15.12.29.27.44.39-2.97-.04-5.44-2.37-6.09-5.19l.55-.2Z"/>
  <path class="cls-1" d="M9.22,19.03c.07.28.18.55.29.82.32.67.61.94.95,1.51-.68-.21-1.34-.43-1.98-.77-.27-.14-.51-.37-.79-.48.3-.22.6-.45.91-.65.19-.16.39-.33.62-.43Z"/>
  <path class="cls-1" d="M9.67,15.88c1.37-.1,2.52-.29,3.96-.29.03.7-.06,1.44-.15,2.13-1.01-.19-2.65-.23-3.59.22-.21-.62-.23-1.41-.22-2.07Z"/>
  <path class="cls-1" d="M12.18,9.13c.55,1.04.7,1.92,1.13,2.85-.55.08-1.11.23-1.67.27-.44-.32-1.33-.1-1.91-.27.12-.52.25-1.03.46-1.53.18-.43.54-.85.43-1.33.49.09,1.05-.02,1.56,0Z"/>
  <path class="cls-1" d="M5.35,16.36c1.16-.41,2.09-.61,3.28-.85.06.89.09,1.84.4,2.69-.72.15-1.77.63-2.1,1.33-.62-.58-1.16-1.65-1.4-2.44-.07-.24-.06-.5-.17-.73Z"/>
  <path class="cls-1" d="M6.57,11.66c.72.4,1.43.75,2.23.94-.17.79-.19,1.63-.17,2.44-1.12.13-2.25.34-3.28.84-.19-1.14.4-3.54,1.22-4.22Z"/>
  <path class="cls-1" d="M14.48,15.29c1.1-.02,2.6.26,3.71.39-.41,1.49-.48,2.21-1.55,3.54-.66-.64-1.44-.92-2.27-1.28-.04-.83.12-1.77.11-2.65Z"/>
  <path class="cls-1" d="M16.85,11.05c.11.17.26.38.44.48.7.84.97,3.02.89,4.06-1.55-.87-2.34-.54-3.71-.9-.14-.61-.11-1.27-.18-1.9.91-.52,1.86-.91,2.56-1.74Z"/>
</svg>