<?xml version="1.0" encoding="UTF-8"?>
<svg id="Layer_1" data-name="Layer 1" xmlns="http://www.w3.org/2000/svg" width="45.21" height="35.57" xmlns:xlink="http://www.w3.org/1999/xlink" viewBox="0 0 45.21 35.57">
  <defs>
    <style>
      .cls-1 {
        fill: url(#linear-gradient-2);
      }

      .cls-2 {
        fill: #351800;
      }

      .cls-3 {
        fill: #facd95;
      }

      .cls-4 {
        fill: #35aeca;
      }

      .cls-5 {
        fill: #feb923;
      }

      .cls-6 {
        fill: #272422;
      }

      .cls-7 {
        fill: url(#linear-gradient);
      }

      .cls-8 {
        fill: #269abc;
      }

      .cls-9 {
        fill: #070404;
      }
    </style>
    <linearGradient id="linear-gradient" x1="-1672.99" y1="464.95" x2="-1672.45" y2="465.19" gradientTransform="translate(16037.24 4480.92) scale(9.57 -9.57)" gradientUnits="userSpaceOnUse">
      <stop offset="0" stop-color="#178cb1"/>
      <stop offset="1" stop-color="#34acca"/>
    </linearGradient>
    <linearGradient id="linear-gradient-2" x1="-1673.85" y1="467.22" x2="-1673.8" y2="467.24" gradientTransform="translate(16037.24 4480.92) scale(9.57 -9.57)" gradientUnits="userSpaceOnUse">
      <stop offset="0" stop-color="#220a00"/>
      <stop offset="1" stop-color="#2c1a00"/>
    </linearGradient>
  </defs>
  <path class="cls-9" d="M29.79,5.4c.46.07.31.38.09.62-.45.02-.31-.43-.09-.62Z"/>
  <path class="cls-9" d="M35.42,14.54c.52-.05.5.29,0,.39-.6.05-.57-.28,0-.39Z"/>
  <path class="cls-9" d="M26.37,3.06c.49.05.25.57,0,.76-.41-.15-.25-.51,0-.76Z"/>
  <path class="cls-6" d="M5.16,14.17c.47.05.46.41.15.64-.39.02-.58-.52-.15-.64Z"/>
  <path class="cls-6" d="M15.72,3.44c.36.05.63.48.3.77-.4-.02-.67-.53-.3-.77Z"/>
  <path class="cls-6" d="M11.77,6.32c.37.02.82.57.6.9-.32-.03-.8-.57-.6-.9Z"/>
  <path class="cls-6" d="M37.44,14.34c.51-.02.5.42-.24.48-.51.03-.56-.4.24-.48Z"/>
  <path class="cls-6" d="M30.89,3.06c.75.13-.08,1.34-.35,1.59-.65.25.19-1.44.35-1.59Z"/>
  <path class="cls-6" d="M10.01,3.82c.47.04,1.42,1.33,1.09,1.67-.31,0-1.54-1.3-1.09-1.67Z"/>
  <path class="cls-6" d="M36.78,7.9c.19.04.27.21.16.36-.34.51-2.58,2.18-3.4,2.32-.08,0-.15.02-.22-.02v-.05s3.24-2.52,3.46-2.61Z"/>
  <path class="cls-6" d="M21.23,0c.11,0,.2-.02.27.07.49.58.55,3.74.36,4.82l-.06.02c-.26-.17-.37-2.42-.42-2.8-.06-.45-.5-1.77-.15-2.11Z"/>
  <path class="cls-6" d="M4.02,8.39c.46-.01,4.3,2.23,4.89,2.57.24.14.85.37.6.73-.42.05-.82-.25-1.17-.45l-3.11-1.71c-.34-.18-1.6-.68-1.21-1.14Z"/>
  <path class="cls-6" d="M38.67,32.84c.61-.1,2.36.69,2.33,1.21l-.06.05c-.21,0-.84-.44-1.07-.55-1.2-.6-1.81,0-2.87.57-1.52.81-1.76-.16-2.99-.52-.87-.26-1.56.34-2.28.74-.82.44-1.68.32-2.42-.26-.08-.06-.18-.14-.19-.24.12-.15.4.1.54.17,1.47.75,2.25-.65,3.52-.92,1.23-.27,1.85.87,2.77.86.87,0,1.66-.94,2.72-1.1Z"/>
  <path class="cls-6" d="M23.07,33.62c.43-.03.8.08,1.18.27.15.07,1.58.63,1.15.81-.31.14-1.02-.35-1.33-.47-1.46-.56-1.82.41-2.94.89-1.19.52-1.87-.45-2.83-.81-1.67-.64-2.29,2.18-4.63.56-2.23-1.55-2.56,2.04-4.93.15-1.15-.91-1.66-.15-2.79.35l-.04.02c-.77.35-2.37.17-2.47-.66l.03-.03c.34.11.57.38.94.45,1.3.26,2.09-1.1,3.32-1.05.85.03,1.24.88,2.01.98.89.11,1.65-1.02,2.7-1.08,1.01-.06,1.55.98,2.51.91,1.01-.08,1.52-1.23,2.86-1.16.99.05,1.58,1.09,2.59,1,.96-.08,1.52-1.01,2.65-1.12Z"/>
  <path class="cls-8" d="M3.25,30.8c1.74-.04,2.31-1.14,4.2-.42,2.66,1.01,2.86-.39,4.69-.43.91-.02,1.64.72,3.07.65,1.39-.07,1.44-.82,3.4-.59.35.3.73.25.88.78-1.18.02-2.32.26-3.49.34-.89.06-1.76-.15-2.66-.09-1.15.07-2.26.37-3.41.46-1.15.09-2.32-.06-3.46.08-1.42.17-3.07,1.3-3.22-.79Z"/>
  <path class="cls-4" d="M19.09,24.72c.69-1.04,1.39-2.27,2.78-2.44-1.25,1.98-.41,3.48,1.95,3.64.71.41,2.24.19,2.97,0,2.98-.77,2.66-.79,5.7-.04,2.78.68,4.04-2.13,5.47-1.77.24.89.62,1.23,1.53,1.3.91,0,1.83-.12,2.74-.25v1.19c-.1.75-.13,1.48-.25,2.24.34.03,1.39-.23,1.19.18-.13.29-.53.43-.83.47-.12,0-.24.01-.37,0-.12.3-.19.6-.26.92-1.02-.03-1.99.27-3,.3-.82.02-1.64-.15-2.45-.18-.95-.03-1.87.16-2.81.22-.47.03-.93-.05-1.4,0-2.29-.53-3.91.35-5.68,0-.91,0-1.82-.03-2.73.02-1.39.06-2.75.22-4.16.26-.15-.53-.52-.48-.88-.78-1.95-.23-2.01.52-3.4.59-1.43.07-2.16-.67-3.07-.65-1.83.04-2.04,1.44-4.69.43-1.88-.72-2.45.37-4.2.42-.38,0-1.81-.38-1.19-.81.14-.1.63.15.85.18h.22c.11-.65-.36-2.65-.13-3.19.08-.2.58-.29.78-.34,4.11-1.04,8.68,1.3,11.82-.19.78-.37,1.36-.84.92-1.72-.15-.09-.32-.17-.49-.23-.03-.16-.06-.32-.1-.48.02-.31.1-.8.5-.84,1.03-.09,1.48,1.64,2.67,1.54Z"/>
  <path class="cls-8" d="M39.49,25.42c.91,0,1.83-.12,2.74-.25v1.19c-.22.21-2.32-.65-2.7-.91l-.04-.02Z"/>
  <path class="cls-6" d="M2.91,30.17c1,.17,2.19-.73,3.24-.81,1.1-.08,1.91.68,2.97.69.95,0,1.75-.66,2.7-.76,1.37-.14,2,.6,3.1.63.82.02,1.54-.59,2.32-.55.28.02,1.64.17,1.37.64-1.95-.23-2.01.52-3.4.59-1.43.07-2.16-.67-3.07-.65-1.83.04-2.04,1.44-4.69.43-1.88-.72-2.45.37-4.2.42-.38,0-1.81-.38-1.19-.81.14-.1.63.15.85.18Z"/>
  <path class="cls-6" d="M25.49,29.67c-.19-.05-.77-.31-.79-.56.11-.14.74.08.92.12,1.9.36,2.18-1.75,5.3-.41,2.01.86,2.83-1.33,5.56-.23,2.49,1,2.7-1.22,5.5,0,.34.03,1.39-.23,1.19.18-.13.29-.53.43-.83.47-.12,0-.24.01-.37,0-.12.3-.19.6-.26.92-1.02-.03-1.99.27-3,.3-.82.02-1.64-.15-2.45-.18-.95-.03-1.87.16-2.81.22-.47.03-.93-.05-1.4,0-2.29-.53-3.91.35-5.68,0-.2-.35-.85-.38-.89-.84Z"/>
  <path class="cls-7" d="M25.49,29.67c1.75.45,2.48-.71,3.92-.6.67.05,1.21.45,1.84.6.2.37.67.51.81.84-2.29-.53-3.91.35-5.68,0-.2-.35-.85-.38-.89-.84Z"/>
  <path class="cls-8" d="M31.25,29.67c1.47.3,2.37-.6,3.66-.7.92-.07,1.66.55,2.58.59,1.22.06,1.92-.58,2.97-.66.66-.05,1.22.33,1.88.34-.12,0-.24.01-.37,0-.12.3-.19.6-.26.92-1.02-.03-1.99.27-3,.3-.82.02-1.64-.15-2.45-.18-.95-.03-1.87.16-2.81.22-.47.03-.93-.05-1.4,0-.15-.33-.61-.47-.81-.84Z"/>
  <path class="cls-3" d="M28.92,19.64c1.22.89,3.38-.24,4.62-.49,1.05-.21,2.16-.23,3.2,0,.22.05.77.26.94.25.27-.02.59.22.83.33,1.14.56,1.79.56,3.04.68.41,1.32.57,2.7.67,4.08.34-.01,1.1-.28,1.24-.16.53.46-1.03.77-1.24.82-.9.14-1.82.26-2.74.25-.91-.07-1.29-.41-1.53-1.3-1.43-.36-2.69,2.45-5.47,1.77-3.04-.75-2.73-.72-5.7.04-.73.19-2.26.41-2.97,0-2.36-.16-3.2-1.66-1.95-3.64-1.38.16-2.08,1.4-2.78,2.44-1.2.1-1.64-1.63-2.67-1.54-.39.03-.48.52-.5.84.04.16.08.32.1.48-.16.86-.87,1.21-1.64,1.44-3.15.96-7.25-1.13-11.16-.13-.73.19-1.09.66-1.31-.14,2.29-1.06,5.16-.94,7.6-.51.11-.21-.83-.28-.97-.3-1.76-.3-2.99-.52-4.85-.4-.7.04-1.31.35-1.46-.54-.26-1.52.6-2.27,1.85-2.91,2.83-1.44,5.3-.78,8.26-.46,1.71.18,4.02.14,5.68-.28.61-.15,1.18-.44,1.77-.65,1.4-.5,3.16-.69,4.65-.52.37.04.78.19,1.16.1,1.56.79,1.88.54,3.32.43ZM18.4,23.33c-.75-.43-1.34-1.16-2.22-1.35-1.55-.33-1.93.97-1.04,2.21.3.38.17.59-.27.79-.86.71-4.25.57-5.35.18-2.43-.42-5.31-.54-7.6.51.22.79.58.32,1.31.14,3.91-1,8.01,1.09,11.16.13.77-.23,1.48-.58,1.64-1.44-.03-.16-.06-.32-.1-.48.02-.31.1-.8.5-.84,1.03-.09,1.48,1.64,2.67,1.54.69-1.04,1.39-2.27,2.78-2.44-1.25,1.98-.41,3.48,1.95,3.64.71.41,2.24.19,2.97,0,2.98-.77,2.66-.79,5.7-.04,2.78.68,4.04-2.13,5.47-1.77.24.89.62,1.23,1.53,1.3.91,0,1.83-.12,2.74-.25.21-.05,1.77-.36,1.24-.82-.13-.12-.9.14-1.24.16-.55.14-2.28.31-2.86.22-1.03-.15-.31-1.9-1.9-1.94-1.59-.04-2.61,1.71-4.17,1.97-.91.15-1.72-.33-2.57-.53-1.71-.42-3.3-.09-4.93.48-1.04.36-2.26.83-3.26.1-1.52-1.1.39-2,.18-3.08-.13-.68-.89-.83-1.47-.72-1.15.21-2.19,1.4-2.83,2.33Z"/>
  <path class="cls-6" d="M18.4,23.33c.64-.92,1.68-2.12,2.83-2.33.58-.11,1.35.04,1.47.72.2,1.08-1.7,1.98-.18,3.08,1,.72,2.23.26,3.26-.1,1.63-.57,3.22-.9,4.93-.48.85.21,1.67.68,2.57.53,1.56-.26,2.58-2.01,4.17-1.97,1.6.04.87,1.79,1.9,1.94.59.09,2.31-.08,2.86-.22.34-.01,1.1-.28,1.24-.16.53.46-1.03.77-1.24.82-.9.14-1.82.26-2.74.25-.91-.07-1.29-.41-1.53-1.3-1.43-.36-2.69,2.45-5.47,1.77-3.04-.75-2.73-.72-5.7.04-.73.19-2.26.41-2.97,0-2.36-.16-3.2-1.66-1.95-3.64-1.38.16-2.08,1.4-2.78,2.44-1.2.1-1.64-1.63-2.67-1.54-.39.03-.48.52-.5.84.04.16.08.32.1.48-.16.86-.87,1.21-1.64,1.44-3.15.96-7.25-1.13-11.16-.13-.73.19-1.09.66-1.31-.14,2.29-1.06,5.16-.94,7.6-.51,1.1.39,4.49.52,5.35-.18.44-.2.57-.4.27-.79-.89-1.24-.5-2.54,1.04-2.21.88.19,1.47.91,2.22,1.35ZM23.82,25.93c.71.41,2.24.19,2.97,0,2.98-.77,2.66-.79,5.7-.04,2.78.68,4.04-2.13,5.47-1.77-.08-.36-.24-.77-.69-.65-1.15.3-2.14,1.58-3.62,1.94-1.1.27-1.95-.16-2.98-.45-3.16-.87-4.44.87-6.85.98ZM15.92,24.02c.02-.31.1-.8.5-.84,1.03-.09,1.48,1.64,2.67,1.54.69-1.04,1.39-2.27,2.78-2.44.71-.93-.94-1.06-2.58,1.04-.33.42-.57.94-1.17.67-.75-.33-1.64-1.6-2.54-1.29-.72.24.14,1.02.35,1.32Z"/>
  <path class="cls-6" d="M9.8,18.76c-.02-3.34.56-5.9,3.05-8.42,4.86-4.91,12.74-5.22,17.7-.29,1.93,1.92,3.19,4.5,3.2,7.24v.33c3.52-.01,4.73,1.91,7.5,2.03,1.06.05,2.06-.28,2.89-.94.27-.22.61-.71.97-.37.36.35-.26.75-.51.93-1.05.75-1.79.97-3.03,1.15-1.25-.12-1.9-.12-3.04-.68-.23-.12-.56-.35-.83-.33-.17,0-.73-.2-.94-.25-1.05-.23-2.15-.22-3.2,0-1.24.25-3.4,1.38-4.62.49-1.44.11-1.77.36-3.32-.43-2.27-1.08-3.55-1.46-6.13-.55-2.46.87-3.48,1.83-6.38,1.77-1.72-.04-1.78-.39-3.04-.82-2.56-.89-6.72-.29-8.81,1.59-.3.27-.54.64-.86.88l-.04.03c-.81-.48-.03-1.08.46-1.47,2.64-2.06,5.79-2.44,8.99-1.88ZM11.21,19.41c.27-2.39.41-4.26,1.71-6.38,3-4.86,9.41-6.27,14.56-4.21.23.09.82.49,1.02.44-2.59-1.79-5.65-2.41-8.75-1.84-5.26.97-9.12,5.06-9.26,10.43-.02.93-.27,1.22.71,1.56ZM28.92,19.64c1.22.89,3.38-.24,4.62-.49,1.05-.21,2.16-.23,3.2,0,.22.05.77.26.94.25-2.48-1.97-6.19-.96-8.77.23Z"/>
  <path class="cls-5" d="M11.21,19.41c.27-2.39.41-4.26,1.71-6.38,3-4.86,9.41-6.27,14.56-4.21.23.09.82.49,1.02.44,2.64,1.6,4.59,5.32,4.56,8.36-.83.1-1.62.22-2.41.49-.98.33-1.86,1-2.93.98-1.09-.02-1.97-.62-2.94-1.04-5.37-2.35-7.93,2.98-13.58,1.36Z"/>
  <path class="cls-9" d="M19.09,10.05c.37.04-.04.27-.17.32-.3-.06.05-.26.17-.32Z"/>
  <path class="cls-9" d="M22.66,8.61c.24-.02.67-.1.64.25-.18-.03-.47-.06-.63-.15v-.1Z"/>
  <path class="cls-9" d="M14.78,12.94c.31.1-.13.42-.23.5-.3-.06.16-.43.23-.5Z"/>
  <path class="cls-9" d="M12.95,14.17c.26.16-.02.46-.14.64-.27-.08.05-.52.14-.64Z"/>
  <path class="cls-9" d="M12.95,15.89c.24.15.08.46,0,.68l-.1-.03c-.19-.18-.02-.46.1-.64Z"/>
  <path class="cls-2" d="M16.76,10.88c.05.02.06.03.09.07v.06c-.15.15-.33.24-.51.34l-.07-.04c-.1-.22.34-.37.49-.43Z"/>
  <path class="cls-1" d="M18.4,9.17c.07,0,.13.02.19.06v.04c-.09.15-.38.22-.54.28-.54.06.19-.32.35-.38Z"/>
  <path class="cls-2" d="M16.34,9.89c.09,0,.16,0,.24.05v.05c-.11.14-.31.26-.44.38-.42.15-.03-.35.21-.48Z"/>
  <path class="cls-9" d="M21.37,9.55c.15-.01.34-.02.43.12l-.02.05c-.09.06-.19.05-.3.05-.15.02-.35.08-.46-.06l.03-.05c.1-.07.2-.08.32-.11Z"/>
  <path class="cls-9" d="M14.41,11.82c.38.04-.23.48-.35.64h-.06s.02,0,.02,0l-.06-.02c-.14-.25.29-.51.46-.61Z"/>
  <path class="cls-9" d="M20.66,8.61c.09-.03.13,0,.2.06v.05c-.16.13-.6.12-.8.14-.1,0-.14,0-.2-.08.13-.21.59-.16.81-.16Z"/>
</svg>