<?xml version="1.0" encoding="UTF-8"?>
<svg id="_Ñëîé_1" data-name="Ñëîé 1" xmlns="http://www.w3.org/2000/svg" width="3630.72" height="602.09" viewBox="0 0 3630.72 602.09">
  <defs>
    <style>
      .cls-1 {
        fill: #fff;
      }

      .cls-2 {
        fill: #ffc928;
      }
    </style>
  </defs>
  <path class="cls-1" d="M698.51,430.37v117.35c-58.36,47.83-142.74,51.38-213.07,31.05-65.18-18.84-106.47-57.67-135.48-117.83-30.48-63.2-23.83-139.16,10.86-201.34,68.72-123.17,262.1-143.58,355.95-38.71l-91.11,90.96c-45.14-42.23-119.16-35.69-150.34,19.19-63.12,111.09,91.81,192.02,180.89,129.54l42.31-30.22Z"/>
  <path class="cls-2" d="M531.48.04v128.57c-153.8-3.64-273.35,147.08-231.03,295.92h-132.89c-8.05-53.94-5.73-108.7,9.2-161.22C221.05,107.58,368.8-2.37,531.48.04Z"/>
  <path class="cls-2" d="M133.34,424.53H5.55c-1.15,0-3.13-3.43-3.07-5.1-10.97-113.18,14.52-227.21,74.8-323.31,7.97-12.7,60.85-85.95,71.39-85.96l88.79,90.61c-83.64,84.87-121.97,205.5-104.12,323.75Z"/>
  <g>
    <path class="cls-1" d="M853.91,190.65v395.08h-95.38V190.65h95.38ZM818.35,190.65h84.1c33.86,0,62.08,5.46,84.66,16.37,22.58,10.92,39.69,26.06,51.36,45.43,11.66,19.38,17.5,41.86,17.5,67.45s-5.84,47.51-17.5,66.88c-11.67,19.38-28.78,34.52-51.36,45.43-22.58,10.92-50.8,16.37-84.66,16.37h-84.1v-73.94h77.32c12.79,0,23.79-1.98,33.02-5.93,9.22-3.95,16.27-9.78,21.17-17.5,4.89-7.71,7.34-17.02,7.34-27.94s-2.45-20.22-7.34-27.94c-4.89-7.71-11.95-13.63-21.17-17.78-9.22-4.14-20.23-6.21-33.02-6.21h-77.32v-80.71ZM956.07,406.81l123.6,178.91h-111.75l-110.62-178.91h98.77Z"/>
    <path class="cls-1" d="M1216.25,190.65v258.49c0,19.95,5.26,36.12,15.8,48.54,10.53,12.42,26.33,18.62,47.41,18.62s37.44-6.21,47.97-18.62c10.53-12.42,15.8-28.59,15.8-48.54V190.65h95.38v265.27c0,24.83-4.05,46.47-12.13,64.91-8.1,18.44-19.38,33.58-33.86,45.43-14.49,11.85-31.42,20.79-50.8,26.81-19.38,6.01-40.17,9.03-62.37,9.03s-42.89-3.02-62.08-9.03c-19.19-6.02-36.03-14.96-50.51-26.81-14.49-11.85-25.78-26.99-33.86-45.43-8.1-18.43-12.13-40.07-12.13-64.91V190.65h95.38Z"/>
    <path class="cls-1" d="M1616.4,190.65v395.08h-97.08V190.65h97.08Z"/>
    <path class="cls-1" d="M1770.19,484.13c9.97,10.54,20.88,18.62,32.74,24.27,11.85,5.64,24.36,8.47,37.53,8.47,13.92,0,25.4-3.47,34.43-10.44,9.03-6.96,13.55-16.46,13.55-28.5,0-10.16-2.64-18.34-7.9-24.55-5.27-6.21-13.74-12.13-25.4-17.78-11.67-5.64-27.09-12.04-46.28-19.19-9.41-3.39-20.23-8.09-32.45-14.11-12.23-6.01-23.8-13.83-34.71-23.42-10.92-9.59-19.95-21.25-27.09-34.99-7.15-13.73-10.72-30.38-10.72-49.95,0-23.33,6.11-43.46,18.34-60.39,12.22-16.93,28.78-29.82,49.67-38.66,20.88-8.84,44.11-13.26,69.7-13.26s49.19,4.33,68.57,12.98c19.38,8.66,35.46,19.57,48.26,32.73,12.79,13.18,22.58,26.53,29.35,40.07l-72.81,40.64c-5.64-9.4-12.13-17.58-19.47-24.55-7.34-6.96-15.43-12.42-24.27-16.37-8.85-3.95-18.34-5.93-28.5-5.93-13.55,0-23.9,2.92-31.04,8.75-7.15,5.84-10.72,13.08-10.72,21.73s3.47,16.93,10.44,23.7c6.96,6.77,16.93,12.98,29.91,18.63,12.98,5.64,28.69,11.67,47.13,18.06,13.92,5.27,26.9,11.38,38.94,18.34,12.04,6.97,22.66,15.34,31.89,25.12,9.22,9.79,16.46,21.08,21.73,33.86,5.27,12.8,7.9,27.47,7.9,44.02,0,19.95-4.05,37.73-12.13,53.34-8.1,15.62-19,28.7-32.73,39.23-13.74,10.54-29.35,18.54-46.85,23.99-17.5,5.45-35.47,8.18-53.9,8.18-25.59,0-49.39-4.61-71.4-13.83-22.01-9.22-41.11-21.73-57.29-37.53-16.18-15.8-28.78-33.11-37.81-51.92l66.6-47.97c7.9,14.3,16.83,26.72,26.81,37.25Z"/>
    <path class="cls-1" d="M2144.11,190.65v395.08h-91.43V190.65h91.43ZM2115.89,190.65h199.23v78.45h-199.23v-78.45ZM2115.89,339.65h187.94v76.76h-187.94v-76.76ZM2115.89,507.28h199.23v78.45h-199.23v-78.45Z"/>
    <path class="cls-2" d="M2430.82,476.8c14.29,25.59,33.49,45.72,57.57,60.39,24.07,14.67,50.98,22.01,80.71,22.01,18.81,0,35.93-2.06,51.36-6.21,15.42-4.14,29.44-10.34,42.05-18.62,12.6-8.27,23.79-18.06,33.58-29.35v41.77c-16.56,14.67-34.62,25.68-54.18,33.02-19.57,7.34-43.84,11.01-72.81,11.01-27.47,0-52.97-4.99-76.48-14.96-23.52-9.96-43.93-23.99-61.24-42.05-17.31-18.06-30.86-39.51-40.64-64.34-9.79-24.83-14.67-51.92-14.67-81.27s4.88-56.44,14.67-81.27c9.78-24.83,23.33-46.28,40.64-64.34,17.3-18.06,37.72-32.07,61.24-42.05,23.51-9.97,49.01-14.96,76.48-14.96,28.97,0,53.24,3.67,72.81,11.01,19.56,7.34,37.62,18.34,54.18,33.02v41.2c-9.79-11.29-21.08-20.97-33.86-29.07-12.8-8.09-26.91-14.2-42.33-18.34-15.43-4.14-32.37-6.21-50.8-6.21-29.73,0-56.63,7.25-80.71,21.73-24.08,14.49-43.27,34.53-57.57,60.11-14.3,25.59-21.45,55.31-21.45,89.17s7.14,63.03,21.45,88.61Z"/>
    <path class="cls-2" d="M2832.11,433.9l-3.39,6.77-59.26,145.05h-34.99l174.4-410.32,174.4,410.32h-34.99l-58.7-142.79-2.82-7.34-77.89-188.51-76.76,186.82ZM2818.56,423.74h182.3l10.16,29.35h-202.62l10.16-29.35Z"/>
    <path class="cls-2" d="M3161.99,516.87c9.22,13.54,20.6,24.37,34.15,32.45,13.55,8.09,29.72,12.13,48.54,12.13,25.58,0,45.62-7.05,60.11-21.17,14.48-14.11,21.73-32.07,21.73-53.9,0-19.19-4.33-34.61-12.98-46.28-8.66-11.66-19.85-21.17-33.58-28.5-13.74-7.34-28.13-13.83-43.18-19.47-11.29-4.14-23.05-9.12-35.27-14.96-12.23-5.83-23.62-12.98-34.15-21.45-10.54-8.47-19.1-18.71-25.68-30.76-6.59-12.04-9.88-26.53-9.88-43.46,0-18.81,4.51-35.46,13.54-49.95,9.03-14.48,21.63-25.77,37.82-33.86,16.17-8.09,34.43-12.13,54.75-12.13s39.23,3.95,54.46,11.85c15.24,7.9,27.94,17.88,38.1,29.91,10.16,12.05,17.87,24.46,23.14,37.25l-27.09,15.24c-4.15-10.16-10.07-20.12-17.78-29.91-7.72-9.78-17.41-17.96-29.07-24.55-11.67-6.58-26.16-9.88-43.46-9.88-22.96,0-40.64,5.93-53.05,17.78-12.42,11.85-18.62,26.62-18.62,44.31,0,14.67,3.57,27.29,10.72,37.81,7.14,10.54,17.87,20.04,32.17,28.5,14.3,8.47,31.98,16.46,53.05,23.99,10.91,4.15,22.2,9.22,33.86,15.24,11.66,6.02,22.29,13.55,31.89,22.58s17.4,19.85,23.42,32.45c6.01,12.61,9.03,27.57,9.03,44.87,0,16.18-2.92,30.86-8.75,44.02-5.84,13.17-13.92,24.55-24.27,34.15-10.35,9.59-22.49,16.93-36.4,22.01-13.92,5.08-28.98,7.62-45.15,7.62-22.96,0-43.09-4.71-60.39-14.11-17.31-9.4-31.8-22.01-43.46-37.81-11.67-15.8-20.7-32.92-27.09-51.36l25.4-15.8c6.39,16.56,14.2,31.61,23.42,45.15Z"/>
    <path class="cls-2" d="M3391.98,190.65h238.74v29.35h-103.85v365.73h-31.04V220h-103.85v-29.35Z"/>
  </g>
</svg>