<?xml version="1.0" encoding="UTF-8"?>
<svg id="_Ñëîé_1" data-name="Ñëîé 1" xmlns="http://www.w3.org/2000/svg" width="3638.61" height="783.27" viewBox="0 0 3638.61 783.27">
  <defs>
    <style>
      .cls-1, .cls-2, .cls-3 {
        fill: #ffc928;
      }

      .cls-1, .cls-3 {
        font-family: JostRoman-Light, Jost;
        font-variation-settings: 'wght' 300;
        font-weight: 300;
      }

      .cls-4 {
        font-family: JostRoman-Bold, Jost;
        font-variation-settings: 'wght' 700;
        font-weight: 700;
      }

      .cls-4, .cls-5 {
        fill: #fff;
      }

      .cls-6 {
        font-size: 564.4px;
      }

      .cls-3 {
        letter-spacing: -.01em;
      }
    </style>
  </defs>
  <path class="cls-5" d="M698.51,430.37v117.35c-58.36,47.83-142.74,51.38-213.07,31.05-65.18-18.84-106.47-57.67-135.48-117.83-30.48-63.2-23.83-139.16,10.86-201.34,68.72-123.17,262.1-143.58,355.95-38.71l-91.11,90.96c-45.14-42.23-119.16-35.69-150.34,19.19-63.12,111.09,91.81,192.02,180.89,129.54l42.31-30.22Z"/>
  <path class="cls-2" d="M531.48.04v128.57c-153.8-3.64-273.35,147.08-231.03,295.92h-132.89c-8.05-53.94-5.73-108.7,9.2-161.22C221.05,107.58,368.8-2.37,531.48.04Z"/>
  <path class="cls-2" d="M133.34,424.53H5.55c-1.15,0-3.13-3.43-3.07-5.1-10.97-113.18,14.52-227.21,74.8-323.31,7.97-12.7,60.85-85.95,71.39-85.96l88.79,90.61c-83.64,84.87-121.97,205.5-104.12,323.75Z"/>
  <text class="cls-6" transform="translate(716.76 585.73)"><tspan class="cls-4" x="0" y="0">RUISE</tspan><tspan class="cls-3" x="1634.48" y="0">C</tspan><tspan class="cls-1" x="2012.63" y="0">AST</tspan></text>
</svg>