<?xml version="1.0" encoding="UTF-8"?>
<svg id="Layer_1" data-name="Layer 1" xmlns="http://www.w3.org/2000/svg" width="50.62" height="38.55" viewBox="0 0 50.62 38.55">
  <defs>
    <style>
      .cls-1 {
        fill: #fff;
      }

      .cls-2 {
        fill: #ebbf02;
      }

      .cls-3 {
        opacity: .2;
      }

      .cls-4 {
        fill: #ebebeb;
      }

      .cls-5 {
        fill: #fdcd02;
      }
    </style>
  </defs>
  <g class="cls-3">
    <path d="M43.27,23.79c-.35-6.47-5.71-11.62-12.27-11.62-1.64,0-3.2.32-4.63.91-.72.29-1.41.65-2.05,1.07-1.35-1.87-3.56-3.09-6.04-3.09h0c-4.12,0-7.46,3.34-7.46,7.46,0,.45.04.89.12,1.32-1.15,1.52-1.83,3.42-1.83,5.48,0,.35.02.7.06,1.04l-.03.03c-.29-.04-.6-.07-.9-.07-3.38,0-6.12,2.74-6.12,6.12s2.74,6.12,6.12,6.12h35c4.08,0,7.38-3.31,7.38-7.38s-3.29-7.36-7.35-7.38Z"/>
    <path d="M18.27,9.93c.49,0,.9-.4.9-.9V3.26c0-.49-.4-.9-.9-.9s-.9.4-.9.9v5.78c0,.49.4.9.9.9Z"/>
    <path d="M10.94,12.45c.17.17.4.26.63.26s.46-.09.63-.26c.35-.35.35-.92,0-1.27l-4.09-4.09c-.35-.35-.92-.35-1.27,0-.35.35-.35.92,0,1.27l4.09,4.09Z"/>
    <path d="M3.01,19.41h5.78c.49,0,.9-.4.9-.9s-.4-.9-.9-.9H3.01c-.49,0-.9.4-.9.9s.4.9.9.9Z"/>
    <path d="M24.98,12.71c.23,0,.46-.09.63-.26l4.09-4.09c.35-.35.35-.92,0-1.27s-.92-.35-1.27,0l-4.09,4.09c-.35.35-.35.92,0,1.27.17.17.4.26.63.26Z"/>
  </g>
  <g>
    <path class="cls-1" d="M19.3,14.41c-.99-.37-2.07-.57-3.19-.57-5.04,0-9.12,4.08-9.12,9.12,0,.36.02.72.07,1.08-.31-.05-.62-.07-.94-.07-3.38,0-6.12,2.74-6.12,6.12s2.74,6.12,6.12,6.12h18.26l-.12-25.48c-1.95.8-3.66,2.08-4.96,3.69Z"/>
    <path class="cls-4" d="M41.15,21.43c-.35-6.47-5.71-11.62-12.27-11.62-1.64,0-3.2.32-4.63.91l.12,25.48h16.74c4.08,0,7.38-3.31,7.38-7.38s-3.29-7.36-7.35-7.38Z"/>
    <g>
      <path class="cls-5" d="M8.7,16.16c0,4.12,3.34,7.46,7.46,7.46v-14.91c-4.12,0-7.46,3.34-7.46,7.46Z"/>
      <path class="cls-5" d="M15.26.9v5.78c0,.49.4.9.9.9V0c-.49,0-.9.4-.9.9Z"/>
      <path class="cls-5" d="M15.26,25.64v5.78c0,.49.4.9.9.9v-7.57c-.49,0-.9.4-.9.9Z"/>
      <path class="cls-5" d="M8.82,10.08c.17.17.4.26.63.26s.46-.09.63-.26c.35-.35.35-.92,0-1.27l-4.09-4.09c-.35-.35-.92-.35-1.27,0-.35.35-.35.92,0,1.27l4.09,4.09Z"/>
      <path class="cls-5" d="M7.57,16.16c0-.49-.4-.9-.9-.9H.9c-.49,0-.9.4-.9.9s.4.9.9.9h5.78c.49,0,.9-.4.9-.9Z"/>
      <path class="cls-5" d="M8.82,22.23l-4.09,4.09c-.35.35-.35.92,0,1.27.17.17.4.26.63.26s.46-.09.63-.26l4.09-4.09c.35-.35.35-.92,0-1.27-.35-.35-.92-.35-1.27,0Z"/>
      <g>
        <path class="cls-2" d="M23.61,16.16c0-4.12-3.34-7.46-7.46-7.46h0v14.91h0c4.12,0,7.46-3.34,7.46-7.46Z"/>
        <path class="cls-2" d="M17.05,6.67V.9c0-.49-.4-.9-.9-.9v7.57c.49,0,.9-.4.9-.9Z"/>
        <path class="cls-2" d="M17.05,31.42v-5.78c0-.49-.4-.9-.9-.9v7.57c.49,0,.9-.4.9-.9Z"/>
        <path class="cls-2" d="M23.49,22.23c-.35-.35-.92-.35-1.27,0-.35.35-.35.92,0,1.27l4.09,4.09c.17.17.4.26.63.26s.46-.09.63-.26c.35-.35.35-.92,0-1.27l-4.09-4.09Z"/>
        <path class="cls-2" d="M31.42,15.26h-5.78c-.49,0-.9.4-.9.9s.4.9.9.9h5.78c.49,0,.9-.4.9-.9s-.4-.9-.9-.9Z"/>
        <path class="cls-2" d="M22.86,10.35c.23,0,.46-.09.63-.26l4.09-4.09c.35-.35.35-.92,0-1.27-.35-.35-.92-.35-1.27,0l-4.09,4.09c-.35.35-.35.92,0,1.27.17.17.4.26.63.26Z"/>
      </g>
    </g>
  </g>
</svg>