<?xml version="1.0" encoding="UTF-8"?>
<svg id="Layer_1" xmlns="http://www.w3.org/2000/svg" version="1.1" viewBox="0 0 50.62 38.55">
  <!-- Generator: Adobe Illustrator 29.8.3, SVG Export Plug-In . SVG Version: 2.1.1 Build 3)  -->
  <defs>
    <style>
      .st0 {
        fill: #88abb9;
      }

      .st1 {
        fill: #f6df77;
      }

      .st2 {
        fill: #535252;
      }

      .st3 {
        fill: #bfd9e3;
      }

      .st4 {
        fill: #fefefe;
      }
    </style>
  </defs>
  <path class="st2" d="M24.3,3.53c.98.11.38,1.3-.19,1.57-1.01-.06-.3-1.31.19-1.57Z"/>
  <path class="st2" d="M14.76,1.03c.16.02.35.06.44.2.1.16.44,1.68-.18,1.92-.99-.06-.74-1.9-.26-2.11Z"/>
  <path class="st2" d="M6.23,15.64c1.36.24-.43,1.23-1.13,1.37-.32-.04-.58-.36-.39-.68.22-.36,1.13-.58,1.52-.69Z"/>
  <path class="st2" d="M6.23,6.89c.46-.04,2.27.83,1.37,1.51-.47.12-2.47-.94-1.37-1.51Z"/>
  <path class="st3" d="M9.05,19.01c-3.17-5.07-1.01-11.64,4.3-14.16,5.01-2.38,10.83-.13,13.17,4.83,3.27.69,4.6,1.5,6.32,4.62,2.55-2.28,6.59-1.68,8.7.87,1.23,1.48,1.48,3.06,1.31,4.91,2.24.01,3.7-.02,5.52,1.69,2.37,2.23,2.53,6.16.26,8.53-2.13,2.22-6.04,1.77-9.04,1.82-.5,0-.66-.11-.65-.63-1.65.03-3.32.02-4.96.13.11.98-1.47.65-2.07.68-1.99.1-3.99.14-5.98.19l-14.95.39c-3.54.08-7.62.7-9.59-3.17-2.26-4.44,1.71-9.68,6.49-8.07.19-1.08.49-1.78,1.18-2.63ZM9.05,19.01c-.7.85-.99,1.56-1.19,2.63-4.78-1.61-8.75,3.63-6.49,8.07,1.97,3.88,6.05,3.25,9.59,3.17l14.95-.39c2-.05,3.99-.09,5.98-.19.6-.03,2.18.3,2.07-.68-.5-.5-2.16-.17-2.9-.15l-20.68.55c-2.4.08-5.35.34-7.18-1.36-3.77-3.49-.27-9.51,3.85-8.31.42.12,1.39.75,1.64.11.1-.25.08-.96.19-1.37.63-2.28,3.49-3.68,5.5-2.13.26.2.6.75.91.79.71.1.52-.67.08-1.1-.87-.86-1.84-1.23-3.06-1.22.04-2.45,1.26-4.37,3.76-4.87.23.18.62.21.9.31.72.28,1.98,1.16,2.29,1.92.61,1.38,1.4-1.12,1.64-1.47,1.98-2.81,5.68-3.71,8.54-1.68,2.1,1.06,3.34,4.1,2.81,6.37-.09.38-.24.76-.27,1.15,1.57,1.24,1.22-3.26,1.09-3.89v-.04c.91-.93,2.34-1.5,3.63-1.5,5.25,0,7.4,7.02,2.73,9.61-.3.17-1.5.59-.86,1.1.3.24.77-.07,1.04-.22,1.32-.74,2.38-1.82,2.91-3.24,1.49.11,3.67-.32,4.78,1.1,2.88,1.51,2.75,7.63-1.38,8.86-1.53.46-6.46,0-7.02.56,0,.51.15.63.65.63,3-.05,6.91.4,9.04-1.82,2.27-2.37,2.1-6.3-.26-8.53-1.81-1.71-3.27-1.68-5.52-1.69.18-1.86-.08-3.43-1.31-4.91-2.11-2.55-6.15-3.15-8.7-.87-1.72-3.12-3.05-3.93-6.32-4.62-2.34-4.96-8.16-7.21-13.17-4.83-5.32,2.53-7.47,9.09-4.3,14.16Z"/>
  <path class="st2" d="M14.32,29.62c-1.19-1.36,2.72-.84,2.74-.83.15.11.16.28.18.45-.33.62-2.24.4-2.92.38Z"/>
  <path class="st4" d="M15.38,13.81c.17-.01.52-.03.55.21.05.36-.9.66-1.17.89-.67.57-.69,1.25-1.14,1.79-1.13.55-.13-2.4,1.76-2.88Z"/>
  <path class="st2" d="M10.38,28.86c.34-.01.98-.11,1.26.11,1.11.86-1.78.81-1.94.82-.41,0-1.45.25-1.52-.37-.08-.74,1.8-.52,2.2-.55Z"/>
  <path class="st4" d="M24.52,11.65c.69-.05,1.29.06,1.91.35-1.37.07-2.61.45-3.65,1.36-.23.2-.43.59-.7.7-.42.18-.49-.38-.27-.69.59-.84,1.7-1.56,2.72-1.73Z"/>
  <path class="st4" d="M6.52,22.95c.57,0,.96.51-.22.66-1.14.15-2.29.85-2.8,1.9-.16.33-.2.72-.44,1.01-1.23.38.05-1.78.39-2.16.75-.85,1.94-1.34,3.06-1.41Z"/>
  <path class="st4" d="M44.07,22.56c2.66-.24,4.13,2.28,2.9,4.52v-.45c0-2.33-1.63-3.65-3.88-3.68.32-.21.6-.34.98-.39Z"/>
  <path class="st4" d="M36.35,15.23c2.26-.25,4.99,2.22,4.22,4.53-.19-.33-.3-.72-.44-1.07-.75-2.48-3.26-2.95-5.55-2.92.58-.27,1.14-.47,1.78-.54Z"/>
  <path class="st0" d="M29.47,11.65c2.1,1.06,3.34,4.1,2.81,6.37-.09.38-.24.76-.27,1.15-.43-.17-.86-.34-1.29-.48.76-1.82.59-3.96-.37-5.68-.26-.47-.68-.86-.88-1.36Z"/>
  <path class="st0" d="M47.33,22.08c2.88,1.51,2.75,7.63-1.38,8.86-1.53.46-6.46,0-7.02.56-1.65.03-3.32.02-4.96.13-.5-.5-2.16-.17-2.9-.15l-20.68.55c-2.4.08-5.35.34-7.18-1.36.86.03,1.59.36,2.51.18.74-.15,1.08-.73,1.88-.79,1.69-.14,3.45-.19,5.16-.32.5-.04,1.06-.03,1.55-.12.68.02,2.59.24,2.92-.38l.03.05c2,0,3-.38,4.98.27.24.08.48.2.73.23,4.83.02,9.57-1.07,14.42-.85l3.06.15c2.03.1,6.13.63,7.01-1.88.15-.42.13-.97.66-1.05h.04c.3-2.35-.32-2.4-.85-4.08Z"/>
  <path class="st3" d="M26.29,30.57c3.58-.55,7.86-.92,11.42-.73.66.04,1.34.04,1.98.18-.22.11-.82.01-1.1.04-3.43.32-8.07.94-11.46.6-.26-.03-.61.04-.84-.09Z"/>
  <path class="st2" d="M48.18,26.15c.72.48.03,1.67-.35,2.17-1.42,1.89-4.12,1.8-6.25,1.73-.5-.02-1.45-.18-1.89-.03-.65-.13-1.32-.14-1.98-.18-3.56-.19-7.84.18-11.42.73-1.11-.14-4.85.43-5.42-.07-.13-.11-.14-.47-.01-.59.25-.23,1.74-.12,2.13-.12,4.83.02,9.57-1.07,14.42-.85l3.06.15c2.03.1,6.13.63,7.01-1.88.15-.42.13-.97.66-1.05h.04Z"/>
  <path class="st2" d="M9.05,19.01c-3.17-5.07-1.01-11.64,4.3-14.16,5.01-2.38,10.83-.13,13.17,4.83,3.27.69,4.6,1.5,6.32,4.62,2.55-2.28,6.59-1.68,8.7.87,1.23,1.48,1.48,3.06,1.31,4.91,2.24.01,3.7-.02,5.52,1.69,2.37,2.23,2.53,6.16.26,8.53-2.13,2.22-6.04,1.77-9.04,1.82-.5,0-.66-.11-.65-.63.56-.55,5.49-.1,7.02-.56,4.13-1.23,4.26-7.35,1.38-8.86-1.11-1.42-3.29-.99-4.78-1.1-.53,1.43-1.59,2.5-2.91,3.24-.27.15-.75.46-1.04.22-.64-.51.56-.93.86-1.1,4.67-2.59,2.53-9.62-2.73-9.61-1.3,0-2.73.57-3.64,1.5v.04c.15.63.49,5.13-1.08,3.89.04-.39.19-.77.27-1.15.52-2.27-.71-5.31-2.81-6.37-2.86-2.03-6.56-1.13-8.54,1.68-.25.35-1.03,2.84-1.64,1.47-.31-.76-1.57-1.64-2.29-1.92-.28-.11-.67-.14-.9-.31-2.51.51-3.73,2.42-3.76,4.87,1.22-.01,2.19.36,3.06,1.22.44.43.63,1.2-.08,1.1-.31-.04-.65-.59-.91-.79-2.01-1.56-4.88-.15-5.5,2.13-.11.41-.09,1.12-.19,1.37-.25.65-1.22.02-1.64-.11-4.12-1.2-7.62,4.82-3.85,8.31,1.83,1.71,4.78,1.44,7.18,1.36l20.68-.55c.74-.03,2.4-.35,2.9.15.11.98-1.47.65-2.07.68-1.99.1-3.99.14-5.98.19l-14.95.39c-3.54.08-7.62.7-9.59-3.17-2.26-4.44,1.71-9.68,6.49-8.07.19-1.08.49-1.78,1.18-2.64ZM9.7,18.32c.23-.13.45-.26.68-.37-.4-.67-.6-1.45-.74-2.21-1.17-6.29,5.11-11.86,11.11-10.15.23.07.66.29.9.19C13.71,1.57,5.05,10.87,9.7,18.32Z"/>
  <path class="st0" d="M16.09,12.56c1.37-.25,2.52.19,3.64.95-.17.42-.34.84-.45,1.28-.31-.76-1.57-1.64-2.29-1.92-.28-.11-.67-.14-.9-.31Z"/>
  <path class="st1" d="M10.38,17.95c-.4-.67-.6-1.45-.74-2.21-1.17-6.29,5.11-11.86,11.11-10.15.23.07.66.29.9.19,1.61.74,3.19,2.3,3.92,3.9-1.91.28-4.42,1.26-5.29,3.13l-.03.06s-.01.02-.02.03c-3.47-3.29-9.41.13-8.78,4.62-.38.11-.73.24-1.08.42Z"/>
</svg>