<?xml version="1.0" encoding="UTF-8"?>
<svg id="Layer_1" data-name="Layer 1" xmlns="http://www.w3.org/2000/svg" width="43.48" height="36.55" xmlns:xlink="http://www.w3.org/1999/xlink" viewBox="0 0 43.48 36.55">
  <defs>
    <style>
      .cls-1 {
        fill: #111;
      }

      .cls-2 {
        fill: url(#linear-gradient-2);
      }

      .cls-3 {
        fill: #3a3f40;
      }

      .cls-4 {
        fill: #ebe5c7;
      }

      .cls-5 {
        fill: #3d8b94;
      }

      .cls-6 {
        fill: #1a5561;
      }

      .cls-7 {
        fill: url(#linear-gradient-4);
      }

      .cls-8 {
        fill: #a2e7ed;
      }

      .cls-9 {
        fill: url(#linear-gradient-3);
      }

      .cls-10 {
        fill: url(#linear-gradient-5);
      }

      .cls-11 {
        fill: #fcb843;
      }

      .cls-12 {
        fill: #79c8ce;
      }

      .cls-13 {
        fill: #f0dfa4;
      }

      .cls-14 {
        fill: #fefefe;
      }

      .cls-15 {
        fill: url(#linear-gradient);
      }

      .cls-16 {
        fill: #fbc663;
      }
    </style>
    <linearGradient id="linear-gradient" x1="-1674.45" y1="464.42" x2="-1674.4" y2="464.12" gradientTransform="translate(16047.97 4478.9) scale(9.57 -9.57)" gradientUnits="userSpaceOnUse">
      <stop offset="0" stop-color="#30bcbb"/>
      <stop offset="1" stop-color="#67cfdd"/>
    </linearGradient>
    <linearGradient id="linear-gradient-2" x1="-1674.05" y1="466.06" x2="-1673.91" y2="466.06" gradientTransform="translate(16047.97 4478.9) scale(9.57 -9.57)" gradientUnits="userSpaceOnUse">
      <stop offset="0" stop-color="#53a6aa"/>
      <stop offset="1" stop-color="#72c0ca"/>
    </linearGradient>
    <linearGradient id="linear-gradient-3" x1="-1673.95" y1="466.22" x2="-1674.03" y2="466.23" gradientTransform="translate(16047.97 4478.9) scale(9.57 -9.57)" gradientUnits="userSpaceOnUse">
      <stop offset="0" stop-color="#090000"/>
      <stop offset="1" stop-color="#031d24"/>
    </linearGradient>
    <linearGradient id="linear-gradient-4" x1="-1673.72" y1="465.95" x2="-1673.84" y2="465.97" gradientTransform="translate(16047.97 4478.9) scale(9.57 -9.57)" gradientUnits="userSpaceOnUse">
      <stop offset="0" stop-color="#062426"/>
      <stop offset="1" stop-color="#3b3d3e"/>
    </linearGradient>
    <linearGradient id="linear-gradient-5" x1="-1675.49" y1="465.41" x2="-1675.32" y2="465.39" gradientTransform="translate(16047.97 4478.9) scale(9.57 -9.57)" gradientUnits="userSpaceOnUse">
      <stop offset="0" stop-color="#4ba098"/>
      <stop offset="1" stop-color="#66bdce"/>
    </linearGradient>
  </defs>
  <path class="cls-3" d="M3.31,15.98c.29-.04.66-.02.57.36-.22.1-.55.02-.75.15-.43.27-.35.95-.92.3-.22-.06-.6.02-.75-.18-.1-.55.83-.21,1.05-.11.22-.28.45-.44.8-.52Z"/>
  <path class="cls-3" d="M38.15,10.18c.45-.02.67.1.92.49.9-.86,1.61.48.91.35-.96-.6-.59.83-1.27-.15-.19-.27-.47-.17-.74-.22-.27-.21-.04-.39.18-.47Z"/>
  <path class="cls-3" d="M4.6,31.51c.38-.05,1.74-.28,1.86.24-.19.38-1.01.07-1.37.13-.42.07-1.14.46-1.48.4-.14-.02-.21-.12-.13-.25.11-.19.91-.45,1.13-.51Z"/>
  <path class="cls-3" d="M41.27,20.42c.43-.07.67.04.98.36.86-1.09,1.92.82.64.17-.28-.07-.34.2-.53.34-.25.06-.6-.39-.87-.49h-.04c-.14.02-.48.22-.6.17-.44-.2.24-.49.41-.54Z"/>
  <path class="cls-8" d="M28.35,34.08c.97-.59,2.35-.29,3.44-.33-.21.21-.41.35-.26.66-.78.03-2.22-.3-3.18-.33Z"/>
  <path class="cls-3" d="M14.04,35.26c.9-.49,1.91-.24,2.88-.2.11.06.24.12.29.25-.13.32-.64.16-.93.13-.68-.08-1.32-.1-1.98.15-.2.08-.8.33-.41.56l.05.33c-.51.35-1.15-.73.1-1.23Z"/>
  <path class="cls-12" d="M13.89,36.16c.39-.02.75-.15,1.14-.19.77-.08,3.44-.19,4.25-.04l.02.03c-.17.17-2.69.38-3.23.44-.72.09-1.42.05-2.13.08l-.05-.33Z"/>
  <path class="cls-3" d="M9.34,33.12c1-.16,2,.3,2.65.15.45.79-1.27.29-1.52.25-1.55-.23-2,.81-3,.75-.24-.01-.35-.16-.31-.4.11-.14.45-.06.62-.08.35-.05.97-.56,1.56-.68Z"/>
  <path class="cls-12" d="M36.47,33.12c.31.17.48.24.62.57-.12.42-.2.61-.67.57-.89-.08-1.77-.41-2.67-.51-.19-.17-.36-.2-.28-.49.48.03,2.26.06,2.64-.09.14,0,.24.02.36-.06Z"/>
  <path class="cls-12" d="M6.86,32.14c.89.21,1.94.12,2.61.86v.03s-.08.02-.13.02c-1.24-.22-2.56-.22-3.82-.18-.18,0-1.86.35-1.31-.35.23-.29,2.2-.36,2.65-.38Z"/>
  <path class="cls-12" d="M12.73,33.75l.1.12c.2.24.17.45-.07.63l-.02.02c-.89-.08-2.47.01-3.32.14-.4.06-1.22.3-1.56.28-.43-.03-.41-.42,0-.5.86-.15,1.66-.51,2.55-.62.81-.1,1.49.07,2.33-.07Z"/>
  <path class="cls-15" d="M16.92,35.06c2.13-.33,5.48-.05,7.57.25.36.05,1.19.33,1.5.09.59.25,2.49.85,3.03.31.17-.07.22-.13.29-.31.32.28.12.66-.07.96-.85.33-2.58-.31-3.48-.46-2.33-.39-4.66-.59-7.02-.58-.4,0-1.2-.1-1.52-.05v.05c-.05-.13-.18-.19-.29-.25Z"/>
  <path class="cls-12" d="M28.35,34.08c.96.04,2.4.36,3.18.33.48.14,3.24.98,2.98,1.66-.18.48-2.25-.32-2.61-.42-.5-.13-3.39-.78-3.88-.72-.18-.04-.39-.17-.56-.24,0-.21,0-.41,0-.62.29,0,.59.02.88,0Z"/>
  <path class="cls-12" d="M33.01,32.55c-.19-.04-1.11-.05-.55-.68.36-.41,4.01-.07,4.75-.12,1.22.13,3.6.36,4.75.71.73.23.65,1.04-.12.99-1.93-.14-3.42-.53-5.52-.47.05.05.1.09.15.15-.12.07-.22.07-.36.06-.37.16-2.16.12-2.64.09-.07-.13-.16-.22-.28-.3-.24-.08-.29-.19-.19-.42ZM33.01,32.55c-.1.23-.05.34.19.42.12.08.21.17.28.3.48.03,2.26.06,2.64-.09.14,0,.24.02.36-.06-.04-.05-.1-.1-.15-.15-1.12-.94-2.08-.74-3.28-.43h-.04Z"/>
  <path class="cls-3" d="M33.01,32.55h.04c1.2-.32,2.16-.52,3.28.42.05.05.1.09.15.15-.12.07-.22.07-.36.06-.37.16-2.16.12-2.64.09-.07-.13-.16-.22-.28-.3-.24-.08-.29-.19-.19-.42ZM33.19,32.97c.12.08.21.17.28.3.48.03,2.26.06,2.64-.09-.91-.09-1.39-.95-2.91-.2Z"/>
  <path class="cls-16" d="M6.86,22.98c.61-.32,2.72-.84,2.62.46,0,1.3.15,2.74.12,3.99,0,.21-.08.23-.26.3l-.02.04.02.04c-.44.22-1.62.2-2.24.37-.13-.71-.05-1.81-.09-2.57-.04-.87-.23-1.77-.15-2.63Z"/>
  <path class="cls-3" d="M8.21,23.58c.48.06.29,1.27.3,1.75,0,.22.09.7-.07.87-.64,0-.36-2.38-.23-2.62Z"/>
  <path class="cls-3" d="M9.34,27.73c-.3-.32-.35-3.95-.23-4.4.12-.13.27.02.37.11,0,1.3.15,2.74.12,3.99,0,.21-.08.23-.26.3Z"/>
  <path class="cls-3" d="M17.4,1.02c1.65-1.54,3.99-.85,4.05,1.46.39-.02.34-.04.63.16.27-.03,1.05-.12.73.41-.2.11-5.65.63-6.25.71-.75.09-2.62.61-3.23.06-.8-.71.61-1.34,1.38-1.34-.14-1.47,1.53-1.86,2.7-1.46ZM18.48.87c-.2.08-.41.15-.58.28-.74.58-.02.39-1.05.17-.57-.12-1.37.06-1.62.63-.28.64.31.99-.41.99-.97,0-1.99.55-.53.78.19-.51.64-.54,1.08-.76,1.28-.64,1.45-.99,3.19-.86-.06-.42-.13-.81-.06-1.23Z"/>
  <path class="cls-11" d="M21.46,2.49c.39-.02.34-.04.63.16-.18.03-.49.14-.64-.03v-.13Z"/>
  <path class="cls-16" d="M18.48.87c1.56-.65,2.7.35,2.43,2.02-1.23-.05-4.93.47-6.09.7-.18.04-.36.1-.54.12.19-.51.64-.54,1.08-.76,1.28-.64,1.45-.99,3.19-.86-.06-.42-.13-.81-.06-1.23Z"/>
  <path class="cls-3" d="M34.77,0c1.07-.08,1.89.61,2.12,1.66.93-.55,1.41-.38,1.74.65,1.02-.52,1.77-.31,2.05.84,1.2-.01.93.65.78,1.48.09,0,1.7-.12,1.21.37-.14.14-2.66.12-3.09.12-1.97-.03-6.87.71-8,.13-.87-.44-.33-1.33.53-1.54-.24-.86-.08-1.45.9-1.4,0-1.12.56-2.17,1.77-2.31ZM40.4,4.69c-.94-.73-.55-1.32-1.02-2.2-.33.09-.59.26-.9.4-.43-.16-.2-1.03-.71-1.07-.49.07-.67.3-.95.67-.32-.13-.35-1.18-1.05-1.81-.97-.69-2.19.14-2.31,1.23-.03.27.11.88-.12,1.05-.23.04-.66-.34-.87-.11-.23.26.33.88.25,1.18-.21.22-1.11.09-1.14.52-.05.66,2.78.48,3.24.45,1.9-.11,3.65-.4,5.59-.32Z"/>
  <path class="cls-16" d="M39.37,2.49c1.12-.15.71,1.16,1.16,1.26.19-.03.35-.28.54-.13.34.26-.18.82.16,1.02-.04.04-.76.05-.84.05-.94-.73-.55-1.32-1.02-2.2Z"/>
  <path class="cls-16" d="M37.76,1.82c.51.04.29.91.71,1.07,0,.17-.14.71-.37.7-.41-.35-.19-1.29-.35-1.77Z"/>
  <path class="cls-16" d="M35.76.68c.7.63.72,1.67,1.05,1.81-.52,1.65-1.7-.73-1.05-1.81Z"/>
  <path class="cls-3" d="M7.4,5.19c1.07.03,1.41.64,1.73,1.6.66-.69,1.81-1.21,1.82.2,1.15-.04,1.47.38,1.51,1.49,1.4-.09.68.96,1.42,1.47.22.01,1.55-.14,1.01.46-.14.05-3.87.06-4.33,0-.62.15-1.31.15-1.94.22-.9.09-5,.7-5.62.02-.51-.55.02-1.37.75-1.27-.09-1.28.29-3.79,2.15-2.74.26-.78.62-1.3,1.49-1.47ZM6.24,7.17c-.14.22-.29.1-.48,0-1.2-1.14-1.97,1.24-1.47,2.2.45.89-.77-.01-.97.64-.23.7.94.53,1.32.52,1.63-.03,3.24-.27,4.86-.41.85-.07,1.7-.07,2.54-.16-.07-.04-.14-.06-.22-.09-.79-.3.23-1.95-.87-2.35-.08.07-.14.14-.19.24-.5.06-.35-.31-.19-.59,0-.23.01-.44-.15-.62-1.07-.01-.84,1.08-1.37,1.21-.37-.23-.3-1.03-.57-1.48-.1-.2-.21-.36-.39-.49-1.06-.52-1.75.39-1.86,1.39ZM12.83,8.95c-.04.36-.08.73.2,1.01.48-.01-.13-.95-.2-1.01Z"/>
  <path class="cls-16" d="M10.95,7.52c.67-.25,1.06.03,1.06.75,0,1.16-.18.53.82.68-.04.36-.08.73.2,1.01-.31.01-.68.06-.99,0-.07-.04-.14-.06-.22-.09-.79-.3.23-1.95-.87-2.35Z"/>
  <path class="cls-13" d="M8.1,5.78c.19.13.29.29.39.49l-.04.08c-.13,0-.18-.03-.24.1-.05-.22-.11-.45-.11-.67Z"/>
  <path class="cls-13" d="M5.76,7.17c.18.1.34.22.48,0,.2.02.33.21.44.35-.78.64-1.51-.14-.92-.35Z"/>
  <path class="cls-16" d="M10.43,6.55c.16.18.14.39.15.62-.16.28-.31.65.19.59-.91,1.43-.65-.53-.34-1.21Z"/>
  <path class="cls-4" d="M8.49,6.28c.27.45.2,1.25.57,1.48-1.06.1-.85-.37-.85-1.3.06-.13.11-.09.24-.1l.04-.08Z"/>
  <path class="cls-11" d="M20.15,28.34c2.47-.04,4.96.09,7.43.27,2.27.16,4.28.35,6.56.7,1.43.22,2.86.43,4.27.75.48.11,4.01,1.06,4.22,1.3.44.51-.85.36-.89.39.15.05.37.11.41.3.08.45-.83.02-.99-.03-1.31-.36-2.63-.6-3.94-.9-.85-.11-1.69-.29-2.54-.43-8.65-1.42-18.59-1.84-27.27-.57-.49.07-1.01.12-1.48.25-.29.04-1.59.24-1.77.35v.05s-.05.06-.05.06c.05,0,.14-.03.18,0-.28.1-.72.13-.94.31l-.02.09v.06c-.31-.04-.87.06-1.1-.16-.18.08-1.94.54-2.05.51-.14-.04-.21-.24-.11-.35.14-.15.55-.13.75-.15-.19-.2-.5-.35-.24-.65.28-.33,4.21-.99,4.75-1.08,2.97-.48,6.04-.75,9.05-.93.12.03.23.03.35,0h4.88c.13,0,.21,0,.33-.06.07-.03.16-.05.23-.07ZM.8,31.12c-.2.02-.61,0-.75.15-.1.11-.03.32.11.35.11.03,1.87-.43,2.05-.51.22.23.79.12,1.1.16v-.06l.02-.09c.22-.18.67-.21.94-.31-.04-.03-.13,0-.18,0l.06-.06v-.05c.17-.11,1.48-.31,1.76-.35.48-.12,1-.17,1.48-.25,8.68-1.27,18.63-.85,27.27.57.84.14,1.69.32,2.54.43,1.32.3,2.64.53,3.94.9.16.04,1.07.48.99.03-.03-.18-.25-.25-.41-.3-1.9-.48-3.59-.88-5.52-1.22-10.98-1.93-22.52-2.38-33.46.05-.64.14-1.39.24-1.96.54Z"/>
  <path class="cls-3" d="M.8,31.12c.58-.31,1.33-.4,1.96-.54,10.94-2.43,22.48-1.99,33.46-.05,1.93.34,3.62.74,5.52,1.22.15.05.37.11.41.3.08.45-.83.02-.99-.03-1.31-.36-2.63-.6-3.94-.9-.85-.11-1.69-.29-2.54-.43-8.65-1.42-18.59-1.84-27.27-.57-.49.07-1.01.12-1.48.25-.29.04-1.59.24-1.77.35v.05s-.05.06-.05.06c.05,0,.14-.03.18,0-.28.1-.72.13-.94.31l-.02.09v.06c-.31-.04-.87.06-1.1-.16-.18.08-1.94.54-2.05.51-.14-.04-.21-.24-.11-.35.14-.15.55-.13.75-.15ZM2.21,31.12c.22.23.79.12,1.1.16v-.06l.02-.09c.22-.18.67-.21.94-.31-.04-.03-.13,0-.18,0l.06-.06v-.05c-.64.1-1.33.21-1.94.4Z"/>
  <path class="cls-8" d="M5.91,30.36c.48-.12,1-.17,1.48-.25,8.68-1.27,18.63-.85,27.27.57.84.14,1.69.32,2.54.43v.05c0,.24-.3.53,0,.58-.75.05-4.39-.28-4.75.12-.56.63.37.65.55.68-.1.23-.05.34.19.42.12.08.21.17.28.3-.09.29.09.31.28.49-.46-.02-.98,0-1.38-.25-.34.53-2.96-1.11-4.33,0-.21.17-.3.37-.57.18-.05.13,0,.26,0,.39,0,.21,0,.41,0,.62.17.08.38.21.56.24.29.12,1.12.3,1.27.45-.07.18-.12.24-.29.31-.54.55-2.44-.05-3.03-.31-.3.24-1.14-.04-1.5-.09-2.08-.3-5.44-.57-7.57-.25-.97-.05-1.98-.29-2.88.2-.27-.23-.89-.43-1.31-.74l.02-.02c.24-.18.27-.39.07-.63l-.1-.12c.15-.32-.49-.59-.74-.49-.65.15-1.65-.31-2.65-.15v-.07s.09,0,.13-.02v-.03c-.67-.74-1.72-.65-2.61-.86-.18-.12-.35-.17-.4-.4-.12-.52-1.48-.29-1.86-.24-.15-.2-1.03-.22-1.29-.23v-.06l.02-.09c.22-.18.67-.21.94-.31-.04-.03-.13,0-.18,0l.06-.06v-.05c.17-.11,1.48-.31,1.76-.35ZM24.44,34.85c-.03.43,1.14.42,1.54.55.59.25,2.49.85,3.03.31.17-.07.22-.13.29-.31-.15-.15-.98-.33-1.27-.45-.18-.04-.39-.17-.56-.24-.66-.29-3.35-.62-3.03.15ZM17.04,31.12c-.1.5-1.47.1-2.06.17-.95.11-1.04.75-1.41.8-.22.03-.46-.14-.68-.14-.37,0-.46.14-.68-.21-.07.19-.02.4,0,.6.4.1.81.24,1.22.27.67.06,1.26-1.16,3.22-1.14.29,0,.94-.14.4-.36ZM21.07,31.74c-.37.24-.37.64.15.63.65-.01,4.1-.35,4.3-.48-.87-.13-1.65-.32-2.54-.24-.42.04-1.58.4-1.91.1ZM18.71,33.51c.38.18,3.2.19,2.53-.24-.46.19-1.37-.22-2.53.24Z"/>
  <path class="cls-3" d="M18.71,33.51c-.84-.66,1.83-.78,2.46-.48.06.08.06.15.07.25-.46.19-1.37-.22-2.53.24Z"/>
  <path class="cls-3" d="M21.07,31.74c-.13-.44.55-.33.83-.36.89-.12,3.12-.34,3.77.21.09.2-.03.19-.15.3-.87-.13-1.65-.32-2.54-.24-.42.04-1.58.4-1.91.1Z"/>
  <path class="cls-3" d="M27.47,33.69c.26-1.63,4.59-.79,4.9-.19-.34.53-2.96-1.11-4.33,0-.21.17-.3.37-.57.18Z"/>
  <path class="cls-3" d="M13.52,31.67c.67-.94,2.74-1.2,3.52-.55-.1.5-1.47.1-2.06.17-.95.11-1.04.75-1.41.8-.22.03-.46-.14-.68-.14-.37,0-.46.14-.68-.21.33-.37.93-.24,1.32-.07Z"/>
  <path class="cls-3" d="M24.44,34.85c-.32-.77,2.36-.43,3.03-.15.17.08.38.21.56.24.29.12,1.12.3,1.27.45-.07.18-.12.24-.29.31-.54.55-2.44-.05-3.03-.31-.4-.13-1.57-.12-1.54-.55ZM24.44,34.85c-.03.43,1.14.42,1.54.55.59.25,2.49.85,3.03.31-.65-.03-1.7-.68-2.47-.81-.63-.11-1.67.11-2.09-.05Z"/>
  <path class="cls-3" d="M23.51,5.64c.01-.21,0-.99.14-1.1.38-.33,3.47-.71,3.82-.24.04.25-.1.57-.12.83-.06,1.26-.08,2.71-.1,3.98h.04c.24-.04.8-.32,1.01-.22.33.34.18,1.85.17,2.32,1.14-.16,2.01-.29,3.17-.34.94-.69.45,1.58.38,2.03.74-.01,1.5.04,2.24,0,1.08-.06,1.05-.59,1,.65-.01.38-.02.77,0,1.15.38,0,1.21-.1,1.5.18.27.71-.05,3.63-.1,4.67-.15,3.02-.08,6.05-.33,9.05.73.09,6.16,1.26,6.37,1.6.35.54-1.04.05-1.08.04-6.56-1.75-14.13-3.1-20.91-2.21-.17.02-.45-.04-.55.13l-.07.11s.02.03.07.05c-.07.02-.16.03-.23.07-.12.05-.2.06-.33.06h-4.88c-.12.03-.23.03-.35,0-.02-.06-.04-.11-.06-.16-.15-.09-3.24-.05-3.56-.03-2.44.09-4.63.43-7.02.97-.33.07-1.64.41-1.89.32-.15-.05-.18-.23-.07-.35.07-.07,4.03-.84,4.29-.87-.21-.57-.14-1.76-.16-2.42-.02-.45-.31-3.64-.27-3.78.15-.53,3.16-.35,3.65-.21.41.13.31.47-.13.42-1.09-.14-1.98-.23-3.09,0,.16,1.96.37,3.93.31,5.91.25-.06.49-.07.74-.09.61-.17,1.8-.15,2.24-.37.22.02.42.03.64,0v-7.19c-.01-1.38-.31-3.8.02-4.95,0,0,.87-.08,1.02-.1,1.1-.19,4.65-.56,5.15.08.27,1.09.1,4.61.1,5.84.37-.12.75-.18,1.13-.27.04-1.72-.02-3.46-.01-5.18v-2.36c.01-.48.03-.98-.03-1.46-.05-.4-.12-.76.45-.62.18-1,.69-1.11,1.36-1.71-.08-.44-.27-3.92.13-4.1.44.06.28.67.28.97v3.03c1.64.91,1.34,1.93,1.37,3.41l.27.23c.12-1.44-.06-3.96.22-5.2.3,0,.61,0,.91,0,0-.42-.09-2.24.19-2.47.21-.17.7-.1.96-.12ZM24.03,4.84c-.1.35-.1,1.22-.34,1.37-.26.03-.58-.1-.89-.08.05.56,0,1.14-.02,1.71-.03.96.11.79-1,.8-.06,1.46,0,2.92-.1,4.38l-.28,4c-.07.88-.17,1.74-.18,2.62-.04,2.63.22,5.32.14,7.9l.46-.05.06-8.91c.02-2.27-.2-7.13.54-9.23.15-.42.51-.53.88-.71.02-.72.09-1.48.2-2.19.24-.19.52-.22.8-.32.03-.23.05-.46.13-.67.47-.13.98-.18,1.46-.27.17-.27.45-.2.73-.25.04.57.06,2.96.2,3.29.05-1.02-.02-2.67.18-3.6-.95-.12-2.08-.13-2.99.21ZM30.89,15.37c-.04.52,0,1.06,0,1.58.42-.1.86-.15,1.3-.16,1-.21,2.79-.44,3.81-.43.23.11.24.3,0,.43.05.22,0,.45.04.67.06.15.04.26,0,.41-.04.22-.06.42-.04.65-.02.12-.05.24-.08.36-.27.01-.59,0-.85.05.07.22.03.53,0,.75.24.06.58.07.79.19.02.12.07.25,0,.36-.03.31.02.62,0,.93.11-.02.23,0,.34,0-.03-1.29.13-2.56.18-3.84.03-.7-.09-1.45,0-2.13-1.87,0-3.67.17-5.49.19ZM10.34,16.15c-.05,1.26,0,2.51.02,3.77l.07,4.46c.02,1.13.08,2.3,0,3.43h.37c-.07-.68,0-1.37,0-2.05.05-.24,0-1.13,0-1.44l-.03-6.09c0-.35-.21-1.05.38-.89.27-.2.53-.29.85-.39.02-.23-.04-.49.02-.72.07-.27.35-.29.45-.04,0,.16,0,.32,0,.49.31-.05.62-.15.93-.17-.05-.59.31-.85.41-.35l.03.13c.15.09.69.06.82-.09l.05-.04c.13.03.23.09.35.15.09,0,.24-.01.3.07.26.33.38,4.55.35,5.2.39-.09.16-1.56.16-2.04,0-1.15.04-2.48-.06-3.62-1.49-.4-3.96-.07-5.47.25ZM14.35,22.22c0,1.94.31,3.64.35,5.5.3,0,.6,0,.9,0-.17-.69-.18-1.42-.26-2.12l-.22-1.95c-.05-.44-.13-.85-.08-1.3.62.05,1.73-.09,2.35-.23.43.05.87,0,1.3,0,.13,0,.26,0,.39,0,.02-.19.04-.38.08-.56-1.62-.02-3.23.43-4.83.66ZM17.82,13.89v4.91c0,.79.05,1.64,0,2.42.24-.03.48-.05.72-.07.09-.72-.02-1.49-.04-2.22-.02-.72-.13-3.59.05-4.23.22-.78,1.4-.68,1.98-1.04-.91-.08-1.81.09-2.71.23ZM34.77,13.37c-.92,0-1.84-.03-2.75.05.05.46.09.93-.03,1.37.03.04.01.03.03.04.94-.01,1.89-.07,2.82-.13-.02-.27.06-1.19-.02-1.34h-.06ZM30.89,18.4c0,.66.05,1.36,0,2.01-.01.41,0,.83,0,1.24.16-.07.31-.13.48-.17.22-.05.44-.07.66-.1,0-.36,0-.71,0-1.07-.17.04-.33.08-.5.1-.14.03-.28.07-.42.09-.29-.52.59-.54.91-.64.01-.22.03-.43,0-.65-.21.04-.75.21-.94.1-.63-.33.82-.44.94-.45,0-.23.06-.45.09-.67-.4.07-.81.12-1.22.21ZM17.82,11.98c0,.48.02.96,0,1.44.24-.03.48-.04.72-.05-.22-1.17,1.1-1.52,1.98-1.39,0-.09,0-.19,0-.28-.92-.04-1.79.3-2.71.28ZM30.89,21.95c0,.67-.08,1.91,0,2.51.12.18,0,.61.1.86h.04s.09-.27.09-.27c0,.07-.02.14,0,.21.04-.08.11-.77.11-.91l-.05-.04c-.29-.21-.05-.4.2-.46-.12-.18-.13-.5-.12-.71-.37-.49.46-.54.78-.61,0-.25,0-.49,0-.74-.38.05-.75.13-1.13.16ZM18.9,11.4c-.06-.63.47-.78.49-1.08-.22.15-1.22.85-1.06,1.15.19,0,.39-.04.57-.07ZM27.11,9.66h0c.08.12.18.29.3.38.04-.1.1-.17.16-.26.29-.42.38.48.43.56l.02-.02v-.93c-.3.11-.61.19-.92.27Z"/>
  <path class="cls-14" d="M19.92,28.4c-.04-.33.02-.15.23-.23l-.07.11s.02.03.07.05c-.07.02-.16.03-.23.07Z"/>
  <path class="cls-11" d="M35.86,25.63c.06-.05.09-.09.12-.15h.05c.04.07-.05,2.64-.05,2.95l-.03.04h-.09c-.03-.94-.03-1.9,0-2.83Z"/>
  <path class="cls-14" d="M35.86,23.38l.24.06c0,.37.15,2-.24,1.82-.03-.51-.06-1.38,0-1.88Z"/>
  <path class="cls-16" d="M35.86,21.56h.3c-.08.62-.06,1.25-.06,1.88l-.24-.06c.02-.21,0-.42,0-.63.14-.13.13-.27,0-.4,0-.26,0-.53,0-.79Z"/>
  <path class="cls-5" d="M34.85,17.86c.31-.06.85,0,1.19,0-.04.22-.06.42-.04.65-.13-.06-.8,0-.98,0,.1-.14.21-.61-.17-.65Z"/>
  <path class="cls-5" d="M35.02,16.78c.33.01.65-.01.98,0,.05.22,0,.45.04.67-.31-.03-.65,0-.97,0,.02-.2.06-.44.01-.63l-.06-.03Z"/>
  <path class="cls-5" d="M35.02,21.56c.28,0,.57-.01.85,0,0,.26,0,.53,0,.79-.28-.02-.57-.02-.85-.07h.02c.07-.12,0-.58-.02-.72Z"/>
  <path class="cls-16" d="M19.51,22.53c0-.29-.01-.58,0-.87.14.55.13,1.09.17,1.65,0,.92,0,1.84.07,2.76.01.17.19,1.47.11,1.55-.27-1.67-.37-3.39-.36-5.08Z"/>
  <path class="cls-14" d="M30.89,17.97c0-.22,0-.43.02-.65l.06-.02h.04c.14-.05.81-.08,1.01-.11,0,.19,0,.37,0,.56-.37.1-.75.16-1.13.22Z"/>
  <path class="cls-16" d="M19.39,10.32l.04-.05c.33.02.75.68.9.95-.48.06-.96.14-1.44.18-.06-.63.47-.78.49-1.08Z"/>
  <path class="cls-14" d="M19.51,28.18c.02.1.05.19.08.28h-4.88c.02-.37.23-.25.57-.26,1.12-.06,3.1-.11,4.23-.02Z"/>
  <path class="cls-12" d="M35.02,16.78l.06.03c.05.19,0,.44-.01.63-.9.02-2.16.13-3.05.3,0-.19,0-.37,0-.56.79-.06,2.24-.24,2.99-.41Z"/>
  <path class="cls-5" d="M35.02,22.71c.28.02.56.03.85.04,0,.21.02.43,0,.63-.06.5-.03,1.38,0,1.88-.28-.06-.57-.06-.85-.08v-1.12c.68,0,.75-.46,0-.39v-.96Z"/>
  <path class="cls-12" d="M32.11,18.2c.9-.18,1.83-.25,2.74-.34.38.04.27.51.17.65-.94.04-2.1.08-2.99.36,0-.23.06-.45.09-.67Z"/>
  <path class="cls-3" d="M35.02,18.51c.18,0,.85-.06.98,0-.02.12-.05.24-.08.36-.27.01-.59,0-.85.05-1.04.06-2.03.22-3.05.3-.21.04-.75.21-.94.1-.63-.33.82-.44.94-.45.9-.28,2.05-.32,2.99-.36Z"/>
  <path class="cls-12" d="M35.07,18.92c.07.22.03.53,0,.75-1.04-.02-2.02.09-3.05.19.01-.22.03-.43,0-.65,1.02-.07,2-.23,3.05-.3Z"/>
  <path class="cls-12" d="M32.02,21.79c1-.07,1.99-.22,2.99-.23,0,.14.09.6.02.71h-.02c-.99,0-2.03.02-2.99.26,0-.25,0-.49,0-.74Z"/>
  <path class="cls-16" d="M18.54,13.37c-.22-1.17,1.1-1.52,1.98-1.39,0,.41,0,.81,0,1.22-.65-.01-1.36-.02-1.98.18Z"/>
  <path class="cls-5" d="M34.96,25.59c.3.02.61,0,.91.04-.03.93-.03,1.9,0,2.83-.29-.02-.56-.05-.85-.12,0-.92-.06-1.83-.06-2.74Z"/>
  <path class="cls-3" d="M32.02,22.53c.96-.24,2.01-.26,2.99-.25.27.05.57.05.85.07.13.13.14.26,0,.4-.28,0-.56-.02-.85-.04-1,0-2.02,0-2.99.27-.01.25-.03.51-.05.76-.2.05-.4.11-.61.11-.12-.18-.13-.5-.12-.71-.37-.49.46-.54.78-.61Z"/>
  <path class="cls-8" d="M31.25,23.14c.24,0,.54-.11.78-.17-.01.25-.03.51-.05.76-.2.05-.4.11-.61.11-.12-.18-.13-.5-.12-.71Z"/>
  <path class="cls-14" d="M31.53,20.42c.17-.03.33-.07.5-.1,0,.36,0,.71,0,1.07-.22.03-.44.05-.66.1.07-.08.12-.09.22-.12v-.02c-.33-.22-.16-.61-.06-.92Z"/>
  <path class="cls-12" d="M32.02,22.98c.97-.27,1.99-.27,2.99-.27v.96c-.99-.06-2.11.17-3.04.06.02-.25.04-.51.05-.76Z"/>
  <path class="cls-12" d="M15.05,16.3c.09,0,.24-.01.3.07.26.33.38,4.55.35,5.2l-.65.09v-5.36Z"/>
  <path class="cls-11" d="M18.71,22.12c.13,0,.26,0,.39,0-.03,1.06-.02,2.12.08,3.18.07.8.23,1.62.21,2.43-.26-.02-.5-.02-.76,0,0-.2.05-.8-.08-.93-.06-.3-.04-3.06,0-3.41.18-.36.16-.86.16-1.26Z"/>
  <path class="cls-12" d="M35.02,23.68c.75-.07.68.38,0,.39v1.12c-1-.04-2,.05-2.99.08-.3.06-.61.1-.91.12v-.12c.04-.08.11-.77.11-.91l-.05-.04c-.29-.21-.05-.4.2-.46.2,0,.41-.06.61-.11.93.11,2.05-.12,3.04-.06Z"/>
  <path class="cls-8" d="M31.17,24.32c.29-.03.57-.06.85-.09.02.35.02.69,0,1.04-.3.06-.61.1-.91.12v-.12c.04-.08.11-.77.11-.91l-.05-.04Z"/>
  <path class="cls-3" d="M35.02,23.68c.75-.07.68.38,0,.39-1,0-2,.06-2.99.16-.28.04-.57.07-.85.09-.29-.21-.05-.4.2-.46.2,0,.41-.06.61-.11.93.11,2.05-.12,3.04-.06Z"/>
  <path class="cls-12" d="M32.02,19.87c1.03-.1,2.01-.21,3.05-.19.24.06.58.07.79.19.02.12.07.25,0,.36-.03.31.02.62,0,.93h-.85c-1.01.01-1.99.14-2.99.23,0-.36,0-.71,0-1.07-.17.04-.33.08-.5.1-.14.03-.28.07-.42.09-.29-.52.59-.54.91-.64Z"/>
  <path class="cls-5" d="M35.07,20.11c.26.05.54.06.79.12-.03.31.02.62,0,.93h-.85c.1-.15.05-.84.05-1.04Z"/>
  <path class="cls-3" d="M32.02,19.87c1.03-.1,2.01-.21,3.05-.19.24.06.58.07.79.19.02.12.07.25,0,.36-.26-.06-.53-.06-.79-.12-1.04-.01-2.02.04-3.05.2-.17.04-.33.08-.5.1-.14.03-.28.07-.42.09-.29-.52.59-.54.91-.64Z"/>
  <path class="cls-14" d="M28.42,11.7c1.03-.15,2.18-.43,3.22-.3.04.54-.02,1.08-.04,1.62-.02.11-.03.23-.06.34-.11-.37.23-2.03-.38-1.55-.76,0-1.54.06-2.3,0-.08,1.23-.04,2.45-.06,3.68l-.08,3.05c-.06,1.87.08,6.73-.47,7.82-.02-.42,0-.84,0-1.26v-1.85c0-1.16-.02-2.32,0-3.47l.16-5.33c.03-.9.06-1.85,0-2.74Z"/>
  <path class="cls-5" d="M30.01,15.31c.15.06.31.05.47.06.05.46,0,.9,0,1.36v10.92c-.21,0-.41,0-.61,0,.05-.13,0-1.9,0-2.17,0-2.94.03-6.04.1-8.96,0-.39-.02-.82.04-1.2Z"/>
  <path class="cls-5" d="M35.26,15.37c.3-.22,1.1-.19.85.34-.29.04-.57.04-.85.03v-.37Z"/>
  <path class="cls-5" d="M35.92,18.87c-.05.32-.08.68-.06,1-.21-.13-.55-.13-.79-.19.03-.22.07-.54,0-.75.26-.05.58-.04.85-.05Z"/>
  <path class="cls-12" d="M35.26,15.37v.37c-.5.04-2.75.27-3.07.16.97-.25,2.26-.28,3.07-.53Z"/>
  <path class="cls-3" d="M36.11,15.71c.16.11.19.37,0,.48-.04.05-.09.1-.11.16-1.02,0-2.81.22-3.81.43,0-.12.09-.31.02-.41l-.1-.02c-.35.03-.82.21-1.11-.07-.14-.35.99-.36,1.19-.38.32.11,2.57-.12,3.07-.16.29,0,.57,0,.85-.03Z"/>
  <path class="cls-12" d="M32.11,16.35c.21-.03.6,0,.85-.02,1.06-.07,2.09-.15,3.15-.14-.04.05-.09.1-.11.16-1.02,0-2.81.22-3.81.43,0-.12.09-.31.02-.41l-.1-.02Z"/>
  <path class="cls-12" d="M30.89,24.47c.12.18,0,.61.1.86h.04s.09-.27.09-.27c0,.07-.02.14,0,.21v.12c-.09.12-.15.23-.05.36l.11.02c.89-.17,2.89-.18,3.79-.17,0,.92.05,1.83.06,2.74-1.39-.22-2.78-.48-4.18-.61.04-.7.04-1.39.05-2.09-.04-.4-.03-.77,0-1.16Z"/>
  <path class="cls-14" d="M30.89,24.47c.12.18,0,.61.1.86h.04s.09-.27.09-.27c0,.07-.02.14,0,.21v.12c-.09.12-.15.23-.05.36l.11.02c-.21.33-.19.87-.28,1.26,0-.46.04-.93,0-1.38-.04-.4-.03-.77,0-1.16Z"/>
  <path class="cls-2" d="M27.11,9.66c.08.12.18.29.3.38.04-.1.1-.17.16-.26.29-.42.38.48.43.56l.02-.02c.02,1.45.04,2.91,0,4.36l-.2,9.63c-.02,1.04-.13,2.07-.11,3.11-.23.01-.46.03-.68,0,.13-.01.26,0,.39,0-.33-1.28-.55-5.27-.57-6.71-.02-1.44.11-2.91.07-4.32-.04-1.46-.32-3.8-.19-5.17.17-.21.36-.54.45-.8,0-.26-.14-.5-.06-.76Z"/>
  <path class="cls-6" d="M27.57,9.78c.05.13,0,1.42,0,1.62-.05-.19-.04-.38-.04-.57h-.02c-.22.36-.03.93-.1,1.33-.02-.33.06-1.98,0-2.11.04-.1.1-.17.16-.26Z"/>
  <path class="cls-9" d="M27.41,12.15c.08-.4-.11-.97.1-1.33h.02c0,.19,0,.38.04.57,0,1.75.05,3.49-.08,5.24-.04.55-.07,6.46-.14,6.55-.22-.57.06-9.05.06-11.03Z"/>
  <path class="cls-16" d="M17.4,22.12c.43.05.87,0,1.3,0,0,.4.01.9-.16,1.26-.04.36-.06,3.11,0,3.41.13.13.08.73.08.93-1,0-2.02.05-3.02,0-.17-.69-.18-1.42-.26-2.12l-.22-1.95c-.05-.44-.13-.85-.08-1.3.62.05,1.73-.09,2.35-.23Z"/>
  <path class="cls-3" d="M17.47,23.58v1.46c0,.12.1.84-.25.58-.07-.4-.28-2.77-.22-2.92.05-.12.2-.1.3-.08.05.04.08.07.1.13.01.28.03.55.06.83Z"/>
  <path class="cls-3" d="M16.09,22.71c.06.02.15.05.18.1.09.13.48,3.11.15,3.38-.09-.01-.12-.01-.19-.07-.08-.36-.33-2.99-.3-3.24,0-.08.09-.13.15-.18Z"/>
  <path class="cls-3" d="M17.4,22.12c.43.05.87,0,1.3,0,0,.4.01.9-.16,1.26-.04.36-.06,3.11,0,3.41-.41.72-.38-2.13-.43-2.48-.12-.19-.15-.52-.22-.74-.15-.03-.27-.03-.43,0-.04-.28-.05-.55-.06-.83-.02-.06-.05-.09-.1-.13,0-.15.07-.34.1-.49Z"/>
  <path class="cls-4" d="M17.4,22.75c.17-.02.56-.11.71,0-.06.51.02,1.05,0,1.57-.12-.19-.15-.52-.22-.74-.15-.03-.27-.03-.43,0-.04-.28-.05-.55-.06-.83Z"/>
  <path class="cls-13" d="M17.4,22.12c.43.05.87,0,1.3,0,0,.4.01.9-.16,1.26-.05-.33-.03-.63-.43-.63-.15-.11-.54-.02-.71,0-.02-.06-.05-.09-.1-.13,0-.15.07-.34.1-.49Z"/>
  <path class="cls-16" d="M20.53,13.66c.85.12.53,2,.48,2.57-.14,1.85-.24,3.68-.18,5.54l.08,4.03c0,.58.06,1.16.06,1.75-.21.03-.42.08-.63.11-.17-.97-.24-2.15-.25-3.15,0-.81.07-2.13-.1-2.88-.17-.77-.87-.58-1.45-.47.09-.72-.02-1.49-.04-2.22-.02-.72-.13-3.59.05-4.23.22-.78,1.4-.68,1.98-1.04Z"/>
  <path class="cls-12" d="M31.17,11.81c.61-.48.27,1.18.38,1.55.03-.11.04-.22.06-.34,0,.27.06.87,0,1.09-.02.27-.06.55-.08.82-.43.02-1.51-.11-1.51.38-.06.38-.03.81-.04,1.2-.07,2.92-.1,6.03-.1,8.96,0,.28.05,2.05,0,2.17-.56-.11-1.13-.11-1.7-.16.19-.36.11-.75.08-1.14.55-1.09.41-5.95.47-7.82l.08-3.05c.02-1.23-.02-2.45.06-3.68.76.06,1.54,0,2.3,0Z"/>
  <path class="cls-1" d="M28.87,25.63l.06.04c.13.3.08.8.08,1.13l-.05-.05c-.1-.3-.14-.8-.09-1.12Z"/>
  <path class="cls-1" d="M29.06,23.14l.08.02c.13.18.09,1.72.08,2.02l-.05-.05c-.1-.33-.17-1.66-.11-1.99Z"/>
  <path class="cls-7" d="M29.38,16.5l.06.02c.03.09.15,5.66.1,6.1-.29-.47-.31-5.92-.16-6.12Z"/>
  <path class="cls-5" d="M31.17,11.81c.61-.48.27,1.18.38,1.55.03-.11.04-.22.06-.34,0,.27.06.87,0,1.09-.04,0-.39.87-.63.19-.27-.79-.17-1.74.19-2.49Z"/>
  <path class="cls-12" d="M13.39,16.5c-.05-.59.31-.85.41-.35l.03.13c.15.09.69.06.82-.09,0,.49.05.98.05,1.48v4.12c-.24.03-.52.04-.73.17l-.04.09c0,1.98.33,3.81.34,5.68-.11.13-2.96.11-3.48.08-.07-.68,0-1.37,0-2.05.05-.24,0-1.13,0-1.44l-.03-6.09c0-.35-.21-1.05.38-.89.27-.2.53-.29.85-.39.02-.23-.04-.49.02-.72.07-.27.35-.29.45-.04,0,.16,0,.32,0,.49.31-.05.62-.15.93-.17Z"/>
  <path class="cls-10" d="M13.8,22.28l.07-.02c.06-.07.05-.13.06-.22,0,1.98.33,3.81.34,5.68l-.06-.03-.07.03-.04-.07c-.09.04-.2.05-.3.08-.17-.73-.19-1.59-.21-2.34-.28-.84-.27-2.22-.21-3.1h.41Z"/>
  <path class="cls-3" d="M13.6,25.38c0-.1.02-.17.06-.27.52-.33.43,2.13.44,2.54-.09.04-.2.05-.3.08-.17-.73-.19-1.59-.21-2.34Z"/>
  <path class="cls-3" d="M10.79,24.32l-.03-6.09c0-.35-.21-1.05.38-.89.07,1.78.03,3.51.07,5.28l.08,3.17c0,.22.14.78-.04.95-.34.33-.3-.68-.29-.77-.05-.09-.08-.15-.16-.22.05-.24,0-1.13,0-1.44Z"/>
  <path class="cls-6" d="M10.79,24.32c.18.42.23,1.2.16,1.65-.05-.09-.08-.15-.16-.22.05-.24,0-1.13,0-1.44Z"/>
  <path class="cls-3" d="M11.99,16.95c.02-.23-.04-.49.02-.72.07-.27.35-.29.45-.04-.06.6,0,1.19,0,1.78l.02,9.28c0,.09,0,.14-.06.21-.49.14-.33-.57-.34-.86-.02-.72-.04-1.44-.04-2.16v-5.21c0-.55.04-1.8-.05-2.28Z"/>
  <path class="cls-12" d="M13.39,16.5c-.05-.59.31-.85.41-.35l.03.13c.15.09.69.06.82-.09,0,.49.05.98.05,1.48v4.12c-.24.03-.52.04-.73.17l-.04.09c-.01.09,0,.15-.06.22l-.07.02h-.41v-5.78Z"/>
  <path class="cls-3" d="M13.39,16.5c-.05-.59.31-.85.41-.35v4.09c0,.68-.05,1.36,0,2.05h-.41v-5.78Z"/>
  <path class="cls-12" d="M25.91,5.19c.17-.27.45-.2.73-.25.04.57.06,2.96.2,3.29.01.47-.1,1.07.27,1.44h0c-.07.25.06.5.06.76-.09.25-.28.59-.45.8-.12,1.37.15,3.71.19,5.17.04,1.41-.09,2.87-.07,4.32.02,1.44.24,5.43.57,6.71-.13,0-.26-.01-.39,0-1.51-.04-3.7-.17-5.19.08l.06-8.91c.02-2.27-.2-7.13.54-9.23.15-.42.51-.53.88-.71.02-.72.09-1.48.2-2.19.24-.19.52-.22.8-.32.03-.23.05-.46.13-.67.47-.13.98-.18,1.46-.27Z"/>
  <path class="cls-1" d="M22.81,14.33c.21.07.17.86.12,1.04-.23-.07-.13-.83-.12-1.04Z"/>
  <path class="cls-1" d="M23.07,25.38c.32.08.19.72.18.98-.3-.03-.18-.75-.18-.98Z"/>
  <path class="cls-1" d="M25.16,18.74c.08,0,.15-.02.12.05h.04c-.01.3-.02.59-.02.88-.31-.06-.16-.71-.13-.93Z"/>
  <path class="cls-1" d="M23.32,18.74l.1.03c.09.18.02.84.02,1.09l-.11-.02c-.15-.2-.03-.85,0-1.1Z"/>
  <path class="cls-1" d="M24.68,21.15c.33.02.16.75.13.97-.29-.06-.15-.75-.13-.97Z"/>
  <path class="cls-1" d="M23.86,23.38c.33.07.18.83.17,1.09-.32-.07-.18-.84-.17-1.09Z"/>
  <path class="cls-1" d="M25.63,25.38c.35.04.21.63.21.98-.37-.01-.22-.72-.21-.98Z"/>
  <path class="cls-1" d="M25.91,22.98c.36.04.24.71.22,1-.31,0-.22-.78-.22-1Z"/>
  <path class="cls-1" d="M24.07,16.5c.25.06.17,1.03.12,1.17-.32-.13-.22-.92-.12-1.17Z"/>
  <path class="cls-1" d="M25.16,11.59s.06,1.12,0,1.2c-.28-.12-.21-1.04,0-1.2Z"/>
  <path class="cls-1" d="M24.62,6.65l.05.02c.08.23.09,1.11-.05,1.34-.29-.18-.07-1.08,0-1.36Z"/>
  <path class="cls-1" d="M25.68,16.5c.31.08.17.9.16,1.17-.34.06-.16-.84-.16-1.17Z"/>
  <path class="cls-1" d="M25.84,13.89h.11c-.02.29,0,.8-.11,1.04-.32-.03-.08-.86,0-1.04Z"/>
  <path class="cls-1" d="M24.81,14.11c.37.04.26.76.19.99-.3-.03-.24-.84-.19-.99Z"/>
  <path class="cls-1" d="M23.07,11.75c.31.06.24,1.09.18,1.28-.33-.07-.2-1.01-.18-1.28Z"/>
  <path class="cls-1" d="M24.2,9.12c.27-.02.14.89.12,1.2-.35-.07-.19-.96-.12-1.2Z"/>
  <path class="cls-5" d="M25.91,5.19c.17-.27.45-.2.73-.25.04.57.06,2.96.2,3.29.01.47-.1,1.07.27,1.44h0c-.07.25.06.5.06.76-.09.25-.28.59-.45.8-.93-.18-.8-5.11-.81-6.04Z"/>
</svg>