<?xml version="1.0" encoding="UTF-8"?>
<svg id="Layer_1" xmlns="http://www.w3.org/2000/svg" version="1.1" viewBox="0 0 45.2 37.9">
  <!-- Generator: Adobe Illustrator 29.8.3, SVG Export Plug-In . SVG Version: 2.1.1 Build 3)  -->
  <defs>
    <style>
      .st0 {
        fill: #12b9d3;
      }

      .st1 {
        fill: #fefefe;
      }

      .st2 {
        fill: #90cfd8;
      }

      .st3 {
        fill: #393838;
      }
    </style>
  </defs>
  <path class="st3" d="M20.72,27.65c.81-.08.2,1.03.09,1.41-.35,1.13-.45,2.9-2.1,2.52-1.86-1.15,1-3.39,2.01-3.92ZM18.8,31.03c.28-.48,1.09-1.83,1.51-2.11l.14-.41c-.65.39-2.33,1.63-1.65,2.53Z"/>
  <path class="st2" d="M20.3,28.92c-.18.82-.38,2.54-1.51,2.11.28-.48,1.09-1.83,1.51-2.11Z"/>
  <path class="st3" d="M10.71,29.01c.44.05.26.43.16.69-.37.98-.73,4.27-2.5,3.19-1.76-1.15,1.34-3.48,2.34-3.88ZM8.65,32.43c.31-.61.97-1.61,1.45-2.09.06-.15.12-.31.17-.47-.6.38-2.6,1.79-1.62,2.56Z"/>
  <path class="st2" d="M8.65,32.43c.31-.61.97-1.61,1.45-2.09-.12.52-.49,2.77-1.45,2.09Z"/>
  <path class="st3" d="M31.01,28c.61.09-.14,1.34-.24,1.64-.34.97-.72,3.46-2.43,2.41-.37-.39-.63-.88-.38-1.41.38-.81,2.19-2.33,3.05-2.64ZM28.33,31.03c.06.21.12.37.27.55.22-.57,1.17-1.78,1.68-2.12.08-.18.16-.36.22-.54-.68.4-1.84,1.4-2.17,2.11Z"/>
  <path class="st2" d="M28.6,31.58c.22-.57,1.17-1.78,1.68-2.12-.16.59-.63,2.94-1.68,2.12Z"/>
  <path class="st3" d="M14.06,32.69c.58.06.12.9.03,1.21-.31,1.11-.93,4.15-2.65,3.12-1.87-1.26,1.58-3.96,2.62-4.33ZM13.69,33.51c-.7.37-2.95,2.04-2.04,3.03.38-.85,1.26-2.17,1.95-2.79l.09-.24Z"/>
  <path class="st2" d="M13.6,33.75c-.11.57-.85,3.72-1.95,2.79.38-.85,1.26-2.17,1.95-2.79Z"/>
  <path class="st3" d="M24.71,32.69c.67-.15.02.97-.05,1.17-.41,1.05-.96,4.47-2.77,3.29-.28-.22-.49-.57-.55-.92-.16-1,2.35-3.4,3.37-3.54ZM24.24,33.51c-.62.32-2.17,1.76-2.38,2.44-.08.26.08.49.23.69.27-.73,1.48-2.42,1.98-2.75l.17-.38Z"/>
  <path class="st2" d="M24.08,33.89c-.22.8-.56,2.76-1.52,2.96-.18-.04-.31-.09-.46-.21.27-.73,1.48-2.42,1.98-2.75Z"/>
  <path class="st3" d="M25.47.39c5.46-.28,10.65,4.57,10.5,10.08-.01.37-.05.73-.02,1.1,3.41.89,5.28,4.14,4.8,7.57-1.08,7.77-12.53,8.72-18.26,6.23-.23-.1-.56-.22-.71-.43-1.48.55-2.92.96-4.49,1.17-4.24.63-10.44.78-13.61-2.41-4.27-4.3-1.67-12.75,4.34-12.69.47-3.31,2.84-6.22,6.37-6.26.93,0,2.01.23,2.7.9,1.7-3.1,4.79-5.14,8.38-5.27ZM3.53,22.13c.04-.1-.1-.35-.14-.46-1.42-3.51.55-8.35,4.53-9.09,1.63-.3,1.23.34,1.63-1.33.6-2.5,2.57-4.52,5.17-4.83.72-.09,1.85-.06,2.49.3.24.13.32.47.67.39.41-.09.73-.93.95-1.27,1.38-2.05,3.67-3.57,6.1-4.04,2.49-.36,4.37-.09,6.43,1.46,2.26,1.69,3.8,4.59,3.53,7.44-.03.28-.09.58-.08.87.12.18.3.31.44.46.99-5.15-2.75-9.97-7.78-10.93-3.84-.73-8.22,1.3-9.87,4.91-.28.61-.45.38-.89.14-1.56-.85-3.58-.57-5.04.35-2.84,1.79-2.72,5.15-2.99,5.31-.12.07-1.13.04-1.38.07-4.33.59-6.21,6.67-3.77,10.23ZM35.56,12.04c.18.17.44.2.66.3,2.01.89,3.27,3.01,3.48,5.15.26,2.62-1.09,5.23-3.21,6.73-.22.15-.54.3-.72.5,5.43-2.35,6.36-10.34.51-12.48-.23-.08-.48-.19-.73-.2Z"/>
  <path class="st0" d="M24.93,1.81c2.49-.36,4.37-.09,6.43,1.46,2.26,1.69,3.8,4.59,3.53,7.44-.03.28-.09.58-.08.87.12.18.3.31.44.46.1,0,.2,0,.3,0,.18.17.44.2.66.3,2.01.89,3.27,3.01,3.48,5.15.26,2.62-1.09,5.23-3.21,6.73-.22.15-.54.3-.72.5-1.2.85-5.04,1.31-6.46,1.33-1.43.02-.33.02-.98-.65.24-.05,1.62-.19,1.84-.17.07-.54.52-.45.96-.5.45-.05,2.11-.51,2.26-.49.13.02.22.16.29.26.25-.16,1.67-.83,1.89-.88-.36-.58.42-.88.78-1.23,2.66-2.54,2.5-7.36-1.15-8.93-2.07-.89-1.85-.35-1.77-2.84.12-3.92-3.26-7.38-7.1-7.7-.44-.04-.87.04-1.3.02-.49-.02-.53-.56-.19-.85-.01-.11.05-.19.1-.29Z"/>
  <path class="st3" d="M30.17,25.22c.07-.54.52-.45.96-.5.45-.05,2.11-.51,2.26-.49.13.02.22.16.29.26.04.75-2.45,1.02-3,1.05-.32.02-.38-.05-.51-.33Z"/>
  <path class="st3" d="M24.83,2.09c2.57-.1,4.78.54,6.69,2.32,1.87,1.74,2.94,4.25,2.66,6.81-.16,1.41.25.97,1.43,1.52,3.8,1.76,4.38,6.7,1.78,9.73-.36.42-1.24,1.5-1.84,1.15-.36-.58.42-.88.78-1.23,2.66-2.54,2.5-7.36-1.15-8.93-2.07-.89-1.85-.35-1.77-2.84.12-3.92-3.26-7.38-7.1-7.7-.44-.04-.87.04-1.3.02-.49-.02-.53-.56-.19-.85Z"/>
  <path class="st2" d="M3.53,22.13c.04-.1-.1-.35-.14-.46-1.42-3.51.55-8.35,4.53-9.09,1.63-.3,1.23.34,1.63-1.33.6-2.5,2.57-4.52,5.17-4.83.72-.09,1.85-.06,2.49.3.24.13.32.47.67.39.41-.09.73-.93.95-1.27,1.38-2.05,3.67-3.57,6.1-4.04-.05.1-.11.18-.1.29-.34.29-.3.82.19.85.43.02.86-.06,1.3-.02,3.84.32,7.22,3.78,7.1,7.7-.08,2.48-.3,1.94,1.77,2.84,3.64,1.57,3.81,6.39,1.15,8.93-.36.34-1.15.64-.78,1.23-.22.05-1.63.72-1.89.88-.07-.1-.16-.23-.29-.26-.15-.03-1.81.44-2.26.49-.44.05-.88-.05-.96.5-.21-.02-1.59.12-1.84.17-2.46.19-4.43-.24-6.56-1.38-.37.09-.73.27-1.09.4-4.2,1.51-14.29,2.43-17.15-2.28Z"/>
  <path class="st1" d="M23.61,7.1c2.44-.68,5.54,1.26,6.19,3.66.04.14.2.69.13.82h-.02c-.62-2.49-3.24-4.59-5.84-4.47-.15,0-.32.02-.47,0Z"/>
  <path class="st3" d="M24.08,7.1c2.6-.12,5.21,1.98,5.84,4.48.12.62.18,1.26.14,1.89-.04-.27-.05-.54-.09-.81-.71-4.14-5.8-6.79-9.48-4.25h0c.85-1.03,2.35-1.28,3.61-1.31Z"/>
  <path class="st1" d="M23.25,3.46c.15-.02.35-.02.44.14.3.55-.58.66-.92.78-.98.32-1.9.91-2.59,1.69-.23.26-.38.61-.69.78-1.63.18,1.08-2.99,3.76-3.38Z"/>
  <path class="st1" d="M8.26,13.66c.57-.08.95.38.54.73-.37.32-2.37-.17-3.14,2-.12.32-.15.68-.34.97-1.34.51-.19-1.68.14-2.1.67-.87,1.71-1.46,2.8-1.6Z"/>
  <path class="st1" d="M15.59,7.87c.35-.06,1.49-.06,1.71.3.43.71-.79.5-1.03.48-1.77-.12-3.51.98-4.1,2.66-.09.25-.09.58-.24.79-.39.56-1.51-.23.17-2.31.88-1.09,2.1-1.78,3.5-1.93Z"/>
</svg>