<?xml version="1.0" encoding="UTF-8"?>
<svg id="Layer_1" data-name="Layer 1" xmlns="http://www.w3.org/2000/svg" width="45.2" height="37.9" viewBox="0 0 45.2 37.9">
  <defs>
    <style>
      .cls-1 {
        fill: #78d9ff;
      }

      .cls-2 {
        fill: #fff;
      }

      .cls-3 {
        opacity: .2;
      }

      .cls-4 {
        fill: #ebebeb;
      }
    </style>
  </defs>
  <g class="cls-3">
    <path d="M38.66,12.56c-.31-5.76-5.08-10.33-10.92-10.33-1.46,0-2.85.29-4.12.81-1.74.71-3.25,1.85-4.41,3.29-.88-.33-1.84-.51-2.84-.51-4.48,0-8.11,3.63-8.11,8.11,0,.32.02.64.06.96-.27-.04-.55-.06-.83-.06-3.01,0-5.44,2.44-5.44,5.44s2.44,5.44,5.44,5.44h31.14c3.63,0,6.57-2.94,6.57-6.57s-2.93-6.55-6.54-6.57Z"/>
    <path d="M12.5,28.74c-.32-.11-.67.05-.79.37l-.94,2.63c-.11.32.05.67.37.79.07.02.14.04.21.04.25,0,.49-.16.58-.41l.94-2.63c.11-.32-.05-.67-.37-.79Z"/>
    <path d="M18.68,28.74c-.32-.11-.67.05-.79.37l-.94,2.63c-.11.32.05.67.37.79.07.02.14.04.21.04.25,0,.49-.16.58-.41l.94-2.63c.11-.32-.05-.67-.37-.79Z"/>
    <path d="M14.18,34.08c-.32-.11-.67.05-.79.37l-.94,2.63c-.11.32.05.67.37.79.07.02.14.04.21.04.25,0,.49-.16.58-.41l.94-2.63c.11-.32-.05-.67-.37-.79Z"/>
    <path d="M20.39,34.08c-.32-.11-.67.05-.79.37l-.94,2.63c-.11.32.05.67.37.79.07.02.14.04.21.04.25,0,.49-.16.58-.41l.94-2.63c.11-.32-.05-.67-.37-.79Z"/>
    <path d="M25.87,33.98c-.32-.11-.67.05-.79.37l-.94,2.63c-.11.32.05.67.37.79.07.02.14.04.21.04.25,0,.49-.16.58-.41l.94-2.63c.11-.32-.05-.67-.37-.79Z"/>
    <path d="M32.08,33.98c-.32-.11-.67.05-.79.37l-.94,2.63c-.11.32.05.67.37.79.07.02.14.04.21.04.25,0,.49-.16.58-.41l.94-2.63c.11-.32-.05-.67-.37-.79Z"/>
    <path d="M24.13,28.65c-.17-.06-.35-.04-.5.04-.13.07-.23.18-.29.33l-.94,2.63c-.11.32.05.67.37.79.07.02.14.04.21.04.25,0,.49-.16.58-.41l.94-2.63c.11-.32-.05-.67-.37-.79Z"/>
    <path d="M30.3,28.65c-.32-.11-.67.05-.79.37l-.94,2.63c-.11.32.05.67.37.79.07.02.14.04.21.04.25,0,.49-.16.58-.41l.94-2.63c.11-.32-.05-.67-.37-.79Z"/>
    <path d="M36.48,28.65c-.32-.11-.67.05-.79.37l-.94,2.63c-.11.32.05.67.37.79.07.02.14.04.21.04.25,0,.49-.16.58-.41l.94-2.63c.11-.32-.05-.67-.37-.79Z"/>
  </g>
  <g>
    <path class="cls-2" d="M17.17,4.09c-.88-.33-1.84-.51-2.84-.51-4.48,0-8.11,3.63-8.11,8.11,0,.32.02.64.06.96-.27-.04-.55-.06-.83-.06-3.01,0-5.44,2.44-5.44,5.44s2.44,5.44,5.44,5.44h16.13V.81c-1.74.71-3.25,1.85-4.41,3.29Z"/>
    <path class="cls-4" d="M36.61,10.33c-.31-5.76-5.08-10.33-10.92-10.33-1.46,0-2.85.29-4.12.81v22.66h15.01c3.63,0,6.57-2.94,6.57-6.57s-2.93-6.55-6.54-6.57Z"/>
    <path class="cls-1" d="M10.45,26.51c-.32-.11-.67.05-.79.37l-.94,2.63c-.11.32.05.67.37.79.07.02.14.04.21.04.25,0,.49-.16.58-.41l.94-2.63c.11-.32-.05-.67-.37-.79Z"/>
    <path class="cls-1" d="M16.62,26.51c-.32-.11-.67.05-.79.37l-.94,2.63c-.11.32.05.67.37.79.07.02.14.04.21.04.25,0,.49-.16.58-.41l.94-2.63c.11-.32-.05-.67-.37-.79Z"/>
    <path class="cls-1" d="M12.13,31.85c-.32-.11-.67.05-.79.37l-.94,2.63c-.11.32.05.67.37.79.07.02.14.04.21.04.25,0,.49-.16.58-.41l.94-2.63c.11-.32-.05-.67-.37-.79Z"/>
    <path class="cls-1" d="M18.34,31.85c-.32-.11-.67.05-.79.37l-.94,2.63c-.11.32.05.67.37.79.07.02.14.04.21.04.25,0,.49-.16.58-.41l.94-2.63c.11-.32-.05-.67-.37-.79Z"/>
    <path class="cls-1" d="M23.82,31.76c-.32-.11-.67.05-.79.37l-.94,2.63c-.11.32.05.67.37.79.07.02.14.04.21.04.25,0,.49-.16.58-.41l.94-2.63c.11-.32-.05-.67-.37-.79Z"/>
    <path class="cls-1" d="M30.03,31.76c-.32-.11-.67.05-.79.37l-.94,2.63c-.11.32.05.67.37.79.07.02.14.04.21.04.25,0,.49-.16.58-.41l.94-2.63c.11-.32-.05-.67-.37-.79Z"/>
    <path class="cls-1" d="M21.29,26.79l-.94,2.63c-.11.32.05.67.37.79.07.02.14.04.21.04.25,0,.49-.16.58-.41l.94-2.63c.11-.32-.05-.67-.37-.79-.17-.06-.35-.04-.5.04v.76-.76c-.13.07-.23.18-.29.33Z"/>
    <path class="cls-1" d="M28.25,26.42c-.32-.11-.67.05-.79.37l-.94,2.63c-.11.32.05.67.37.79.07.02.14.04.21.04.25,0,.49-.16.58-.41l.94-2.63c.11-.32-.05-.67-.37-.79Z"/>
    <path class="cls-1" d="M34.43,26.42c-.32-.11-.67.05-.79.37l-.94,2.63c-.11.32.05.67.37.79.07.02.14.04.21.04.25,0,.49-.16.58-.41l.94-2.63c.11-.32-.05-.67-.37-.79Z"/>
  </g>
</svg>