<?xml version="1.0" encoding="UTF-8"?>
<svg id="Layer_1" data-name="Layer 1" xmlns="http://www.w3.org/2000/svg" width="48.66" height="28.97" xmlns:xlink="http://www.w3.org/1999/xlink" viewBox="0 0 48.66 28.97">
  <defs>
    <style>
      .cls-1 {
        fill: #2b2b2c;
      }

      .cls-2 {
        fill: url(#linear-gradient-2);
      }

      .cls-3 {
        fill: #a7e2f0;
      }

      .cls-4 {
        fill: url(#linear-gradient-3);
      }

      .cls-5 {
        fill: #149edb;
      }

      .cls-6 {
        fill: #fefefe;
      }

      .cls-7 {
        fill: url(#linear-gradient);
      }
    </style>
    <linearGradient id="linear-gradient" x1="239.87" y1="2332.29" x2="239.71" y2="2332.23" gradientTransform="translate(-2262.58 22335.86) scale(9.57 -9.57)" gradientUnits="userSpaceOnUse">
      <stop offset="0" stop-color="#232426"/>
      <stop offset="1" stop-color="#092435"/>
    </linearGradient>
    <linearGradient id="linear-gradient-2" x1="237.3" y1="2333.32" x2="240.81" y2="2330.77" gradientTransform="translate(-2262.58 22335.86) scale(9.57 -9.57)" gradientUnits="userSpaceOnUse">
      <stop offset="0" stop-color="#57caef"/>
      <stop offset="1" stop-color="#a9e0ee"/>
    </linearGradient>
    <linearGradient id="linear-gradient-3" x1="238.74" y1="2333.22" x2="238.58" y2="2333" gradientTransform="translate(-2262.58 22335.86) scale(9.57 -9.57)" gradientUnits="userSpaceOnUse">
      <stop offset="0" stop-color="#272a2b"/>
      <stop offset="1" stop-color="#0d2531"/>
    </linearGradient>
  </defs>
  <path class="cls-1" d="M24.49,3.48c-2.3-1.61-4.83-2.71-7.69-2.71-6,0-10.93,4.81-12.83,10.22-.08.22-.47,1.55-.64,1.16-.13-.3.31-2.07.45-2.48C5.16,5.63,8.7,2.14,12.7.71c5.94-2.12,12.24.71,15.78,5.64.29.41.77,1.45.98,1.65.06.06.92.32,1.09.4,4.31,1.95,4.21,8.72,11.87,9.5,1.45.15,3.83-.01,4.54-1.56.24-.51.19-1.04-.26-1.39-.09.08-.16.17-.28.19l-.08-.03c-.28-.61,1.38-1.48,2.12.92.44,1.44.16,3.02-.86,4.14,1,3.18.19,7.36-3.36,8.44-2.82.86-5.22-1.18-7.91-1.19-2.11,0-3.67,1.45-5.69,1.55-2.49.11-4.28-1.41-6.75-1.45-2.49-.04-3.72,1.31-5.64,1.43-2.22.14-4.03-1.29-6.32-1.38-1.58-.06-2.77.43-4.22.88-2.86.89-5.6-.3-6.46-3.26-.37-1.3-.52-3.34.16-4.56.82-1.48,2.23-1.03,1.92-.51-.22.37-.99.17-.91.81.6,4.74,13.97-.57,12.71-8.06-.86-5.13-8.34-4.44-7.53-.21.36,1.91,2.4,2.52,2.93.85-.18-.8-.58-.92-1.35-.74h-.04c1.58-1.5,2.92.66,1.53,1.94-1.59,1.46-3.19.08-3.79-1.55-.39,1.35-1.08,2.63-2.35,3.32-1.48.81-3.37.39-4.18-1.14-.3-.55-.67-2.52.05-2.92.87-.49-.11,1.38.66,1.78,1.82.94,2.52-2.65,2.8-1.5.18.77-1.04,1.96-1.73,2.25.52.11.91.02,1.41-.13,1-.73,1.22-2.66,1.55-3.79.72-2.45,2.29-4.65,4.21-6.3,4.19-3.61,9.61-4.1,14.43-1.58.23.12.48.34.75.34ZM28.17,24.89c-1.04-.47-1.67-1.04-2.57-1.5-1.72-1.2-2.31-.92-3.8.36-2.35,2.02-4.22,2.12-7.09.66-.24-.21-.62-.42-.9-.57-.26,0-.5-.22-.72-.34-2.73-1.44-3.88,3.06-7.78,2.73-.89-.07-1.79-.35-2.57-.76-.25-.13-.53-.37-.81-.43.71,2.54,3.01,3.45,5.5,2.74,2.66-.76,3.78-1.52,6.84-.52,3.03.99,3.17,1.52,6.12.24,4.83-2.09,6.73.91,10.18.73,2.06-.11,3.41-1.6,5.91-1.53,1.9.06,3.29.94,5.07,1.29,3.09.61,5.12-1.32,5.68-4.26-1.89,2.33-5.17,1.95-7.45.41-.51-.34-.99-.78-1.54-1.06l-.04-.02c-1.7-1.04-2.21-.11-3.59.9-1.85,1.35-4.29,1.92-6.44.92ZM7.07,10.58c.79-1.18,1.33-1.67,2.79-1.96,2.76-.55,5.44,1.13,5.98,3.94.65,3.4-1.65,6.59-4.22,8.56-.28.22-1.02.63-1.2.86l-.05.02c-.51.19-.97.48-1.47.69-2.33.99-5.74,1.62-7.08-1.11-.08.46-.13,1.01-.08,1.48,1.08,1.9,4.28,1.76,5.97.78.94-.55,1.79-1.27,2.72-1.86,2.08-.32,3.76,1.17,5.48,2.26.21-.43.48-.81.74-1.21,2.27-3.53,3.94-10.06.49-13.42-2.32-2.26-6.77-3.09-9.18-.61-.35.36-.87,1.07-.86,1.59ZM1.73,24.24c.07.27.13.53.21.8.28.06.55.3.81.43.79.42,1.69.69,2.57.76,3.9.33,5.05-4.18,7.78-2.73.22.12.46.34.72.34-2.42-1.67-2.58-1.61-4.69-.02-2.39,1.8-4.84,1.97-7.4.42Z"/>
  <path class="cls-5" d="M3.55,14.82c.53.13,1.56-.41,2.08-.61-.94,2.01-3.2,2.6-4.67.74.41.04.78.06,1.18,0,.52.12.91.02,1.41-.13Z"/>
  <path class="cls-5" d="M7.07,10.58c0-.52.51-1.23.87-1.59,2.41-2.48,6.87-1.65,9.18.61,3.45,3.37,1.78,9.89-.49,13.42-.26.4-.53.78-.74,1.21-1.72-1.09-3.4-2.58-5.48-2.26-.92.59-1.77,1.31-2.72,1.86-1.69.98-4.88,1.12-5.97-.78-.05-.47,0-1.01.08-1.48,1.34,2.72,4.75,2.1,7.08,1.11.5-.21.96-.51,1.47-.69l.05-.02c.18-.23.92-.64,1.2-.86,2.57-1.97,4.87-5.16,4.22-8.56-.54-2.81-3.22-4.49-5.98-3.94-1.45.29-1.99.77-2.79,1.95ZM16.43,12.36v.07c-.05.51.04,1.02.01,1.53-.12,2.16-1.26,4.2-2.64,5.83-.12.14-1.55,1.68-.32,1.06,1.72-1.06,2.98-3.09,3.44-5.04.14-.59.37-3.37-.5-3.45Z"/>
  <path class="cls-5" d="M29.73,8.8c2.54,1.06,3.25,2.92,4.66,5.01,2.28,3.37,7.43,6.12,11.44,4.46,1.07-.44,1.41-.99,2.03-1.91.04,2.83-1.2,4.69-4.27,4.71-2.84.01-3.58-2.52-5.67-2.8-1.34-.18-2.95,1.24-4.12,1.82-2.09,1.05-4.91,1.16-6.76-.46-.12-.1-.38-.41-.53-.32h0c.43-.2.87-.41,1.27-.67,2.87-1.93,2.88-6.81,1.94-9.84Z"/>
  <path class="cls-7" d="M30.51,13.3c2.23.04,3.61,2.82,2.42,4.65-.57.31-.12-.7-.09-.93.12-1.19-.62-2.49-1.58-3.15-.21-.14-.63-.27-.78-.46l.03-.11Z"/>
  <path class="cls-6" d="M31.23,11.34c1.17,0,2.11,1.67,2.51,2.58.55,1.27.62,2.62.11,3.9-.08.07-.27.07-.35.01-.01-.26.11-.6.16-.86.46-2.49-.91-4-2.39-5.6l-.03-.03Z"/>
  <path class="cls-3" d="M28.17,24.89c2.15.99,4.6.43,6.44-.93,1.38-1.02,1.89-1.95,3.59-.9l.04.02c.55.28,1.03.71,1.54,1.06,2.29,1.54,5.56,1.92,7.45-.41-.56,2.94-2.59,4.87-5.68,4.26-1.78-.35-3.18-1.23-5.07-1.29-2.5-.07-3.85,1.42-5.91,1.53-3.45.19-5.35-2.81-10.18-.73-2.95,1.27-3.1.74-6.12-.24-3.06-1-4.18-.23-6.84.52-2.48.71-4.79-.2-5.5-2.74.28.06.55.3.81.43.79.42,1.69.69,2.57.76,3.9.33,5.05-4.18,7.78-2.73.22.12.46.34.72.34.28.16.66.36.9.57,2.86,1.46,4.74,1.36,7.09-.66,1.49-1.28,2.08-1.56,3.8-.36.9.46,1.53,1.03,2.57,1.5ZM14.72,24.41h-.01s.02.06.02.06c1.7,1.11,3.94,2,5.93,1.15,1.23-.52,1.98-1.7,3.08-2.2.74-.33,1.7.04,1.87-.03-1.72-1.2-2.31-.92-3.8.36-2.35,2.02-4.22,2.12-7.09.66ZM28.17,24.89l-.02.04c.09.38,1.47.74,1.82.82,1.85.43,3.78-.12,5.25-1.29,1.69-1.34,1.02-1.21,2.99-1.4-1.7-1.04-2.21-.11-3.59.9-1.84,1.36-4.29,1.92-6.44.93Z"/>
  <path class="cls-2" d="M3.55,14.82c1-.73,1.22-2.66,1.55-3.79.72-2.45,2.29-4.65,4.21-6.3,4.19-3.61,9.61-4.1,14.43-1.58.23.12.49.34.75.33,2.24,1.49,4.24,4.13,4.78,6.77.44,2.16.2,5.41-1.03,7.26-.52.78-1.88,1.57-1.72,1.8h0c.51,1.03,1.46,1.66,2.53,2.02,2.26.75,4.51-.15,6.43-1.33,2.41-1.48,2.44-1.27,4.5.4,2,1.62,4.01,1.88,6.33.75.08-.04.18-.1.27-.13.14-.1.28-.2.43-.29.09.41.2.83.24,1.25.16,1.59-1.94,2.6-3.26,2.73-3.2.31-4.95-2.82-6.96-2.84-1.17-.02-2.11,1.04-3.01,1.64-3.08,2.06-5.2,1.14-8.11-.79-4.04-2.68-3.98,2-7.96,1.92-.73-.01-1.35-.27-2.05-.41.21-.43.48-.81.74-1.21,2.27-3.53,3.94-10.06.49-13.42-2.32-2.26-6.77-3.09-9.18-.61-.35.36-.87,1.07-.87,1.59-.58,1.16-.84,2.44-1.44,3.63-.52.2-1.54.74-2.08.61Z"/>
  <path class="cls-3" d="M46.58,21.02c.14-.1.28-.2.43-.29.09.41.2.83.24,1.25l-.03.21c0-.4-.09-.76-.19-1.14-.05,0-.12.11-.2.12-.03-.09,0-.15.04-.24l-.02-.02c-.09.05-.16.11-.26.11Z"/>
  <path class="cls-4" d="M17.08,4.56c3.2-.18,6.76,2.22,8.16,4.98.32.63.88,1.73.65,2.43h-.04c-.19-.21-.32-.62-.44-.89-1.98-4.11-5.61-6.18-10.05-6.23.58-.24,1.1-.28,1.72-.3Z"/>
  <path class="cls-6" d="M21.95,3.48c1.36-.24,2.52.7,3.47,1.57,2.07,1.9,3.38,4.13,3.49,6.94.06,1.59-.36,3.67-1.47,4.86-.13.13-.28.25-.41.37,2.3-4.8,1.09-9.31-3.3-12.46-.44-.32-1.84-.95-1.77-1.3Z"/>
</svg>