<?xml version="1.0" encoding="UTF-8"?>
<svg id="Layer_1" data-name="Layer 1" xmlns="http://www.w3.org/2000/svg" width="838.77" height="868.55" viewBox="0 0 838.77 868.55">
  <defs>
    <style>
      .cls-1 {
        fill: #fdfdfe;
      }

      .cls-2 {
        fill: #e93f2c;
      }
    </style>
  </defs>
  <path class="cls-1" d="M173.01,549.56c-31.12-67.64-33.6-168.76,2.51-236.13,2.16-4.04,9.55-18.75,13.32-18.76,4.17-.01,7.45,4.96,7.07,8.95-.47,4.9-12.87,27.06-15.57,34.63-21.91,61.48-21.47,127.64,0,189.05,2.41,6.88,14.95,27.31,11.23,33.19l-122.76,84.34-4.73-3.28-32.19-60.78c-1.94,12.38,34.23,66.46,29.97,71.99-5.11,1.15-3.49-1.39-5.17-3.75-15.16-21.4-29.13-57.92-36.86-83.2C-15.91,449-4.01,308.87,61.01,204.63l106.58,79.56c-4.56,14.64-13.7,27.22-19.23,42.09-22.69,61.09-21.48,132.68,1.46,193.53,5.16,13.7,14.31,39.44,29.99,41.99-2.45-3.83-4.93-8.15-6.81-12.23Z"/>
  <path class="cls-1" d="M779.82,654.76c-4.96.05-10.45-5.79-9.71-10.53.43-2.78,17.27-29.15,20.47-35.74,34.88-71.71,43.56-155.97,28.74-234.18-1.66-8.73-3.64-20.3-8.47-27.53,7.85,73,2.1,147.8-22.96,217.02-9.19,25.39-21.64,49.14-34.06,72.96l-110.13-77.26c7.89-23.17,20.3-45,26.73-69.17,17.27-64.9,4.56-132.87-24.39-192.19l128.63-93.24c3.81.91,22.71,41.93,25.55,48.52,43.88,101.8,51.98,218.82,15.68,324.38-9.29,27.01-22.76,51.87-36.07,76.96Z"/>
  <path class="cls-1" d="M643.62,69.01c2.05,3.53-12.96,23.82-16.13,28.39-17.72,25.56-37.63,52.89-57.69,76.41-1.19,1.4-1.92,3.11-1.99,4.96-63.04-44.88-148.41-56.51-223.22-38.26-18.17,4.43-47.77,14.82-63.41,24.59-4.63,2.89-8.65,10.81-13.92,9.45-7.84-2.02-66.59-92.28-76.92-104.81.31-4.1,36.22-24.26,42.17-27.32,115.09-59.28,268.37-56.28,380.69,8,4.1,2.34,29.52,17.04,30.42,18.58Z"/>
  <path class="cls-1" d="M551.51,657.12l78.47,110.54c-105.22,71.86-252.74,85.95-369.47,33.47-19.33-8.69-36.09-22.64-56.65-28.37l81.31-115.8c19.59,8.22,38.15,18.74,58.69,24.82,54.86,16.25,108.45,13.79,161.96-6.03,7.87-2.92,41.12-21.31,45.69-18.62Z"/>
  <path class="cls-2" d="M256.56,223.47c-8.51,9.08-17.36,18.1-25.73,27.27-6.94,7.6-17.55,24.46-24,29.99-2.07,1.77-2.89,2.47-5.87,2.15-22.2-17.08-43.86-35.13-66.15-52.05-8.91-6.76-57.78-39.18-60.02-44.11s8.22-21.82,11.84-27.07c14.02-20.32,44.73-51.47,64.29-66.81,3.86-3.03,15.47-12.86,19.52-11.84,9.73,2.45,80.9,115.42,98.54,127.79,2.86,5.53-9.36,11.42-12.42,14.69Z"/>
  <path class="cls-2" d="M187.86,588.77c4.92-3.89,8.8-15.74,17.95-11.01l63.88,69.72-97.85,132.38c-5.26,3.35-23.39-12.16-28.01-16.06-16.09-13.56-55.85-55.38-64.78-73.22-7.23-14.45-9.03-17.88,4.8-23.8,32.76-14.03,64.99-43.63,92.91-66,2.75-2.2,16.46-5.62,11.09-12Z"/>
  <path class="cls-2" d="M653.86,98.77c3.87-5.48,6.26-13.1,11.19-17.88,10.03-2.33,67.03,57.34,75.84,67.85,4.45,5.31,27.75,32.36,24.67,37.71l-131.05,94.04c-6.54.58-27.71-31.7-33.57-37.8-6.28-6.54-29.25-22.04-32.18-27.98-2.58-5.25,3.5-7.58,5.1-9.94,23.83-14.02,35.95-40.08,51.29-61.79,1.12-1.59,3.61-2.23,4.69-3.79,8.88-12.71,20.74-24.94,24.02-40.42Z"/>
  <path class="cls-2" d="M573.86,652.77c16.22-5.71,69.06-51.05,70-66,12.78,3.2,25.61,14.46,36.63,22.37,29.55,21.21,59.11,43.3,86.88,66.61-18.79,26.53-37.71,53.66-61.49,76.05-4.92,4.64-33.22,28.7-37.17,29.04-1.94.16-3.17.03-4.86-1.02-2.26-1.41-22.11-33.81-26.37-39.67-20.45-28.19-47.18-57.09-63.63-87.37Z"/>
  <path class="cls-1" d="M649.5,796.44c-122.76,84.51-280.68,96.18-413.68,27.37-12.78-6.61-35.23-19.04-45.52-28.37-3.11-2.82-4.34-6.98-.54-9.8,4.59-3.42,21.15,10.43,26.76,13.48,131.46,71.43,268.61,74.7,400.69,2,10.04-5.53,33.32-28.61,32.3-4.68Z"/>
  <path class="cls-1" d="M555.82,194.89c-1.92,6.18.3,10.76-6.79,9.81-8.67-1.17-37.99-17.27-50.75-21.35-53.29-17.03-111.84-18.32-164.91-.07-9.33,3.21-42.55,20.85-46.88,21.25s-7.41-8.94-8.56-12.62c34.8-15.74,68.49-30.75,106.95-35.12,60.92-6.92,118.54,7.6,170.95,38.1Z"/>
  <path class="cls-1" d="M637.86,578.77c.64-.03,1.64-.16,2,0l2,2c.97,1.43,2.1,4.36,2,6-.94,14.95-53.78,60.29-70,66-1.57-2.89-5.27-4.95-4-10,16.9-10.05,33.5-25.13,47.03-39.97,5.53-6.07,11.92-17.95,16.86-22.7,1.9-1.82,1.84-1.22,4.11-1.33Z"/>
  <path class="cls-1" d="M187.86,588.77c5.37,6.38-8.34,9.79-11.09,12-27.92,22.37-60.16,51.98-92.91,66,9.86-10.51,22.5-20.03,34.17-28.83,22.27-16.78,48.4-32.22,69.83-49.17Z"/>
  <path class="cls-1" d="M653.86,98.77c-3.28,15.48-15.14,27.71-24.02,40.42-1.08,1.55-3.57,2.2-4.69,3.79-15.34,21.71-27.46,47.77-51.29,61.79,24.53-36.26,54.58-70.06,80-106Z"/>
  <path class="cls-2" d="M637.86,578.77c-2.27.11-2.21-.49-4.11,1.33-4.95,4.75-11.33,16.63-16.86,22.7-13.52,14.84-30.13,29.92-47.03,39.97,3.79-3.74,8.45-9.56,12.15-12.89,10.48-9.44,20.35-18.62,29.79-30.17,3.47-4.25,15.12-23.83,16.39-24.57,2.85-1.67,8.65-.41,9.67,3.63Z"/>
  <path class="cls-2" d="M641.86,580.77l-2-2c1.08.47,1.4,1.11,2,2Z"/>
</svg>