<?xml version="1.0" encoding="UTF-8"?>
<svg id="Layer_1" data-name="Layer 1" xmlns="http://www.w3.org/2000/svg" width="32.32" height="32.32" viewBox="0 0 32.32 32.32">
  <defs>
    <style>
      .cls-1 {
        fill: #ebbf02;
      }

      .cls-2 {
        fill: #fdcd02;
      }
    </style>
  </defs>
  <path class="cls-2" d="M8.7,16.16c0,4.12,3.34,7.46,7.46,7.46v-14.91c-4.12,0-7.46,3.34-7.46,7.46h0Z"/>
  <path class="cls-2" d="M15.26.9v5.78c0,.49.4.9.9.9V0c-.49,0-.9.4-.9.9Z"/>
  <path class="cls-2" d="M15.26,25.64v5.78c0,.49.4.9.9.9v-7.57c-.49,0-.9.4-.9.9h0Z"/>
  <path class="cls-2" d="M8.82,10.08c.17.17.4.26.63.26s.46-.09.63-.26c.35-.35.35-.92,0-1.27l-4.09-4.09c-.35-.35-.92-.35-1.27,0s-.35.92,0,1.27l4.09,4.09h.01Z"/>
  <path class="cls-2" d="M7.57,16.16c0-.49-.4-.9-.9-.9H.9c-.49,0-.9.4-.9.9s.4.9.9.9h5.78c.49,0,.9-.4.9-.9h-.01Z"/>
  <path class="cls-2" d="M8.82,22.23l-4.09,4.09c-.35.35-.35.92,0,1.27.17.17.4.26.63.26s.46-.09.63-.26l4.09-4.09c.35-.35.35-.92,0-1.27s-.92-.35-1.27,0h.01Z"/>
  <g>
    <path class="cls-1" d="M23.61,16.16c0-4.12-3.34-7.46-7.46-7.46h0v14.91h0c4.12,0,7.46-3.34,7.46-7.46h0Z"/>
    <path class="cls-1" d="M17.05,6.67V.9c0-.49-.4-.9-.9-.9v7.57c.49,0,.9-.4.9-.9Z"/>
    <path class="cls-1" d="M17.05,31.42v-5.78c0-.49-.4-.9-.9-.9v7.57c.49,0,.9-.4.9-.9h0Z"/>
    <path class="cls-1" d="M23.49,22.23c-.35-.35-.92-.35-1.27,0s-.35.92,0,1.27l4.09,4.09c.17.17.4.26.63.26s.46-.09.63-.26c.35-.35.35-.92,0-1.27l-4.09-4.09h.01Z"/>
    <path class="cls-1" d="M31.42,15.26h-5.78c-.49,0-.9.4-.9.9s.4.9.9.9h5.78c.49,0,.9-.4.9-.9s-.4-.9-.9-.9Z"/>
    <path class="cls-1" d="M22.86,10.35c.23,0,.46-.09.63-.26l4.09-4.09c.35-.35.35-.92,0-1.27s-.92-.35-1.27,0l-4.09,4.09c-.35.35-.35.92,0,1.27.17.17.4.26.63.26h.01Z"/>
  </g>
</svg>