<?xml version="1.0" encoding="UTF-8"?>
<svg id="Layer_1" data-name="Layer 1" xmlns="http://www.w3.org/2000/svg" width="39.83" height="39.58" viewBox="0 0 39.83 39.58">
  <defs>
    <style>
      .cls-1 {
        fill: #fccd41;
      }

      .cls-2 {
        fill: #302613;
      }

      .cls-3 {
        fill: #2f2c2b;
      }

      .cls-4 {
        fill: #f6a146;
      }

      .cls-5 {
        fill: #321900;
      }
    </style>
  </defs>
  <path class="cls-3" d="M7.21,10.96c-.3-.98-2.51-3.33-2.08-4.15.42-.82,4.26,1.56,5.4,1.38,1.84-.29-.73-5.59.44-5.84.92-.2,4.89,4.51,6.11,2.77.67-.95.49-4.9,1.79-5.12.74-.13,1.66,3.69,2.5,4.59,1.66,1.76,3.53-3.41,4.76-3.49,1.33-.08.04,4.1,1.08,5.22.78.84,2.08.18,2.86-.3.9-.57,4.03-2.71,2.87.08-.48,1.14-1.91,3.43-1.07,4.39,1,1.15,4.69-.72,5.42.09.96,1.07-3.81,4.03-2.59,5.63.89,1.16,5.3,1.13,5.13,2.43-.17,1.32-4.18,1.43-4.45,3.21-.3,1.95,3.43,2.71,3.26,4.15-.18,1.47-4.12-.3-5.27,1.01-1.49,1.69,2.66,4.84,1.55,5.66-1.13.84-4.14-2.23-5.53-1.29-1.81,1.22.94,4.98-.25,5.82-.39.28-.84-.36-1.1-.58-.85-.71-2.55-2.06-3.49-2.31-2.58-.69-1.92,4.42-3.15,5.22-.61.39-1.24-1.58-1.42-2-.74-1.7-1.36-3.96-3.37-1.96-.47.47-2.64,3.55-3.21,2.28-.55-1.25.69-4.29-.89-4.95-1.99-.83-5.06,3.05-5.6,1.76-.53-1.25,2.13-3.65,1.5-5.29-.26-.67-.87-.8-1.52-.76-.58.04-4.85,1.09-4.09-.55.55-1.18,3.26-3.24,2.74-4.68-.54-1.51-4.99-.94-5.5-2.17-.52-1.25,5.42-2.01,4.73-3.8-.39-1-3.69-3.1-3.29-4,.15-.35.94-.34,1.24-.34,1.6,0,3.14.6,4.25-.99.09-.38.19-.74.25-1.12ZM16.49,6.26c-.96.1-2.66-.86-3.33-1.53-.38.44-.31.59-.29,1.15.04,1.34-.51,3.46-2.08,3.58-.43.03-.78-.04-.95-.47-.5-.18-1.26-.48-1.76-.57-.8,1.02,1.84,2.29.51,4.09-.41.55-.96.86-1.64.79-.5.67-1.57,1.07-1.44,2.03.1.73.77,1.13.76,2.03,0,1.36-1.62,2.27-1.43,3.22.21,1.03,2.65,1.54,1.74,3.71-.09.21-.22.48-.44.58-.29.55-.63,1.03-1.02,1.51-.33.33-.91,1.02-1.16,1.4.05.19.09.29.24.43.44-.04.92-.06,1.34-.18,1.43-.22,2.48-.5,3.43.78,1.65.12,1.91,2.11,1.06,3.37-.08.12-.29.31-.32.44,1.6-.8,3.11-1.1,4.18.56.08.28.17.56.26.84,0,.46-.02.92,0,1.37-.04.24-.07.47-.07.71.14.26.06.46.28.76.15-.23.36-.41.51-.63,1.06-1.14,2.71-3.2,4.31-1.69.69.65,1.08,1.61,1.44,2.48.04.14.42,1.17.52,1.34h.03s.61-2.6.72-3.11c.46-1.43,1.66-2.08,3.08-1.61.07-.71.58-1.32,1.36-1.13.7.17,1.05,1.05,1.4,1.6-.03-.49-.05-.92.22-1.36-.18-1.16.88-2.25,1.99-2.35v-.04c-.44-1.11.98-2.39,2.04-1.81.15.08.28.19.44.26-.39-1.62.15-2.52,1.68-3.08.29.05,1.58.01,1.91,0,.6.11,1.21.16,1.82.13-1.06-1.43-3.64-1.89-3.22-4.22.13-.73.64-1.17,1.22-1.57-.31-.03-.63.03-.94-.07-1.37-.43-.51-1.96.48-2.46-1.43-.56-1.96-1.43-1.46-2.92-.7.17-1.2-.34-1.11-1.03.08-.64.59-1.53,1.11-1.94-.39-.03-.77,0-1.15,0-1.14-.01-1.99-.87-1.95-2.01-.07-.1.02-.23-.14-.12-.4.27-.92.46-1.32.09-.63-.58.04-1.8-.04-2.29-1.83.56-3.05-.21-3.35-2.08-.36.49-.92,1.07-1.58.93-.54-.11-.65-.52-.94-.93-2.31,1.19-2.84-.07-3.78-2.12-.02.05-.02.09-.03.14-.04.85-.57,2.29-1.21,2.85-.51.46-1.38.61-1.95.16ZM7.31,8.05c-.23.37-.2.64-.35.94.48.7,1.29,1.7,1.11,2.61-.19.98-1.45,2.12-2.44,2.35-.11.03-.24.04-.34.07-.31.02-.64,0-.95,0-.12-.02-.24-.06-.36-.08l.03.02c-.02.15-.36.45-.41,1.03.76.82,2.05,1.54,1.99,2.81-.05,1.02-.96,1.45-1.73,1.89v.03c-.6.56-1.28.8-.87,1.73h.02c2,.49,4.04.64,3.13,3.41.22-.1.35-.37.44-.58.91-2.17-1.52-2.67-1.74-3.71-.19-.95,1.42-1.86,1.43-3.22,0-.9-.66-1.3-.76-2.03-.13-.96.94-1.37,1.44-2.03.68.07,1.23-.24,1.64-.79,1.34-1.8-1.31-3.08-.51-4.09-.19-.18-.53-.29-.78-.37ZM29.96,30.39c.3,0,.58.07.87.13.57-.3,1.97.83,2.8.48-.48-.66-.87-1.45-1.19-2.2-.16-.07-.29-.18-.44-.26-1.06-.58-2.48.7-2.02,1.81v.04ZM25,33.62c.32.14.61.32.92.47.41.27.81.61,1.25.84.16.18.39.32.59.46.18-.09.46-.09.66-.15-.2-.95-.44-1.5-.44-2.5-.27.43-.25.86-.22,1.36-.35-.55-.7-1.43-1.4-1.6-.77-.19-1.28.42-1.36,1.13ZM33.93,11.65c-.52.41-1.03,1.3-1.11,1.94-.09.69.41,1.2,1.11,1.03l.07-.16c.2-.38.4-.73.68-1.06.14-.19.29-.36.43-.55.02-.72.34-.89-.43-1.38-.25.03-.48.05-.71.17h-.03s-.01.02-.02.02ZM30.83,6.52c.17.1.24.22.32.39-.07.44-.26.86-.32,1.3.06.07.11.14.18.2.45-.9.96-1.87,1.29-2.81-.5.22-1.07.53-1.46.91ZM3.86,19.69c-.74.32-2.17.93-2.81,1.33.62.19,1.29.34,1.94.42-.41-.93.27-1.17.88-1.73v-.03ZM36.94,17.98c-.01.08.35.43.33.79-.01.26-.17.45-.22.69.62-.22,1.42-.51,1.95-.88-.67-.25-1.37-.42-2.06-.6ZM9.14,29.09c.55,1.87-.94,3.25-1.43,4.92.36-.3.76-.58,1.15-.84-1.43-.78,2.01-2.83.28-4.07ZM30.83,30.52c.74.3,2.98,1.41,3.48,1.47-.21-.34-.42-.68-.68-.99-.83.35-2.23-.78-2.8-.48ZM34.69,11.46c.77.49.45.66.43,1.38.53-.52,1-1.03,1.38-1.68-.62.05-1.2.15-1.8.3ZM25.97,2.09c-.46.58-.87,1.19-1.31,1.79.62-.29.39-.56,1.31-.29.08-.5.1-1,0-1.49ZM2.48,13.85c.33.42.75.75,1.11,1.14.05-.57.39-.88.41-1.03l-.03-.02c-.5-.02-.98-.11-1.48-.09ZM18.83,1.13c-.2.74-.35,1.44-.45,2.21.08.03.13-.16.15-.21.17-.35.39-.79.79-.92-.14-.37-.29-.73-.49-1.07ZM6.03,7.56c.28.5.63.94.92,1.43.15-.3.12-.57.35-.94-.42-.17-.84-.35-1.27-.49ZM11.7,4.38c.05.33.08.66.17.98.21-.35.31-.8.73-.98-.19-.21-.36-.35-.6-.5-.09.17-.2.33-.29.5ZM27.75,35.38c.29.2.57.42.85.63-.06-.26-.11-.52-.19-.78-.2.06-.48.06-.66.15ZM14.1,36.09c-.07.37-.1.73-.12,1.11.13-.12.27-.23.39-.35-.22-.3-.14-.5-.28-.76ZM3.67,28.2c.18,0,.36,0,.54,0-.15-.14-.19-.24-.24-.43-.11.14-.2.28-.3.43Z"/>
  <path class="cls-4" d="M7.21,10.96c.14.27.07.97-.25,1.12.09-.38.19-.73.25-1.12Z"/>
  <path class="cls-4" d="M11.41,3.33c.2.17.4.35.58.54-.09.17-.2.33-.29.5-.15-.31-.21-.71-.29-1.04Z"/>
  <path class="cls-4" d="M8.99,28.8c1.65.12,1.91,2.11,1.06,3.37-.08.12-.29.31-.32.44-.29.18-.58.39-.87.56-1.43-.78,2.01-2.83.28-4.07l-.15-.29Z"/>
  <path class="cls-4" d="M12.59,4.38c.21.07.39.23.57.36-.38.44-.31.59-.29,1.15.04,1.34-.51,3.46-2.08,3.58-.43.03-.78-.04-.95-.47,2.27,0,2.39-1.68,2.02-3.63.21-.35.31-.8.73-.98Z"/>
  <path class="cls-4" d="M24.66,3.88c.62-.29.39-.56,1.31-.29.04.55,0,1.1,0,1.65-.36.49-.92,1.07-1.58.93-.54-.11-.65-.52-.94-.93.11-.18.99-1.12,1.21-1.36Z"/>
  <path class="cls-4" d="M19.32,2.2c.11.31.25.6.36.91-.02.05-.02.09-.03.14-.04.85-.57,2.29-1.21,2.85-.51.46-1.38.61-1.95.15,1.53-.1,1.63-1.73,1.88-2.93.08.03.13-.16.15-.21.17-.35.39-.79.79-.92Z"/>
  <path class="cls-4" d="M29.32,7.32c.51-.23,1.02-.62,1.51-.8.17.1.24.22.32.39-.07.44-.26.86-.32,1.3.06.07.11.14.18.2v.02c-.1.42-.27.75-.18,1.2-.07-.1.02-.23-.14-.12-.4.27-.92.46-1.32.09-.63-.58.04-1.8-.04-2.29Z"/>
  <path class="cls-4" d="M33.93,11.65s.01,0,.02,0h.03c.23-.13.46-.15.71-.18.77.49.45.66.43,1.38-.14.19-.28.37-.43.55-.28.33-.48.68-.68,1.06l-.07.16c-.7.17-1.2-.34-1.11-1.03.08-.64.59-1.53,1.11-1.94ZM34.21,13.39c-.31.29-.6.73-.2,1.06.2-.38.4-.73.68-1.06-.15,0-.33-.02-.48,0Z"/>
  <path class="cls-4" d="M25,33.62c.07-.71.58-1.32,1.36-1.13.7.17,1.05,1.05,1.4,1.6-.03-.49-.05-.92.22-1.36,0,1,.24,1.55.44,2.5-.2.06-.48.06-.66.15-.19-.14-.43-.28-.59-.46-.43-.23-.84-.56-1.25-.84-.31-.15-.6-.33-.92-.47ZM25.92,34.09c.41.27.81.61,1.25.84-.1-.28-.51-1-.71-1.22-.2.1-.37.23-.54.38Z"/>
  <path class="cls-4" d="M35.39,17.54c.51.17,1.03.3,1.55.45-.01.08.35.43.33.79-.01.26-.17.45-.22.69-.34.17-.87.48-1.2.6-.31-.03-.63.03-.94-.07-1.37-.43-.5-1.96.48-2.46Z"/>
  <path class="cls-4" d="M29.96,30.39v-.04c-.44-1.11.98-2.39,2.04-1.81.15.08.28.19.44.26.32.75.71,1.54,1.19,2.2-.83.35-2.23-.78-2.8-.48-.29-.06-.57-.13-.87-.13ZM31.46,28.66c-.74.36.82.79,1.05.93l.07.04c.24-.33-.52-1.01-1.12-.97Z"/>
  <path class="cls-4" d="M7.31,8.05c.25.08.58.18.78.37-.8,1.02,1.84,2.29.51,4.09-.41.55-.96.86-1.64.79-.5.67-1.57,1.07-1.44,2.03.1.73.77,1.13.76,2.03,0,1.36-1.62,2.27-1.43,3.22.21,1.03,2.65,1.54,1.74,3.71-.09.21-.22.48-.44.58.91-2.76-1.14-2.92-3.13-3.4h-.02c-.41-.94.27-1.18.88-1.74v-.03c.75-.44,1.67-.88,1.72-1.89.06-1.27-1.24-1.99-1.99-2.81.05-.57.39-.88.41-1.03l-.03-.02c.12.03.24.06.36.08.31,0,.64.02.95,0,.1-.04.23-.05.34-.07,1-.23,2.25-1.38,2.44-2.35.18-.91-.62-1.9-1.11-2.61.15-.3.12-.57.35-.94ZM4.33,14.03c-.06.17-.11.33-.12.52.1.09.19.15.31.21.27-.2.53-.48.76-.73-.31.02-.64,0-.95,0Z"/>
  <path class="cls-4" d="M5.13,26.36c.36-.03,1.17-1.49,1.62-1.33.27.31-.62,2.11-.82,2.44-.1.16-.33.37-.37.55-.43.12-.9.14-1.34.18-.15-.14-.19-.24-.24-.43.25-.39.83-1.08,1.16-1.4Z"/>
  <path class="cls-4" d="M13.91,33.17c.57-.6,1.69-.19,1.68.67,0,.54-.28.55-.43.91-.04.11-.27,1.35-.27,1.47-.16.22-.36.41-.51.63-.22-.3-.14-.5-.28-.76,0-.24.03-.47.07-.71-.02-.46,0-.92,0-1.37-.1-.28-.18-.56-.26-.84ZM14.17,34.01c0,.46-.02.92,0,1.37.12-.19.46-1.41.01-1.43v.05Z"/>
  <path class="cls-4" d="M34.12,25.72c-.46-.22-1.11-.49-.8-1.16.06-.13.21-.22.3-.34.15-.22.18-.48.38-.68.47-.46.85,0,.83.51h.02c.72.42,1.72.37,1.19,1.67-.33.01-1.62.05-1.91,0Z"/>
  <path class="cls-4" d="M20.51,35.38c-.28-.12-.65-.09-.74-.45-.27-1.11,1.93-2.21,2.23-.2v.03s0-.03,0-.03v.05c-.06-.09-.07-.21-.09-.32-.11.09-.22.18-.31.3l.31.46c-.11.51-.68,3.07-.72,3.11h-.03c-.1-.16-.48-1.2-.52-1.34.19-.4.11-1.26-.13-1.62Z"/>
  <path class="cls-3" d="M18.95,7.91c9.48-.52,16.51,10.2,10.78,18.25-1.47,2.07-3.84,3.97-6.32,4.65-.89.24-1.79.3-2.69.45-.62-.04-1.24.02-1.86-.02-8.24-.52-13.29-9.24-9.71-16.7,1.56-3.25,4.58-5.58,8.1-6.38.56-.13,1.13-.17,1.7-.25ZM11.41,26.72c0-.12-.56-.99-.65-1.18-3.37-6.66,1.2-15.2,8.51-16.12,1.54-.2,3.28-.12,4.76.33.24.07.72.34.97.25-5.37-2.86-12.06-1.03-14.95,4.44-2.08,3.92-1.63,8.95,1.36,12.28Z"/>
  <path class="cls-1" d="M11.41,26.72c0-.12-.56-.99-.65-1.18-3.37-6.66,1.2-15.2,8.51-16.12,1.54-.2,3.28-.12,4.76.33.24.07.72.34.97.25,5.17,2.64,7.55,9.25,4.86,14.51-2.82,5.51-9.79,7.64-15.25,4.83-1.05-.54-2.49-1.63-3.2-2.62Z"/>
  <path class="cls-5" d="M27.75,22.61c.2.14.13.33,0,.49-.28-.04-.08-.34,0-.49Z"/>
  <path class="cls-3" d="M15.9,26.61c.24,0,.55.05.67.28-.29.04-.59.05-.67-.28Z"/>
  <path class="cls-2" d="M27.48,23.92c.32.16.09.53-.14.66-.36.01.05-.56.14-.66Z"/>
  <path class="cls-2" d="M13.64,25.21c.3.06.72.3.74.65-.3,0-.76-.31-.74-.65Z"/>
  <path class="cls-5" d="M20.87,28.52c.71-.04.66.32.14.28-.18,0-.43,0-.55-.15v-.05c.13-.08.27-.07.41-.07Z"/>
  <path class="cls-2" d="M13.16,25.72c.23.02.77.62.75.89-.4.03-.83-.49-.75-.89Z"/>
  <path class="cls-2" d="M16.39,27.69c.14-.02,1.55-.04,1.03.33-.38.07-1.49-.21-1.03-.33Z"/>
  <path class="cls-2" d="M29.61,20.23c.45.4-.18,1.83-.57,2.19-.06.01-.08-.05-.08-.1-.05-.36.43-1.8.65-2.09Z"/>
  <path class="cls-2" d="M27.03,24.98h.05c.32.25-.73,1.92-1.44,2.05-.52-.23,1.17-1.88,1.39-2.05Z"/>
  <path class="cls-2" d="M25.3,25.91c.03.09,0,.23,0,.32-.27.67-1.42,1.49-2.11,1.46-.03-.04-.06-.04-.06-.09.27-.32,1.87-1.55,2.17-1.69Z"/>
  <path class="cls-3" d="M29.53,18.21c.59-.08.79.72.83,1.15.23,2.26-.92,5.38-2.36,7.12-2.74,3.31-8.91,4.09-12.77,2.51-1.71-.7-3.36-2.32-3.53-4.22,0-.17-.05-.76.2-.79.27.14.12.41.16.65.53,3.22,3.39,4.21,6.27,4.61,2.46.34,4.84-.27,7.01-1.47.8-.44,1.61-.95,2.19-1.66,1.07-1.28,2.17-3.76,2.38-5.34.06-.44.15-1.64-.06-2-.12-.21-.52-.3-.34-.55Z"/>
</svg>