<?xml version="1.0" encoding="UTF-8"?>
<svg id="Layer_1" data-name="Layer 1" xmlns="http://www.w3.org/2000/svg" width="40.83" height="40.92" viewBox="0 0 40.83 40.92">
  <defs>
    <style>
      .cls-1 {
        fill: #ebbf02;
      }

      .cls-2 {
        opacity: .2;
      }

      .cls-3 {
        fill: #fdcd02;
      }
    </style>
  </defs>
  <g class="cls-2">
    <path d="M21.1,10.7c.6,0,1.09-.49,1.09-1.09V2.55c0-.6-.49-1.09-1.09-1.09s-1.09.49-1.09,1.09v7.06c0,.6.49,1.09,1.09,1.09Z"/>
    <path d="M12.14,13.77c.21.21.49.32.77.32s.56-.11.77-.32c.43-.43.43-1.12,0-1.55l-4.99-4.99c-.43-.43-1.12-.43-1.55,0-.43.43-.43,1.12,0,1.55l4.99,4.99Z"/>
    <path d="M10.61,21.19c0-.6-.49-1.09-1.09-1.09H2.46c-.6,0-1.09.49-1.09,1.09s.49,1.09,1.09,1.09h7.06c.6,0,1.09-.49,1.09-1.09Z"/>
    <path d="M12.14,28.6l-4.99,4.99c-.43.43-.43,1.12,0,1.55.21.21.49.32.77.32s.56-.11.77-.32l4.99-4.99c.43-.43.43-1.12,0-1.55-.43-.43-1.12-.43-1.55,0Z"/>
    <path d="M21.1,12.08h0c-5.03,0-9.11,4.08-9.11,9.11s4.08,9.11,9.11,9.11h0c5.03,0,9.11-4.08,9.11-9.11s-4.08-9.11-9.11-9.11Z"/>
    <path d="M21.1,31.68c-.6,0-1.09.49-1.09,1.09v7.06c0,.6.49,1.09,1.09,1.09s1.09-.49,1.09-1.09v-7.06c0-.6-.49-1.09-1.09-1.09Z"/>
    <path d="M30.06,28.6c-.43-.43-1.12-.43-1.55,0-.43.43-.43,1.12,0,1.55l4.99,4.99c.21.21.49.32.77.32s.56-.11.77-.32c.43-.43.43-1.12,0-1.55l-4.99-4.99Z"/>
    <path d="M39.73,20.09h-7.06c-.6,0-1.09.49-1.09,1.09s.49,1.09,1.09,1.09h7.06c.6,0,1.09-.49,1.09-1.09s-.49-1.09-1.09-1.09Z"/>
    <path d="M29.29,14.09c.28,0,.56-.11.77-.32l4.99-4.99c.43-.43.43-1.12,0-1.55-.43-.43-1.12-.43-1.55,0l-4.99,4.99c-.43.43-.43,1.12,0,1.55.21.21.49.32.77.32Z"/>
  </g>
  <g>
    <path class="cls-3" d="M10.62,19.73c0,5.03,4.08,9.11,9.11,9.11V10.62c-5.03,0-9.11,4.08-9.11,9.11Z"/>
    <path class="cls-3" d="M18.64,1.09v7.06c0,.6.49,1.09,1.09,1.09V0c-.6,0-1.09.49-1.09,1.09Z"/>
    <path class="cls-3" d="M18.64,31.31v7.06c0,.6.49,1.09,1.09,1.09v-9.24c-.6,0-1.09.49-1.09,1.09Z"/>
    <path class="cls-3" d="M10.77,12.32c.21.21.49.32.77.32s.56-.11.77-.32c.43-.43.43-1.12,0-1.55l-4.99-4.99c-.43-.43-1.12-.43-1.55,0-.43.43-.43,1.12,0,1.55l4.99,4.99Z"/>
    <path class="cls-3" d="M9.24,19.73c0-.6-.49-1.09-1.09-1.09H1.09c-.6,0-1.09.49-1.09,1.09s.49,1.09,1.09,1.09h7.06c.6,0,1.09-.49,1.09-1.09Z"/>
    <path class="cls-3" d="M10.77,27.15l-4.99,4.99c-.43.43-.43,1.12,0,1.55.21.21.49.32.77.32s.56-.11.77-.32l4.99-4.99c.43-.43.43-1.12,0-1.55-.43-.43-1.12-.43-1.55,0Z"/>
    <g>
      <path class="cls-1" d="M28.84,19.73c0-5.03-4.08-9.11-9.11-9.11h0v18.21h0c5.03,0,9.11-4.08,9.11-9.11Z"/>
      <path class="cls-1" d="M20.82,8.15V1.09c0-.6-.49-1.09-1.09-1.09v9.24c.6,0,1.09-.49,1.09-1.09Z"/>
      <path class="cls-1" d="M20.82,38.37v-7.06c0-.6-.49-1.09-1.09-1.09v9.24c.6,0,1.09-.49,1.09-1.09Z"/>
      <path class="cls-1" d="M28.69,27.15c-.43-.43-1.12-.43-1.55,0-.43.43-.43,1.12,0,1.55l4.99,4.99c.21.21.49.32.77.32s.56-.11.77-.32c.43-.43.43-1.12,0-1.55l-4.99-4.99Z"/>
      <path class="cls-1" d="M38.37,18.64h-7.06c-.6,0-1.09.49-1.09,1.09s.49,1.09,1.09,1.09h7.06c.6,0,1.09-.49,1.09-1.09s-.49-1.09-1.09-1.09Z"/>
      <path class="cls-1" d="M27.92,12.64c.28,0,.56-.11.77-.32l4.99-4.99c.43-.43.43-1.12,0-1.55-.43-.43-1.12-.43-1.55,0l-4.99,4.99c-.43.43-.43,1.12,0,1.55.21.21.49.32.77.32Z"/>
    </g>
  </g>
</svg>